<?xml version="1.0" encoding="utf-8" standalone="no"?>
<!DOCTYPE svg PUBLIC "-//W3C//DTD SVG 1.1//EN"
  "http://www.w3.org/Graphics/SVG/1.1/DTD/svg11.dtd">
<!-- Created with matplotlib (https://matplotlib.org/) -->
<svg height="439.2pt" version="1.1" viewBox="0 0 511.2 439.2" width="511.2pt" xmlns="http://www.w3.org/2000/svg" xmlns:xlink="http://www.w3.org/1999/xlink">
 <metadata>
  <rdf:RDF xmlns:cc="http://creativecommons.org/ns#" xmlns:dc="http://purl.org/dc/elements/1.1/" xmlns:rdf="http://www.w3.org/1999/02/22-rdf-syntax-ns#">
   <cc:Work>
    <dc:type rdf:resource="http://purl.org/dc/dcmitype/StillImage"/>
    <dc:date>2022-06-23T15:48:09.896989</dc:date>
    <dc:format>image/svg+xml</dc:format>
    <dc:creator>
     <cc:Agent>
      <dc:title>Matplotlib v3.3.3, https://matplotlib.org/</dc:title>
     </cc:Agent>
    </dc:creator>
   </cc:Work>
  </rdf:RDF>
 </metadata>
 <defs>
  <style type="text/css">*{stroke-linecap:butt;stroke-linejoin:round;}</style>
 </defs>
 <g id="figure_1">
  <g id="patch_1">
   <path d="M 0 439.2 
L 511.2 439.2 
L 511.2 0 
L 0 0 
z
" style="fill:#ffffff;"/>
  </g>
  <g id="axes_1">
   <g id="patch_2">
    <path d="M 84.485313 392.136875 
L 496.8 392.136875 
L 496.8 14.4 
L 84.485313 14.4 
z
" style="fill:#ffffff;"/>
   </g>
   <g id="PathCollection_1">
    <defs>
     <path d="M 0 2 
C 0.530406 2 1.03916 1.789267 1.414214 1.414214 
C 1.789267 1.03916 2 0.530406 2 -0 
C 2 -0.530406 1.789267 -1.03916 1.414214 -1.414214 
C 1.03916 -1.789267 0.530406 -2 0 -2 
C -0.530406 -2 -1.03916 -1.789267 -1.414214 -1.414214 
C -1.789267 -1.03916 -2 -0.530406 -2 0 
C -2 0.530406 -1.789267 1.03916 -1.414214 1.414214 
C -1.03916 1.789267 -0.530406 2 0 2 
z
" id="C0_0_40e4323064"/>
    </defs>
    <g clip-path="url(#p7f38273c70)">
     <use style="fill:#66c2a5;" x="168.708459" xlink:href="#C0_0_40e4323064" y="97.660114"/>
    </g>
    <g clip-path="url(#p7f38273c70)">
     <use style="fill:#66c2a5;" x="205.553838" xlink:href="#C0_0_40e4323064" y="110.716211"/>
    </g>
    <g clip-path="url(#p7f38273c70)">
     <use style="fill:#66c2a5;" x="175.258395" xlink:href="#C0_0_40e4323064" y="110.550709"/>
    </g>
    <g clip-path="url(#p7f38273c70)">
     <use style="fill:#66c2a5;" x="136.006592" xlink:href="#C0_0_40e4323064" y="105.956126"/>
    </g>
    <g clip-path="url(#p7f38273c70)">
     <use style="fill:#66c2a5;" x="188.645933" xlink:href="#C0_0_40e4323064" y="93.549096"/>
    </g>
    <g clip-path="url(#p7f38273c70)">
     <use style="fill:#66c2a5;" x="162.658783" xlink:href="#C0_0_40e4323064" y="101.664865"/>
    </g>
    <g clip-path="url(#p7f38273c70)">
     <use style="fill:#66c2a5;" x="185.714847" xlink:href="#C0_0_40e4323064" y="102.143041"/>
    </g>
    <g clip-path="url(#p7f38273c70)">
     <use style="fill:#66c2a5;" x="161.154519" xlink:href="#C0_0_40e4323064" y="105.763338"/>
    </g>
    <g clip-path="url(#p7f38273c70)">
     <use style="fill:#66c2a5;" x="121.380419" xlink:href="#C0_0_40e4323064" y="107.096243"/>
    </g>
    <g clip-path="url(#p7f38273c70)">
     <use style="fill:#66c2a5;" x="205.107614" xlink:href="#C0_0_40e4323064" y="95.020391"/>
    </g>
    <g clip-path="url(#p7f38273c70)">
     <use style="fill:#66c2a5;" x="177.33311" xlink:href="#C0_0_40e4323064" y="98.713185"/>
    </g>
    <g clip-path="url(#p7f38273c70)">
     <use style="fill:#66c2a5;" x="146.747849" xlink:href="#C0_0_40e4323064" y="110.660019"/>
    </g>
    <g clip-path="url(#p7f38273c70)">
     <use style="fill:#66c2a5;" x="167.051055" xlink:href="#C0_0_40e4323064" y="102.568701"/>
    </g>
    <g clip-path="url(#p7f38273c70)">
     <use style="fill:#66c2a5;" x="151.72006" xlink:href="#C0_0_40e4323064" y="102.59385"/>
    </g>
    <g clip-path="url(#p7f38273c70)">
     <use style="fill:#66c2a5;" x="153.967121" xlink:href="#C0_0_40e4323064" y="101.1396"/>
    </g>
    <g clip-path="url(#p7f38273c70)">
     <use style="fill:#66c2a5;" x="182.184021" xlink:href="#C0_0_40e4323064" y="112.617627"/>
    </g>
    <g clip-path="url(#p7f38273c70)">
     <use style="fill:#66c2a5;" x="146.333498" xlink:href="#C0_0_40e4323064" y="113.65057"/>
    </g>
    <g clip-path="url(#p7f38273c70)">
     <use style="fill:#66c2a5;" x="159.672417" xlink:href="#C0_0_40e4323064" y="113.185583"/>
    </g>
    <g clip-path="url(#p7f38273c70)">
     <use style="fill:#66c2a5;" x="138.142094" xlink:href="#C0_0_40e4323064" y="104.105192"/>
    </g>
    <g clip-path="url(#p7f38273c70)">
     <use style="fill:#66c2a5;" x="173.855976" xlink:href="#C0_0_40e4323064" y="106.691262"/>
    </g>
    <g clip-path="url(#p7f38273c70)">
     <use style="fill:#66c2a5;" x="191.308962" xlink:href="#C0_0_40e4323064" y="95.734578"/>
    </g>
    <g clip-path="url(#p7f38273c70)">
     <use style="fill:#66c2a5;" x="151.990988" xlink:href="#C0_0_40e4323064" y="108.056126"/>
    </g>
    <g clip-path="url(#p7f38273c70)">
     <use style="fill:#66c2a5;" x="191.832443" xlink:href="#C0_0_40e4323064" y="93.855349"/>
    </g>
    <g clip-path="url(#p7f38273c70)">
     <use style="fill:#66c2a5;" x="188.916048" xlink:href="#C0_0_40e4323064" y="97.750613"/>
    </g>
    <g clip-path="url(#p7f38273c70)">
     <use style="fill:#66c2a5;" x="189.888178" xlink:href="#C0_0_40e4323064" y="107.74051"/>
    </g>
    <g clip-path="url(#p7f38273c70)">
     <use style="fill:#66c2a5;" x="163.337831" xlink:href="#C0_0_40e4323064" y="97.509617"/>
    </g>
    <g clip-path="url(#p7f38273c70)">
     <use style="fill:#66c2a5;" x="179.67283" xlink:href="#C0_0_40e4323064" y="106.179385"/>
    </g>
    <g clip-path="url(#p7f38273c70)">
     <use style="fill:#66c2a5;" x="182.111125" xlink:href="#C0_0_40e4323064" y="102.177908"/>
    </g>
    <g clip-path="url(#p7f38273c70)">
     <use style="fill:#66c2a5;" x="159.790635" xlink:href="#C0_0_40e4323064" y="99.675132"/>
    </g>
    <g clip-path="url(#p7f38273c70)">
     <use style="fill:#66c2a5;" x="185.888095" xlink:href="#C0_0_40e4323064" y="113.108091"/>
    </g>
    <g clip-path="url(#p7f38273c70)">
     <use style="fill:#66c2a5;" x="144.839381" xlink:href="#C0_0_40e4323064" y="98.903826"/>
    </g>
    <g clip-path="url(#p7f38273c70)">
     <use style="fill:#66c2a5;" x="239.715024" xlink:href="#C0_0_40e4323064" y="94.849596"/>
    </g>
    <g clip-path="url(#p7f38273c70)">
     <use style="fill:#66c2a5;" x="206.111621" xlink:href="#C0_0_40e4323064" y="102.985748"/>
    </g>
    <g clip-path="url(#p7f38273c70)">
     <use style="fill:#66c2a5;" x="181.362108" xlink:href="#C0_0_40e4323064" y="104.314011"/>
    </g>
    <g clip-path="url(#p7f38273c70)">
     <use style="fill:#66c2a5;" x="163.036405" xlink:href="#C0_0_40e4323064" y="115.419665"/>
    </g>
    <g clip-path="url(#p7f38273c70)">
     <use style="fill:#66c2a5;" x="214.334895" xlink:href="#C0_0_40e4323064" y="99.540823"/>
    </g>
    <g clip-path="url(#p7f38273c70)">
     <use style="fill:#66c2a5;" x="185.928684" xlink:href="#C0_0_40e4323064" y="108.147412"/>
    </g>
    <g clip-path="url(#p7f38273c70)">
     <use style="fill:#66c2a5;" x="303.452265" xlink:href="#C0_0_40e4323064" y="98.180883"/>
    </g>
    <g clip-path="url(#p7f38273c70)">
     <use style="fill:#66c2a5;" x="177.970353" xlink:href="#C0_0_40e4323064" y="113.374725"/>
    </g>
    <g clip-path="url(#p7f38273c70)">
     <use style="fill:#66c2a5;" x="185.887225" xlink:href="#C0_0_40e4323064" y="94.986114"/>
    </g>
    <g clip-path="url(#p7f38273c70)">
     <use style="fill:#66c2a5;" x="155.656398" xlink:href="#C0_0_40e4323064" y="95.08893"/>
    </g>
    <g clip-path="url(#p7f38273c70)">
     <use style="fill:#66c2a5;" x="178.538592" xlink:href="#C0_0_40e4323064" y="104.088494"/>
    </g>
    <g clip-path="url(#p7f38273c70)">
     <use style="fill:#66c2a5;" x="364.705577" xlink:href="#C0_0_40e4323064" y="96.264272"/>
    </g>
    <g clip-path="url(#p7f38273c70)">
     <use style="fill:#66c2a5;" x="187.19558" xlink:href="#C0_0_40e4323064" y="96.333167"/>
    </g>
    <g clip-path="url(#p7f38273c70)">
     <use style="fill:#66c2a5;" x="172.650275" xlink:href="#C0_0_40e4323064" y="106.261122"/>
    </g>
    <g clip-path="url(#p7f38273c70)">
     <use style="fill:#66c2a5;" x="161.10671" xlink:href="#C0_0_40e4323064" y="105.327745"/>
    </g>
    <g clip-path="url(#p7f38273c70)">
     <use style="fill:#66c2a5;" x="166.621389" xlink:href="#C0_0_40e4323064" y="104.785885"/>
    </g>
    <g clip-path="url(#p7f38273c70)">
     <use style="fill:#66c2a5;" x="187.26107" xlink:href="#C0_0_40e4323064" y="112.999443"/>
    </g>
    <g clip-path="url(#p7f38273c70)">
     <use style="fill:#66c2a5;" x="190.540458" xlink:href="#C0_0_40e4323064" y="104.836731"/>
    </g>
    <g clip-path="url(#p7f38273c70)">
     <use style="fill:#66c2a5;" x="173.909515" xlink:href="#C0_0_40e4323064" y="104.430172"/>
    </g>
    <g clip-path="url(#p7f38273c70)">
     <use style="fill:#66c2a5;" x="147.560614" xlink:href="#C0_0_40e4323064" y="115.222867"/>
    </g>
    <g clip-path="url(#p7f38273c70)">
     <use style="fill:#66c2a5;" x="146.620356" xlink:href="#C0_0_40e4323064" y="101.965884"/>
    </g>
    <g clip-path="url(#p7f38273c70)">
     <use style="fill:#66c2a5;" x="204.884504" xlink:href="#C0_0_40e4323064" y="96.453382"/>
    </g>
    <g clip-path="url(#p7f38273c70)">
     <use style="fill:#66c2a5;" x="189.043539" xlink:href="#C0_0_40e4323064" y="103.000696"/>
    </g>
    <g clip-path="url(#p7f38273c70)">
     <use style="fill:#66c2a5;" x="153.520896" xlink:href="#C0_0_40e4323064" y="110.15629"/>
    </g>
    <g clip-path="url(#p7f38273c70)">
     <use style="fill:#66c2a5;" x="160.153317" xlink:href="#C0_0_40e4323064" y="96.368599"/>
    </g>
    <g clip-path="url(#p7f38273c70)">
     <use style="fill:#66c2a5;" x="161.825973" xlink:href="#C0_0_40e4323064" y="97.552848"/>
    </g>
    <g clip-path="url(#p7f38273c70)">
     <use style="fill:#66c2a5;" x="155.725436" xlink:href="#C0_0_40e4323064" y="100.305088"/>
    </g>
    <g clip-path="url(#p7f38273c70)">
     <use style="fill:#66c2a5;" x="188.501695" xlink:href="#C0_0_40e4323064" y="110.621628"/>
    </g>
    <g clip-path="url(#p7f38273c70)">
     <use style="fill:#66c2a5;" x="155.41735" xlink:href="#C0_0_40e4323064" y="106.525379"/>
    </g>
    <g clip-path="url(#p7f38273c70)">
     <use style="fill:#66c2a5;" x="151.54476" xlink:href="#C0_0_40e4323064" y="98.929299"/>
    </g>
    <g clip-path="url(#p7f38273c70)">
     <use style="fill:#66c2a5;" x="169.82402" xlink:href="#C0_0_40e4323064" y="113.057044"/>
    </g>
    <g clip-path="url(#p7f38273c70)">
     <use style="fill:#66c2a5;" x="190.939992" xlink:href="#C0_0_40e4323064" y="100.340643"/>
    </g>
    <g clip-path="url(#p7f38273c70)">
     <use style="fill:#66c2a5;" x="166.397655" xlink:href="#C0_0_40e4323064" y="100.754843"/>
    </g>
    <g clip-path="url(#p7f38273c70)">
     <use style="fill:#66c2a5;" x="180.899949" xlink:href="#C0_0_40e4323064" y="109.099201"/>
    </g>
   </g>
   <g id="PathCollection_2">
    <defs>
     <path d="M 0 2 
C 0.530406 2 1.03916 1.789267 1.414214 1.414214 
C 1.789267 1.03916 2 0.530406 2 -0 
C 2 -0.530406 1.789267 -1.03916 1.414214 -1.414214 
C 1.03916 -1.789267 0.530406 -2 0 -2 
C -0.530406 -2 -1.03916 -1.789267 -1.414214 -1.414214 
C -1.789267 -1.03916 -2 -0.530406 -2 0 
C -2 0.530406 -1.789267 1.03916 -1.414214 1.414214 
C -1.03916 1.789267 -0.530406 2 0 2 
z
" id="C1_0_74ebfc07d5"/>
    </defs>
    <g clip-path="url(#p7f38273c70)">
     <use style="fill:#fc8d62;" x="152.293779" xlink:href="#C1_0_74ebfc07d5" y="223.736061"/>
    </g>
    <g clip-path="url(#p7f38273c70)">
     <use style="fill:#fc8d62;" x="223.386876" xlink:href="#C1_0_74ebfc07d5" y="214.96822"/>
    </g>
    <g clip-path="url(#p7f38273c70)">
     <use style="fill:#fc8d62;" x="212.998898" xlink:href="#C1_0_74ebfc07d5" y="220.868113"/>
    </g>
    <g clip-path="url(#p7f38273c70)">
     <use style="fill:#fc8d62;" x="155.672335" xlink:href="#C1_0_74ebfc07d5" y="223.326338"/>
    </g>
    <g clip-path="url(#p7f38273c70)">
     <use style="fill:#fc8d62;" x="118.077939" xlink:href="#C1_0_74ebfc07d5" y="213.920196"/>
    </g>
    <g clip-path="url(#p7f38273c70)">
     <use style="fill:#fc8d62;" x="172.533239" xlink:href="#C1_0_74ebfc07d5" y="225.588032"/>
    </g>
    <g clip-path="url(#p7f38273c70)">
     <use style="fill:#fc8d62;" x="257.044936" xlink:href="#C1_0_74ebfc07d5" y="227.101043"/>
    </g>
    <g clip-path="url(#p7f38273c70)">
     <use style="fill:#fc8d62;" x="242.466573" xlink:href="#C1_0_74ebfc07d5" y="213.012604"/>
    </g>
    <g clip-path="url(#p7f38273c70)">
     <use style="fill:#fc8d62;" x="167.321977" xlink:href="#C1_0_74ebfc07d5" y="210.325945"/>
    </g>
    <g clip-path="url(#p7f38273c70)">
     <use style="fill:#fc8d62;" x="190.732816" xlink:href="#C1_0_74ebfc07d5" y="219.210955"/>
    </g>
    <g clip-path="url(#p7f38273c70)">
     <use style="fill:#fc8d62;" x="166.971372" xlink:href="#C1_0_74ebfc07d5" y="227.768339"/>
    </g>
    <g clip-path="url(#p7f38273c70)">
     <use style="fill:#fc8d62;" x="198.462061" xlink:href="#C1_0_74ebfc07d5" y="213.212041"/>
    </g>
    <g clip-path="url(#p7f38273c70)">
     <use style="fill:#fc8d62;" x="224.470562" xlink:href="#C1_0_74ebfc07d5" y="224.539473"/>
    </g>
    <g clip-path="url(#p7f38273c70)">
     <use style="fill:#fc8d62;" x="156.564784" xlink:href="#C1_0_74ebfc07d5" y="219.670238"/>
    </g>
    <g clip-path="url(#p7f38273c70)">
     <use style="fill:#fc8d62;" x="142.699959" xlink:href="#C1_0_74ebfc07d5" y="214.197264"/>
    </g>
    <g clip-path="url(#p7f38273c70)">
     <use style="fill:#fc8d62;" x="140.691947" xlink:href="#C1_0_74ebfc07d5" y="208.62045"/>
    </g>
    <g clip-path="url(#p7f38273c70)">
     <use style="fill:#fc8d62;" x="152.867496" xlink:href="#C1_0_74ebfc07d5" y="230.356757"/>
    </g>
    <g clip-path="url(#p7f38273c70)">
     <use style="fill:#fc8d62;" x="138.875177" xlink:href="#C1_0_74ebfc07d5" y="226.139156"/>
    </g>
    <g clip-path="url(#p7f38273c70)">
     <use style="fill:#fc8d62;" x="370.848072" xlink:href="#C1_0_74ebfc07d5" y="221.117162"/>
    </g>
    <g clip-path="url(#p7f38273c70)">
     <use style="fill:#fc8d62;" x="176.278334" xlink:href="#C1_0_74ebfc07d5" y="208.619203"/>
    </g>
    <g clip-path="url(#p7f38273c70)">
     <use style="fill:#fc8d62;" x="182.589223" xlink:href="#C1_0_74ebfc07d5" y="229.399793"/>
    </g>
    <g clip-path="url(#p7f38273c70)">
     <use style="fill:#fc8d62;" x="141.887193" xlink:href="#C1_0_74ebfc07d5" y="218.824277"/>
    </g>
    <g clip-path="url(#p7f38273c70)">
     <use style="fill:#fc8d62;" x="148.102456" xlink:href="#C1_0_74ebfc07d5" y="221.760356"/>
    </g>
    <g clip-path="url(#p7f38273c70)">
     <use style="fill:#fc8d62;" x="139.863245" xlink:href="#C1_0_74ebfc07d5" y="208.621191"/>
    </g>
    <g clip-path="url(#p7f38273c70)">
     <use style="fill:#fc8d62;" x="211.147579" xlink:href="#C1_0_74ebfc07d5" y="216.590915"/>
    </g>
    <g clip-path="url(#p7f38273c70)">
     <use style="fill:#fc8d62;" x="159.656481" xlink:href="#C1_0_74ebfc07d5" y="213.875037"/>
    </g>
    <g clip-path="url(#p7f38273c70)">
     <use style="fill:#fc8d62;" x="172.517301" xlink:href="#C1_0_74ebfc07d5" y="221.629032"/>
    </g>
    <g clip-path="url(#p7f38273c70)">
     <use style="fill:#fc8d62;" x="167.68852" xlink:href="#C1_0_74ebfc07d5" y="220.837861"/>
    </g>
    <g clip-path="url(#p7f38273c70)">
     <use style="fill:#fc8d62;" x="151.002916" xlink:href="#C1_0_74ebfc07d5" y="224.368964"/>
    </g>
    <g clip-path="url(#p7f38273c70)">
     <use style="fill:#fc8d62;" x="147.39328" xlink:href="#C1_0_74ebfc07d5" y="231.197716"/>
    </g>
    <g clip-path="url(#p7f38273c70)">
     <use style="fill:#fc8d62;" x="202.031855" xlink:href="#C1_0_74ebfc07d5" y="226.672482"/>
    </g>
    <g clip-path="url(#p7f38273c70)">
     <use style="fill:#fc8d62;" x="203.976117" xlink:href="#C1_0_74ebfc07d5" y="228.282338"/>
    </g>
    <g clip-path="url(#p7f38273c70)">
     <use style="fill:#fc8d62;" x="152.46908" xlink:href="#C1_0_74ebfc07d5" y="231.086807"/>
    </g>
   </g>
   <g id="PathCollection_3">
    <defs>
     <path d="M 0 2 
C 0.530406 2 1.03916 1.789267 1.414214 1.414214 
C 1.789267 1.03916 2 0.530406 2 -0 
C 2 -0.530406 1.789267 -1.03916 1.414214 -1.414214 
C 1.03916 -1.789267 0.530406 -2 0 -2 
C -0.530406 -2 -1.03916 -1.789267 -1.414214 -1.414214 
C -1.789267 -1.03916 -2 -0.530406 -2 0 
C -2 0.530406 -1.789267 1.03916 -1.414214 1.414214 
C -1.03916 1.789267 -0.530406 2 0 2 
z
" id="C2_0_a3e3de8435"/>
    </defs>
    <g clip-path="url(#p7f38273c70)">
     <use style="fill:#8da0cb;" x="140.283013" xlink:href="#C2_0_a3e3de8435" y="339.91098"/>
    </g>
    <g clip-path="url(#p7f38273c70)">
     <use style="fill:#8da0cb;" x="134.747602" xlink:href="#C2_0_a3e3de8435" y="326.689254"/>
    </g>
    <g clip-path="url(#p7f38273c70)">
     <use style="fill:#8da0cb;" x="138.881775" xlink:href="#C2_0_a3e3de8435" y="338.660438"/>
    </g>
    <g clip-path="url(#p7f38273c70)">
     <use style="fill:#8da0cb;" x="127.35303" xlink:href="#C2_0_a3e3de8435" y="326.331211"/>
    </g>
    <g clip-path="url(#p7f38273c70)">
     <use style="fill:#8da0cb;" x="171.353932" xlink:href="#C2_0_a3e3de8435" y="332.065032"/>
    </g>
    <g clip-path="url(#p7f38273c70)">
     <use style="fill:#8da0cb;" x="165.950496" xlink:href="#C2_0_a3e3de8435" y="326.726067"/>
    </g>
    <g clip-path="url(#p7f38273c70)">
     <use style="fill:#8da0cb;" x="137.568377" xlink:href="#C2_0_a3e3de8435" y="343.723843"/>
    </g>
    <g clip-path="url(#p7f38273c70)">
     <use style="fill:#8da0cb;" x="250.064715" xlink:href="#C2_0_a3e3de8435" y="326.646069"/>
    </g>
    <g clip-path="url(#p7f38273c70)">
     <use style="fill:#8da0cb;" x="177.7445" xlink:href="#C2_0_a3e3de8435" y="336.329611"/>
    </g>
    <g clip-path="url(#p7f38273c70)">
     <use style="fill:#8da0cb;" x="146.062574" xlink:href="#C2_0_a3e3de8435" y="331.703128"/>
    </g>
    <g clip-path="url(#p7f38273c70)">
     <use style="fill:#8da0cb;" x="224.741486" xlink:href="#C2_0_a3e3de8435" y="329.414541"/>
    </g>
    <g clip-path="url(#p7f38273c70)">
     <use style="fill:#8da0cb;" x="179.425626" xlink:href="#C2_0_a3e3de8435" y="343.316548"/>
    </g>
    <g clip-path="url(#p7f38273c70)">
     <use style="fill:#8da0cb;" x="192.933933" xlink:href="#C2_0_a3e3de8435" y="337.09148"/>
    </g>
    <g clip-path="url(#p7f38273c70)">
     <use style="fill:#8da0cb;" x="180.682684" xlink:href="#C2_0_a3e3de8435" y="325.726673"/>
    </g>
    <g clip-path="url(#p7f38273c70)">
     <use style="fill:#8da0cb;" x="121.83897" xlink:href="#C2_0_a3e3de8435" y="323.324029"/>
    </g>
    <g clip-path="url(#p7f38273c70)">
     <use style="fill:#8da0cb;" x="185.378127" xlink:href="#C2_0_a3e3de8435" y="341.199686"/>
    </g>
    <g clip-path="url(#p7f38273c70)">
     <use style="fill:#8da0cb;" x="160.69236" xlink:href="#C2_0_a3e3de8435" y="331.149347"/>
    </g>
    <g clip-path="url(#p7f38273c70)">
     <use style="fill:#8da0cb;" x="268.853944" xlink:href="#C2_0_a3e3de8435" y="328.2155"/>
    </g>
    <g clip-path="url(#p7f38273c70)">
     <use style="fill:#8da0cb;" x="136.675929" xlink:href="#C2_0_a3e3de8435" y="327.118403"/>
    </g>
    <g clip-path="url(#p7f38273c70)">
     <use style="fill:#8da0cb;" x="193.242766" xlink:href="#C2_0_a3e3de8435" y="345.732937"/>
    </g>
    <g clip-path="url(#p7f38273c70)">
     <use style="fill:#8da0cb;" x="168.469411" xlink:href="#C2_0_a3e3de8435" y="338.338385"/>
    </g>
    <g clip-path="url(#p7f38273c70)">
     <use style="fill:#8da0cb;" x="130.030374" xlink:href="#C2_0_a3e3de8435" y="323.420608"/>
    </g>
    <g clip-path="url(#p7f38273c70)">
     <use style="fill:#8da0cb;" x="143.496786" xlink:href="#C2_0_a3e3de8435" y="324.554086"/>
    </g>
    <g clip-path="url(#p7f38273c70)">
     <use style="fill:#8da0cb;" x="130.922822" xlink:href="#C2_0_a3e3de8435" y="326.348246"/>
    </g>
    <g clip-path="url(#p7f38273c70)">
     <use style="fill:#8da0cb;" x="119.719407" xlink:href="#C2_0_a3e3de8435" y="328.218112"/>
    </g>
    <g clip-path="url(#p7f38273c70)">
     <use style="fill:#8da0cb;" x="138.699875" xlink:href="#C2_0_a3e3de8435" y="331.28319"/>
    </g>
    <g clip-path="url(#p7f38273c70)">
     <use style="fill:#8da0cb;" x="114.571889" xlink:href="#C2_0_a3e3de8435" y="325.125248"/>
    </g>
    <g clip-path="url(#p7f38273c70)">
     <use style="fill:#8da0cb;" x="132.883022" xlink:href="#C2_0_a3e3de8435" y="332.245805"/>
    </g>
   </g>
   <g id="PolyCollection_1">
    <defs>
     <path d="M 107.247154 -357.295692 
L 107.247154 -357.66139 
L 109.990504 -358.035204 
L 112.733855 -358.587158 
L 115.477205 -359.253832 
L 118.220556 -359.904587 
L 120.963906 -360.430299 
L 123.707256 -360.863808 
L 126.450607 -361.427576 
L 129.193957 -362.451558 
L 131.937307 -364.229212 
L 134.680658 -366.936313 
L 137.424008 -370.644755 
L 140.167359 -375.338765 
L 142.910709 -380.85972 
L 145.654059 -386.844481 
L 148.39741 -392.772141 
L 151.14076 -398.109119 
L 153.884111 -402.420171 
L 156.627461 -405.375431 
L 159.370811 -406.74847 
L 162.114162 -406.530961 
L 164.857512 -405.116464 
L 167.600863 -403.338599 
L 170.344213 -402.222067 
L 173.087563 -402.56018 
L 175.830914 -404.571861 
L 178.574264 -407.772814 
L 181.317614 -411.026882 
L 184.060965 -412.770008 
L 186.804315 -411.512351 
L 189.547666 -406.586999 
L 192.291016 -398.720157 
L 195.034366 -389.854018 
L 197.777717 -382.146098 
L 200.521067 -376.813721 
L 203.264418 -373.68278 
L 206.007768 -371.687713 
L 208.751118 -369.781688 
L 211.494469 -367.518145 
L 214.237819 -365.030434 
L 216.981169 -362.680018 
L 219.72452 -360.762037 
L 222.46787 -359.416386 
L 225.211221 -358.664893 
L 227.954571 -358.459394 
L 230.697921 -358.693036 
L 233.441272 -359.187354 
L 236.184622 -359.698605 
L 238.927973 -359.981177 
L 241.671323 -359.891575 
L 244.414673 -359.456872 
L 247.158024 -358.843765 
L 249.901374 -358.249532 
L 252.644725 -357.801187 
L 255.388075 -357.526106 
L 258.131425 -357.386025 
L 260.874776 -357.326152 
L 263.618126 -357.304526 
L 266.361476 -357.297898 
L 269.104827 -357.296184 
L 271.848177 -357.295901 
L 274.591528 -357.296349 
L 277.334878 -357.298608 
L 280.078228 -357.30704 
L 282.821579 -357.3337 
L 285.564929 -357.40518 
L 288.30828 -357.566964 
L 291.05163 -357.873776 
L 293.79498 -358.355248 
L 296.538331 -358.966032 
L 299.281681 -359.560515 
L 302.025032 -359.936955 
L 304.768382 -359.945028 
L 307.511732 -359.581348 
L 310.255083 -358.991718 
L 312.998433 -358.378129 
L 315.741783 -357.889875 
L 318.485134 -357.576227 
L 321.228484 -357.409612 
L 323.971835 -357.335481 
L 326.715185 -357.307646 
L 329.458535 -357.298791 
L 332.201886 -357.296447 
L 334.945236 -357.296202 
L 337.688587 -357.297519 
L 340.431937 -357.303083 
L 343.175287 -357.321691 
L 345.918638 -357.374379 
L 348.661988 -357.500527 
L 351.405338 -357.754312 
L 354.148689 -358.178872 
L 356.892039 -358.758521 
L 359.63539 -359.379635 
L 362.37874 -359.849136 
L 365.12209 -359.986699 
L 367.865441 -359.734916 
L 370.608791 -359.197368 
L 373.352142 -358.570866 
L 376.095492 -358.031138 
L 378.838842 -357.660513 
L 378.838842 -357.295692 
L 378.838842 -357.295692 
L 376.095492 -357.295692 
L 373.352142 -357.295692 
L 370.608791 -357.295692 
L 367.865441 -357.295692 
L 365.12209 -357.295692 
L 362.37874 -357.295692 
L 359.63539 -357.295692 
L 356.892039 -357.295692 
L 354.148689 -357.295692 
L 351.405338 -357.295692 
L 348.661988 -357.295692 
L 345.918638 -357.295692 
L 343.175287 -357.295692 
L 340.431937 -357.295692 
L 337.688587 -357.295692 
L 334.945236 -357.295692 
L 332.201886 -357.295692 
L 329.458535 -357.295692 
L 326.715185 -357.295692 
L 323.971835 -357.295692 
L 321.228484 -357.295692 
L 318.485134 -357.295692 
L 315.741783 -357.295692 
L 312.998433 -357.295692 
L 310.255083 -357.295692 
L 307.511732 -357.295692 
L 304.768382 -357.295692 
L 302.025032 -357.295692 
L 299.281681 -357.295692 
L 296.538331 -357.295692 
L 293.79498 -357.295692 
L 291.05163 -357.295692 
L 288.30828 -357.295692 
L 285.564929 -357.295692 
L 282.821579 -357.295692 
L 280.078228 -357.295692 
L 277.334878 -357.295692 
L 274.591528 -357.295692 
L 271.848177 -357.295692 
L 269.104827 -357.295692 
L 266.361476 -357.295692 
L 263.618126 -357.295692 
L 260.874776 -357.295692 
L 258.131425 -357.295692 
L 255.388075 -357.295692 
L 252.644725 -357.295692 
L 249.901374 -357.295692 
L 247.158024 -357.295692 
L 244.414673 -357.295692 
L 241.671323 -357.295692 
L 238.927973 -357.295692 
L 236.184622 -357.295692 
L 233.441272 -357.295692 
L 230.697921 -357.295692 
L 227.954571 -357.295692 
L 225.211221 -357.295692 
L 222.46787 -357.295692 
L 219.72452 -357.295692 
L 216.981169 -357.295692 
L 214.237819 -357.295692 
L 211.494469 -357.295692 
L 208.751118 -357.295692 
L 206.007768 -357.295692 
L 203.264418 -357.295692 
L 200.521067 -357.295692 
L 197.777717 -357.295692 
L 195.034366 -357.295692 
L 192.291016 -357.295692 
L 189.547666 -357.295692 
L 186.804315 -357.295692 
L 184.060965 -357.295692 
L 181.317614 -357.295692 
L 178.574264 -357.295692 
L 175.830914 -357.295692 
L 173.087563 -357.295692 
L 170.344213 -357.295692 
L 167.600863 -357.295692 
L 164.857512 -357.295692 
L 162.114162 -357.295692 
L 159.370811 -357.295692 
L 156.627461 -357.295692 
L 153.884111 -357.295692 
L 151.14076 -357.295692 
L 148.39741 -357.295692 
L 145.654059 -357.295692 
L 142.910709 -357.295692 
L 140.167359 -357.295692 
L 137.424008 -357.295692 
L 134.680658 -357.295692 
L 131.937307 -357.295692 
L 129.193957 -357.295692 
L 126.450607 -357.295692 
L 123.707256 -357.295692 
L 120.963906 -357.295692 
L 118.220556 -357.295692 
L 115.477205 -357.295692 
L 112.733855 -357.295692 
L 109.990504 -357.295692 
L 107.247154 -357.295692 
z
" id="m1879710401" style="stroke:#595959;"/>
    </defs>
    <g clip-path="url(#p7f38273c70)">
     <use style="fill:#72b6a1;stroke:#595959;" x="0" xlink:href="#m1879710401" y="439.2"/>
    </g>
   </g>
   <g id="PolyCollection_2">
    <defs>
     <path d="M 99.028739 -242.394741 
L 99.028739 -242.929473 
L 101.966805 -243.342617 
L 104.904871 -243.927407 
L 107.842937 -244.662967 
L 110.781003 -245.487853 
L 113.719069 -246.332227 
L 116.657135 -247.183195 
L 119.595201 -248.156196 
L 122.533267 -249.525151 
L 125.471333 -251.670699 
L 128.409399 -254.944541 
L 131.347465 -259.499909 
L 134.285531 -265.169406 
L 137.223597 -271.455886 
L 140.161663 -277.64532 
L 143.099729 -282.990518 
L 146.037795 -286.891697 
L 148.975861 -289.02138 
L 151.913927 -289.375442 
L 154.851993 -288.247546 
L 157.790059 -286.125385 
L 160.728125 -283.524576 
L 163.666191 -280.81679 
L 166.604257 -278.135414 
L 169.542323 -275.412472 
L 172.480389 -272.52229 
L 175.418455 -269.439852 
L 178.356521 -266.319314 
L 181.294587 -263.458254 
L 184.232653 -261.184082 
L 187.170719 -259.731109 
L 190.108785 -259.162069 
L 193.046851 -259.353155 
L 195.984917 -260.03503 
L 198.922983 -260.870542 
L 201.861049 -261.545007 
L 204.799115 -261.841489 
L 207.737181 -261.676098 
L 210.675247 -261.082288 
L 213.613313 -260.155728 
L 216.551379 -258.991012 
L 219.489445 -257.645802 
L 222.427511 -256.150931 
L 225.365577 -254.553226 
L 228.303643 -252.952004 
L 231.241709 -251.492916 
L 234.179774 -250.316408 
L 237.11784 -249.496106 
L 240.055906 -249.011021 
L 242.993972 -248.766695 
L 245.932038 -248.642007 
L 248.870104 -248.525812 
L 251.80817 -248.328249 
L 254.746236 -247.980037 
L 257.684302 -247.439738 
L 260.622368 -246.711056 
L 263.560434 -245.852887 
L 266.4985 -244.965639 
L 269.436566 -244.156324 
L 272.374632 -243.501994 
L 275.312698 -243.031153 
L 278.250764 -242.728533 
L 281.18883 -242.554285 
L 284.126896 -242.464177 
L 287.064962 -242.422242 
L 290.003028 -242.40465 
L 292.941094 -242.397989 
L 295.87916 -242.395709 
L 298.817226 -242.395003 
L 301.755292 -242.394806 
L 304.693358 -242.394755 
L 307.631424 -242.394744 
L 310.56949 -242.394742 
L 313.507556 -242.394741 
L 316.445622 -242.394741 
L 319.383688 -242.394743 
L 322.321754 -242.39475 
L 325.25982 -242.394783 
L 328.197886 -242.394915 
L 331.135952 -242.395402 
L 334.074018 -242.397024 
L 337.012084 -242.401902 
L 339.95015 -242.415171 
L 342.888216 -242.44773 
L 345.826282 -242.519707 
L 348.764348 -242.662703 
L 351.702414 -242.917169 
L 354.64048 -243.320836 
L 357.578546 -243.887397 
L 360.516612 -244.582192 
L 363.454678 -245.309429 
L 366.392744 -245.925927 
L 369.33081 -246.284513 
L 372.268876 -246.290593 
L 375.206942 -245.942513 
L 378.145008 -245.332282 
L 381.083074 -244.606241 
L 384.02114 -243.908529 
L 386.959206 -243.336886 
L 389.897272 -242.927886 
L 389.897272 -242.394741 
L 389.897272 -242.394741 
L 386.959206 -242.394741 
L 384.02114 -242.394741 
L 381.083074 -242.394741 
L 378.145008 -242.394741 
L 375.206942 -242.394741 
L 372.268876 -242.394741 
L 369.33081 -242.394741 
L 366.392744 -242.394741 
L 363.454678 -242.394741 
L 360.516612 -242.394741 
L 357.578546 -242.394741 
L 354.64048 -242.394741 
L 351.702414 -242.394741 
L 348.764348 -242.394741 
L 345.826282 -242.394741 
L 342.888216 -242.394741 
L 339.95015 -242.394741 
L 337.012084 -242.394741 
L 334.074018 -242.394741 
L 331.135952 -242.394741 
L 328.197886 -242.394741 
L 325.25982 -242.394741 
L 322.321754 -242.394741 
L 319.383688 -242.394741 
L 316.445622 -242.394741 
L 313.507556 -242.394741 
L 310.56949 -242.394741 
L 307.631424 -242.394741 
L 304.693358 -242.394741 
L 301.755292 -242.394741 
L 298.817226 -242.394741 
L 295.87916 -242.394741 
L 292.941094 -242.394741 
L 290.003028 -242.394741 
L 287.064962 -242.394741 
L 284.126896 -242.394741 
L 281.18883 -242.394741 
L 278.250764 -242.394741 
L 275.312698 -242.394741 
L 272.374632 -242.394741 
L 269.436566 -242.394741 
L 266.4985 -242.394741 
L 263.560434 -242.394741 
L 260.622368 -242.394741 
L 257.684302 -242.394741 
L 254.746236 -242.394741 
L 251.80817 -242.394741 
L 248.870104 -242.394741 
L 245.932038 -242.394741 
L 242.993972 -242.394741 
L 240.055906 -242.394741 
L 237.11784 -242.394741 
L 234.179774 -242.394741 
L 231.241709 -242.394741 
L 228.303643 -242.394741 
L 225.365577 -242.394741 
L 222.427511 -242.394741 
L 219.489445 -242.394741 
L 216.551379 -242.394741 
L 213.613313 -242.394741 
L 210.675247 -242.394741 
L 207.737181 -242.394741 
L 204.799115 -242.394741 
L 201.861049 -242.394741 
L 198.922983 -242.394741 
L 195.984917 -242.394741 
L 193.046851 -242.394741 
L 190.108785 -242.394741 
L 187.170719 -242.394741 
L 184.232653 -242.394741 
L 181.294587 -242.394741 
L 178.356521 -242.394741 
L 175.418455 -242.394741 
L 172.480389 -242.394741 
L 169.542323 -242.394741 
L 166.604257 -242.394741 
L 163.666191 -242.394741 
L 160.728125 -242.394741 
L 157.790059 -242.394741 
L 154.851993 -242.394741 
L 151.913927 -242.394741 
L 148.975861 -242.394741 
L 146.037795 -242.394741 
L 143.099729 -242.394741 
L 140.161663 -242.394741 
L 137.223597 -242.394741 
L 134.285531 -242.394741 
L 131.347465 -242.394741 
L 128.409399 -242.394741 
L 125.471333 -242.394741 
L 122.533267 -242.394741 
L 119.595201 -242.394741 
L 116.657135 -242.394741 
L 113.719069 -242.394741 
L 110.781003 -242.394741 
L 107.842937 -242.394741 
L 104.904871 -242.394741 
L 101.966805 -242.394741 
L 99.028739 -242.394741 
z
" id="mc48725742a" style="stroke:#595959;"/>
    </defs>
    <g clip-path="url(#p7f38273c70)">
     <use style="fill:#e99675;stroke:#595959;" x="0" xlink:href="#mc48725742a" y="439.2"/>
    </g>
   </g>
   <g id="PolyCollection_3">
    <defs>
     <path d="M 99.093292 -127.49379 
L 99.093292 -128.518144 
L 100.964395 -129.192452 
L 102.835499 -130.175448 
L 104.706602 -131.530899 
L 106.577706 -133.301342 
L 108.448809 -135.496704 
L 110.319913 -138.089974 
L 112.191016 -141.023501 
L 114.06212 -144.226012 
L 115.933223 -147.635656 
L 117.804327 -151.220306 
L 119.67543 -154.985135 
L 121.546534 -158.960429 
L 123.417638 -163.169409 
L 125.288741 -167.584082 
L 127.159845 -172.083678 
L 129.030948 -176.432024 
L 130.902052 -180.286193 
L 132.773155 -183.239986 
L 134.644259 -184.895164 
L 136.515362 -184.944266 
L 138.386466 -183.24427 
L 140.257569 -179.861855 
L 142.128673 -175.078129 
L 143.999776 -169.351334 
L 145.87088 -163.246638 
L 147.741983 -157.349423 
L 149.613087 -152.180647 
L 151.48419 -148.129976 
L 153.355294 -145.416446 
L 155.226397 -144.079704 
L 157.097501 -143.999129 
L 158.968605 -144.934204 
L 160.839708 -146.57723 
L 162.710812 -148.608506 
L 164.581915 -150.744202 
L 166.453019 -152.768496 
L 168.324122 -154.544719 
L 170.195226 -156.005429 
L 172.066329 -157.127625 
L 173.937433 -157.90437 
L 175.808536 -158.324914 
L 177.67964 -158.37062 
L 179.550743 -158.025191 
L 181.421847 -157.289708 
L 183.29295 -156.190633 
L 185.164054 -154.774143 
L 187.035157 -153.089757 
L 188.906261 -151.17405 
L 190.777365 -149.045939 
L 192.648468 -146.718028 
L 194.519572 -144.218285 
L 196.390675 -141.609561 
L 198.261779 -138.995224 
L 200.132882 -136.506813 
L 202.003986 -134.279098 
L 203.875089 -132.423628 
L 205.746193 -131.011131 
L 207.617296 -130.067223 
L 209.4884 -129.578815 
L 211.359503 -129.504372 
L 213.230607 -129.78146 
L 215.10171 -130.328963 
L 216.972814 -131.046306 
L 218.843917 -131.815146 
L 220.715021 -132.508547 
L 222.586124 -133.008931 
L 224.457228 -133.230966 
L 226.328332 -133.141815 
L 228.199435 -132.770924 
L 230.070539 -132.204959 
L 231.941642 -131.568906 
L 233.812746 -130.998898 
L 235.683849 -130.614105 
L 237.554953 -130.493873 
L 239.426056 -130.663708 
L 241.29716 -131.091491 
L 243.168263 -131.694253 
L 245.039367 -132.355217 
L 246.91047 -132.949417 
L 248.781574 -133.37345 
L 250.652677 -133.571967 
L 252.523781 -133.55235 
L 254.394884 -133.381261 
L 256.265988 -133.162373 
L 258.137092 -133.001507 
L 260.008195 -132.970566 
L 261.879299 -133.082735 
L 263.750402 -133.287672 
L 265.621506 -133.488258 
L 267.492609 -133.572703 
L 269.363713 -133.450421 
L 271.234816 -133.079211 
L 273.10592 -132.475256 
L 274.977023 -131.704354 
L 276.848127 -130.859703 
L 278.71923 -130.03554 
L 280.590334 -129.305722 
L 282.461437 -128.712693 
L 284.332541 -128.267404 
L 284.332541 -127.49379 
L 284.332541 -127.49379 
L 282.461437 -127.49379 
L 280.590334 -127.49379 
L 278.71923 -127.49379 
L 276.848127 -127.49379 
L 274.977023 -127.49379 
L 273.10592 -127.49379 
L 271.234816 -127.49379 
L 269.363713 -127.49379 
L 267.492609 -127.49379 
L 265.621506 -127.49379 
L 263.750402 -127.49379 
L 261.879299 -127.49379 
L 260.008195 -127.49379 
L 258.137092 -127.49379 
L 256.265988 -127.49379 
L 254.394884 -127.49379 
L 252.523781 -127.49379 
L 250.652677 -127.49379 
L 248.781574 -127.49379 
L 246.91047 -127.49379 
L 245.039367 -127.49379 
L 243.168263 -127.49379 
L 241.29716 -127.49379 
L 239.426056 -127.49379 
L 237.554953 -127.49379 
L 235.683849 -127.49379 
L 233.812746 -127.49379 
L 231.941642 -127.49379 
L 230.070539 -127.49379 
L 228.199435 -127.49379 
L 226.328332 -127.49379 
L 224.457228 -127.49379 
L 222.586124 -127.49379 
L 220.715021 -127.49379 
L 218.843917 -127.49379 
L 216.972814 -127.49379 
L 215.10171 -127.49379 
L 213.230607 -127.49379 
L 211.359503 -127.49379 
L 209.4884 -127.49379 
L 207.617296 -127.49379 
L 205.746193 -127.49379 
L 203.875089 -127.49379 
L 202.003986 -127.49379 
L 200.132882 -127.49379 
L 198.261779 -127.49379 
L 196.390675 -127.49379 
L 194.519572 -127.49379 
L 192.648468 -127.49379 
L 190.777365 -127.49379 
L 188.906261 -127.49379 
L 187.035157 -127.49379 
L 185.164054 -127.49379 
L 183.29295 -127.49379 
L 181.421847 -127.49379 
L 179.550743 -127.49379 
L 177.67964 -127.49379 
L 175.808536 -127.49379 
L 173.937433 -127.49379 
L 172.066329 -127.49379 
L 170.195226 -127.49379 
L 168.324122 -127.49379 
L 166.453019 -127.49379 
L 164.581915 -127.49379 
L 162.710812 -127.49379 
L 160.839708 -127.49379 
L 158.968605 -127.49379 
L 157.097501 -127.49379 
L 155.226397 -127.49379 
L 153.355294 -127.49379 
L 151.48419 -127.49379 
L 149.613087 -127.49379 
L 147.741983 -127.49379 
L 145.87088 -127.49379 
L 143.999776 -127.49379 
L 142.128673 -127.49379 
L 140.257569 -127.49379 
L 138.386466 -127.49379 
L 136.515362 -127.49379 
L 134.644259 -127.49379 
L 132.773155 -127.49379 
L 130.902052 -127.49379 
L 129.030948 -127.49379 
L 127.159845 -127.49379 
L 125.288741 -127.49379 
L 123.417638 -127.49379 
L 121.546534 -127.49379 
L 119.67543 -127.49379 
L 117.804327 -127.49379 
L 115.933223 -127.49379 
L 114.06212 -127.49379 
L 112.191016 -127.49379 
L 110.319913 -127.49379 
L 108.448809 -127.49379 
L 106.577706 -127.49379 
L 104.706602 -127.49379 
L 102.835499 -127.49379 
L 100.964395 -127.49379 
L 99.093292 -127.49379 
z
" id="m65ffc28755" style="stroke:#595959;"/>
    </defs>
    <g clip-path="url(#p7f38273c70)">
     <use style="fill:#95a3c3;stroke:#595959;" x="0" xlink:href="#m65ffc28755" y="439.2"/>
    </g>
   </g>
   <g id="PathCollection_4">
    <defs>
     <path d="M 0 3.383948 
C 0.897434 3.383948 1.758231 3.027394 2.392813 2.392813 
C 3.027394 1.758231 3.383948 0.897434 3.383948 -0 
C 3.383948 -0.897434 3.027394 -1.758231 2.392813 -2.392813 
C 1.758231 -3.027394 0.897434 -3.383948 0 -3.383948 
C -0.897434 -3.383948 -1.758231 -3.027394 -2.392813 -2.392813 
C -3.027394 -1.758231 -3.383948 -0.897434 -3.383948 0 
C -3.383948 0.897434 -3.027394 1.758231 -2.392813 2.392813 
C -1.758231 3.027394 -0.897434 3.383948 0 3.383948 
z
" id="C3_0_5b04ded5cb"/>
    </defs>
    <g clip-path="url(#p7f38273c70)">
     <use style="fill:#ff0000;stroke:#ff0000;stroke-width:2.025;" x="177.778728" xlink:href="#C3_0_5b04ded5cb" y="104.884499"/>
    </g>
    <g clip-path="url(#p7f38273c70)">
     <use style="fill:#ff0000;stroke:#ff0000;stroke-width:2.025;" x="180.048011" xlink:href="#C3_0_5b04ded5cb" y="219.785449"/>
    </g>
    <g clip-path="url(#p7f38273c70)">
     <use style="fill:#ff0000;stroke:#ff0000;stroke-width:2.025;" x="161.188194" xlink:href="#C3_0_5b04ded5cb" y="334.6864"/>
    </g>
   </g>
   <g id="matplotlib.axis_1">
    <g id="xtick_1">
     <g id="line2d_1">
      <defs>
       <path d="M 0 0 
L 0 -5 
" id="m8f3d3929ae" style="stroke:#000000;"/>
      </defs>
      <g>
       <use style="stroke:#000000;" x="99.798677" xlink:href="#m8f3d3929ae" y="392.136875"/>
      </g>
     </g>
     <g id="text_1">
      <text style="font-family:DejaVu Sans;font-size:12px;font-stretch:normal;font-style:normal;font-weight:normal;text-anchor:middle;" transform="rotate(-0, 99.798677, 404.755)" x="99.798677" y="404.755">0</text>
     </g>
    </g>
    <g id="xtick_2">
     <g id="line2d_2">
      <g>
       <use style="stroke:#000000;" x="159.560861" xlink:href="#m8f3d3929ae" y="392.136875"/>
      </g>
     </g>
     <g id="text_2">
      <text style="font-family:DejaVu Sans;font-size:12px;font-stretch:normal;font-style:normal;font-weight:normal;text-anchor:middle;" transform="rotate(-0, 159.560861, 404.755)" x="159.560861" y="404.755">10</text>
     </g>
    </g>
    <g id="xtick_3">
     <g id="line2d_3">
      <g>
       <use style="stroke:#000000;" x="219.323046" xlink:href="#m8f3d3929ae" y="392.136875"/>
      </g>
     </g>
     <g id="text_3">
      <text style="font-family:DejaVu Sans;font-size:12px;font-stretch:normal;font-style:normal;font-weight:normal;text-anchor:middle;" transform="rotate(-0, 219.323046, 404.755)" x="219.323046" y="404.755">20</text>
     </g>
    </g>
    <g id="xtick_4">
     <g id="line2d_4">
      <g>
       <use style="stroke:#000000;" x="279.08523" xlink:href="#m8f3d3929ae" y="392.136875"/>
      </g>
     </g>
     <g id="text_4">
      <text style="font-family:DejaVu Sans;font-size:12px;font-stretch:normal;font-style:normal;font-weight:normal;text-anchor:middle;" transform="rotate(-0, 279.08523, 404.755)" x="279.08523" y="404.755">30</text>
     </g>
    </g>
    <g id="xtick_5">
     <g id="line2d_5">
      <g>
       <use style="stroke:#000000;" x="338.847414" xlink:href="#m8f3d3929ae" y="392.136875"/>
      </g>
     </g>
     <g id="text_5">
      <text style="font-family:DejaVu Sans;font-size:12px;font-stretch:normal;font-style:normal;font-weight:normal;text-anchor:middle;" transform="rotate(-0, 338.847414, 404.755)" x="338.847414" y="404.755">40</text>
     </g>
    </g>
    <g id="xtick_6">
     <g id="line2d_6">
      <g>
       <use style="stroke:#000000;" x="398.609599" xlink:href="#m8f3d3929ae" y="392.136875"/>
      </g>
     </g>
     <g id="text_6">
      <text style="font-family:DejaVu Sans;font-size:12px;font-stretch:normal;font-style:normal;font-weight:normal;text-anchor:middle;" transform="rotate(-0, 398.609599, 404.755)" x="398.609599" y="404.755">50</text>
     </g>
    </g>
    <g id="xtick_7">
     <g id="line2d_7">
      <g>
       <use style="stroke:#000000;" x="458.371783" xlink:href="#m8f3d3929ae" y="392.136875"/>
      </g>
     </g>
     <g id="text_7">
      <text style="font-family:DejaVu Sans;font-size:12px;font-stretch:normal;font-style:normal;font-weight:normal;text-anchor:middle;" transform="rotate(-0, 458.371783, 404.755)" x="458.371783" y="404.755">60</text>
     </g>
    </g>
    <g id="text_8">
     <text style="font-family:DejaVu Sans;font-size:14px;font-stretch:normal;font-style:normal;font-weight:normal;text-anchor:middle;" transform="rotate(-0, 290.642656, 421.888438)" x="290.642656" y="421.888438">MPT</text>
    </g>
   </g>
   <g id="matplotlib.axis_2">
    <g id="ytick_1">
     <g id="line2d_8">
      <defs>
       <path d="M 0 0 
L 5 0 
" id="mc00a0bfc35" style="stroke:#000000;"/>
      </defs>
      <g>
       <use style="stroke:#000000;" x="84.485313" xlink:href="#mc00a0bfc35" y="104.884499"/>
      </g>
     </g>
     <g id="text_9">
      <text style="font-family:DejaVu Sans;font-size:14px;font-stretch:normal;font-style:normal;font-weight:normal;text-anchor:end;" transform="rotate(-0, 80.985313, 110.203405)" x="80.985313" y="110.203405">Healthy</text>
     </g>
    </g>
    <g id="ytick_2">
     <g id="line2d_9">
      <g>
       <use style="stroke:#000000;" x="84.485313" xlink:href="#mc00a0bfc35" y="219.785449"/>
      </g>
     </g>
     <g id="text_10">
      <text style="font-family:DejaVu Sans;font-size:14px;font-stretch:normal;font-style:normal;font-weight:normal;text-anchor:end;" transform="rotate(-0, 80.985313, 225.104355)" x="80.985313" y="225.104355">Mild</text>
     </g>
    </g>
    <g id="ytick_3">
     <g id="line2d_10">
      <g>
       <use style="stroke:#000000;" x="84.485313" xlink:href="#mc00a0bfc35" y="334.6864"/>
      </g>
     </g>
     <g id="text_11">
      <text style="font-family:DejaVu Sans;font-size:14px;font-stretch:normal;font-style:normal;font-weight:normal;" transform="translate(14.4 333.230618)">Moderate</text>
      <text style="font-family:DejaVu Sans;font-size:14px;font-stretch:normal;font-style:normal;font-weight:normal;" transform="translate(29.071562 348.907556)">-severe</text>
     </g>
    </g>
   </g>
   <g id="line2d_11">
    <path clip-path="url(#p7f38273c70)" d="M 121.380419 100.575713 
L 121.380419 109.193284 
" style="fill:none;stroke:#595959;stroke-linecap:square;stroke-width:1.5;"/>
   </g>
   <g id="line2d_12">
    <path clip-path="url(#p7f38273c70)" d="M 214.334895 100.575713 
L 214.334895 109.193284 
" style="fill:none;stroke:#595959;stroke-linecap:square;stroke-width:1.5;"/>
   </g>
   <g id="line2d_13">
    <defs>
     <path d="M -0 3.535534 
L 2.12132 0 
L -0 -3.535534 
L -2.12132 -0 
z
" id="m739af94884" style="stroke:#595959;stroke-linejoin:miter;"/>
    </defs>
    <g clip-path="url(#p7f38273c70)">
     <use style="fill:#595959;stroke:#595959;stroke-linejoin:miter;" x="239.715024" xlink:href="#m739af94884" y="104.884499"/>
     <use style="fill:#595959;stroke:#595959;stroke-linejoin:miter;" x="303.452265" xlink:href="#m739af94884" y="104.884499"/>
     <use style="fill:#595959;stroke:#595959;stroke-linejoin:miter;" x="364.705577" xlink:href="#m739af94884" y="104.884499"/>
    </g>
   </g>
   <g id="line2d_14">
    <path clip-path="url(#p7f38273c70)" d="M 118.077939 215.476663 
L 118.077939 224.094235 
" style="fill:none;stroke:#595959;stroke-linecap:square;stroke-width:1.5;"/>
   </g>
   <g id="line2d_15">
    <path clip-path="url(#p7f38273c70)" d="M 257.044936 215.476663 
L 257.044936 224.094235 
" style="fill:none;stroke:#595959;stroke-linecap:square;stroke-width:1.5;"/>
   </g>
   <g id="line2d_16">
    <g clip-path="url(#p7f38273c70)">
     <use style="fill:#595959;stroke:#595959;stroke-linejoin:miter;" x="370.848072" xlink:href="#m739af94884" y="219.785449"/>
    </g>
   </g>
   <g id="line2d_17">
    <path clip-path="url(#p7f38273c70)" d="M 114.571889 330.377614 
L 114.571889 338.995185 
" style="fill:none;stroke:#595959;stroke-linecap:square;stroke-width:1.5;"/>
   </g>
   <g id="line2d_18">
    <path clip-path="url(#p7f38273c70)" d="M 224.741486 330.377614 
L 224.741486 338.995185 
" style="fill:none;stroke:#595959;stroke-linecap:square;stroke-width:1.5;"/>
   </g>
   <g id="line2d_19">
    <g clip-path="url(#p7f38273c70)">
     <use style="fill:#595959;stroke:#595959;stroke-linejoin:miter;" x="250.064715" xlink:href="#m739af94884" y="334.6864"/>
     <use style="fill:#595959;stroke:#595959;stroke-linejoin:miter;" x="268.853944" xlink:href="#m739af94884" y="334.6864"/>
    </g>
   </g>
   <g id="line2d_20">
    <path clip-path="url(#p7f38273c70)" d="M 177.778728 104.884499 
L 180.048011 219.785449 
L 161.188194 334.6864 
" style="fill:none;stroke:#ff0000;stroke-linecap:square;stroke-width:2.7;"/>
   </g>
   <g id="line2d_21">
    <path clip-path="url(#p7f38273c70)" d="M 170.710382 104.884499 
L 186.257596 104.884499 
" style="fill:none;"/>
   </g>
   <g id="line2d_22">
    <path clip-path="url(#p7f38273c70)" d="M 170.710382 104.884499 
L 170.710382 104.884499 
" style="fill:none;"/>
   </g>
   <g id="line2d_23">
    <path clip-path="url(#p7f38273c70)" d="M 186.257596 104.884499 
L 186.257596 104.884499 
" style="fill:none;"/>
   </g>
   <g id="line2d_24">
    <path clip-path="url(#p7f38273c70)" d="M 165.431541 219.785449 
L 196.783521 219.785449 
" style="fill:none;"/>
   </g>
   <g id="line2d_25">
    <path clip-path="url(#p7f38273c70)" d="M 165.431541 219.785449 
L 165.431541 219.785449 
" style="fill:none;"/>
   </g>
   <g id="line2d_26">
    <path clip-path="url(#p7f38273c70)" d="M 196.783521 219.785449 
L 196.783521 219.785449 
" style="fill:none;"/>
   </g>
   <g id="line2d_27">
    <path clip-path="url(#p7f38273c70)" d="M 148.114438 334.6864 
L 176.439699 334.6864 
" style="fill:none;"/>
   </g>
   <g id="line2d_28">
    <path clip-path="url(#p7f38273c70)" d="M 148.114438 334.6864 
L 148.114438 334.6864 
" style="fill:none;"/>
   </g>
   <g id="line2d_29">
    <path clip-path="url(#p7f38273c70)" d="M 176.439699 334.6864 
L 176.439699 334.6864 
" style="fill:none;"/>
   </g>
   <g id="line2d_30">
    <path clip-path="url(#p7f38273c70)" d="M 392.093241 104.884499 
L 398.492349 104.884499 
L 398.492349 219.785449 
L 392.093241 219.785449 
" style="fill:none;stroke:#333333;stroke-linecap:square;stroke-width:1.5;"/>
   </g>
   <g id="line2d_31">
    <path clip-path="url(#p7f38273c70)" d="M 423.677207 219.785449 
L 430.076315 219.785449 
L 430.076315 334.6864 
L 423.677207 334.6864 
" style="fill:none;stroke:#333333;stroke-linecap:square;stroke-width:1.5;"/>
   </g>
   <g id="line2d_32">
    <path clip-path="url(#p7f38273c70)" d="M 458.678549 104.884499 
L 465.077657 104.884499 
L 465.077657 334.6864 
L 458.678549 334.6864 
" style="fill:none;stroke:#333333;stroke-linecap:square;stroke-width:1.5;"/>
   </g>
   <g id="line2d_33">
    <path clip-path="url(#p7f38273c70)" d="M 173.909515 96.266927 
L 173.909515 113.50207 
" style="fill:none;stroke:#595959;stroke-linecap:square;stroke-width:1.5;"/>
   </g>
   <g id="line2d_34">
    <path clip-path="url(#p7f38273c70)" d="M 167.321977 211.167878 
L 167.321977 228.40302 
" style="fill:none;stroke:#595959;stroke-linecap:square;stroke-width:1.5;"/>
   </g>
   <g id="line2d_35">
    <path clip-path="url(#p7f38273c70)" d="M 144.77968 326.068828 
L 144.77968 343.303971 
" style="fill:none;stroke:#595959;stroke-linecap:square;stroke-width:1.5;"/>
   </g>
   <g id="patch_3">
    <path d="M 84.485313 392.136875 
L 84.485313 14.4 
" style="fill:none;stroke:#000000;stroke-linecap:square;stroke-linejoin:miter;"/>
   </g>
   <g id="patch_4">
    <path d="M 496.8 392.136875 
L 496.8 14.4 
" style="fill:none;stroke:#000000;stroke-linecap:square;stroke-linejoin:miter;"/>
   </g>
   <g id="patch_5">
    <path d="M 84.485313 392.136875 
L 496.8 392.136875 
" style="fill:none;stroke:#000000;stroke-linecap:square;stroke-linejoin:miter;"/>
   </g>
   <g id="patch_6">
    <path d="M 84.485313 14.4 
L 496.8 14.4 
" style="fill:none;stroke:#000000;stroke-linecap:square;stroke-linejoin:miter;"/>
   </g>
   <g id="text_12">
    <text style="font-family:DejaVu Sans;font-size:16px;font-stretch:normal;font-style:normal;font-weight:normal;text-anchor:middle;" transform="rotate(-270, 402.819849, 162.334974)" x="402.819849" y="162.334974">ns</text>
   </g>
   <g id="text_13">
    <text style="font-family:DejaVu Sans;font-size:16px;font-stretch:normal;font-style:normal;font-weight:normal;text-anchor:middle;" transform="rotate(-270, 434.403815, 277.235924)" x="434.403815" y="277.235924">ns</text>
   </g>
   <g id="text_14">
    <text style="font-family:DejaVu Sans;font-size:16px;font-stretch:normal;font-style:normal;font-weight:normal;text-anchor:middle;" transform="rotate(-270, 469.405157, 219.785449)" x="469.405157" y="219.785449">*</text>
   </g>
   <g id="line2d_36">
    <path clip-path="url(#p7f38273c70)" d="M 159.672417 104.884499 
L 121.380419 104.884499 
" style="fill:none;stroke:#595959;stroke-linecap:square;stroke-width:2;"/>
   </g>
   <g id="line2d_37">
    <path clip-path="url(#p7f38273c70)" d="M 188.501695 104.884499 
L 214.334895 104.884499 
" style="fill:none;stroke:#595959;stroke-linecap:square;stroke-width:2;"/>
   </g>
   <g id="line2d_38">
    <path clip-path="url(#p7f38273c70)" d="M 151.002916 219.785449 
L 118.077939 219.785449 
" style="fill:none;stroke:#595959;stroke-linecap:square;stroke-width:2;"/>
   </g>
   <g id="line2d_39">
    <path clip-path="url(#p7f38273c70)" d="M 202.031855 219.785449 
L 257.044936 219.785449 
" style="fill:none;stroke:#595959;stroke-linecap:square;stroke-width:2;"/>
   </g>
   <g id="line2d_40">
    <path clip-path="url(#p7f38273c70)" d="M 134.281457 334.6864 
L 114.571889 334.6864 
" style="fill:none;stroke:#595959;stroke-linecap:square;stroke-width:2;"/>
   </g>
   <g id="line2d_41">
    <path clip-path="url(#p7f38273c70)" d="M 179.73989 334.6864 
L 224.741486 334.6864 
" style="fill:none;stroke:#595959;stroke-linecap:square;stroke-width:2;"/>
   </g>
   <g id="patch_7">
    <path clip-path="url(#p7f38273c70)" d="M 159.672417 96.266927 
L 159.672417 113.50207 
L 188.501695 113.50207 
L 188.501695 96.266927 
L 159.672417 96.266927 
z
" style="fill:none;stroke:#595959;stroke-linejoin:miter;stroke-width:1.5;"/>
   </g>
   <g id="patch_8">
    <path clip-path="url(#p7f38273c70)" d="M 151.002916 211.167878 
L 151.002916 228.40302 
L 202.031855 228.40302 
L 202.031855 211.167878 
L 151.002916 211.167878 
z
" style="fill:none;stroke:#595959;stroke-linejoin:miter;stroke-width:1.5;"/>
   </g>
   <g id="patch_9">
    <path clip-path="url(#p7f38273c70)" d="M 134.281457 326.068828 
L 134.281457 343.303971 
L 179.73989 343.303971 
L 179.73989 326.068828 
L 134.281457 326.068828 
z
" style="fill:none;stroke:#595959;stroke-linejoin:miter;stroke-width:1.5;"/>
   </g>
  </g>
 </g>
 <defs>
  <clipPath id="p7f38273c70">
   <rect height="377.736875" width="412.314687" x="84.485313" y="14.4"/>
  </clipPath>
 </defs>
</svg>
