<?xml version="1.0" encoding="utf-8" standalone="no"?>
<!DOCTYPE svg PUBLIC "-//W3C//DTD SVG 1.1//EN"
  "http://www.w3.org/Graphics/SVG/1.1/DTD/svg11.dtd">
<!-- Created with matplotlib (https://matplotlib.org/) -->
<svg height="439.2pt" version="1.1" viewBox="0 0 511.2 439.2" width="511.2pt" xmlns="http://www.w3.org/2000/svg" xmlns:xlink="http://www.w3.org/1999/xlink">
 <metadata>
  <rdf:RDF xmlns:cc="http://creativecommons.org/ns#" xmlns:dc="http://purl.org/dc/elements/1.1/" xmlns:rdf="http://www.w3.org/1999/02/22-rdf-syntax-ns#">
   <cc:Work>
    <dc:type rdf:resource="http://purl.org/dc/dcmitype/StillImage"/>
    <dc:date>2022-06-23T15:48:23.053491</dc:date>
    <dc:format>image/svg+xml</dc:format>
    <dc:creator>
     <cc:Agent>
      <dc:title>Matplotlib v3.3.3, https://matplotlib.org/</dc:title>
     </cc:Agent>
    </dc:creator>
   </cc:Work>
  </rdf:RDF>
 </metadata>
 <defs>
  <style type="text/css">*{stroke-linecap:butt;stroke-linejoin:round;}</style>
 </defs>
 <g id="figure_1">
  <g id="patch_1">
   <path d="M 0 439.2 
L 511.2 439.2 
L 511.2 0 
L 0 0 
z
" style="fill:#ffffff;"/>
  </g>
  <g id="axes_1">
   <g id="patch_2">
    <path d="M 84.485313 392.136875 
L 496.8 392.136875 
L 496.8 14.4 
L 84.485313 14.4 
z
" style="fill:#ffffff;"/>
   </g>
   <g id="PathCollection_1">
    <defs>
     <path d="M 0 2 
C 0.530406 2 1.03916 1.789267 1.414214 1.414214 
C 1.789267 1.03916 2 0.530406 2 -0 
C 2 -0.530406 1.789267 -1.03916 1.414214 -1.414214 
C 1.03916 -1.789267 0.530406 -2 0 -2 
C -0.530406 -2 -1.03916 -1.789267 -1.414214 -1.414214 
C -1.789267 -1.03916 -2 -0.530406 -2 0 
C -2 0.530406 -1.789267 1.03916 -1.414214 1.414214 
C -1.03916 1.789267 -0.530406 2 0 2 
z
" id="C0_0_afddaaa328"/>
    </defs>
    <g clip-path="url(#p791b2abcbd)">
     <use style="fill:#66c2a5;" x="187.318094" xlink:href="#C0_0_afddaaa328" y="102.816755"/>
    </g>
    <g clip-path="url(#p791b2abcbd)">
     <use style="fill:#66c2a5;" x="214.775143" xlink:href="#C0_0_afddaaa328" y="96.768763"/>
    </g>
    <g clip-path="url(#p791b2abcbd)">
     <use style="fill:#66c2a5;" x="153.226263" xlink:href="#C0_0_afddaaa328" y="99.704716"/>
    </g>
    <g clip-path="url(#p791b2abcbd)">
     <use style="fill:#66c2a5;" x="164.586315" xlink:href="#C0_0_afddaaa328" y="110.788275"/>
    </g>
    <g clip-path="url(#p791b2abcbd)">
     <use style="fill:#66c2a5;" x="173.092209" xlink:href="#C0_0_afddaaa328" y="101.110973"/>
    </g>
    <g clip-path="url(#p791b2abcbd)">
     <use style="fill:#66c2a5;" x="165.125713" xlink:href="#C0_0_afddaaa328" y="101.096404"/>
    </g>
    <g clip-path="url(#p791b2abcbd)">
     <use style="fill:#66c2a5;" x="187.12783" xlink:href="#C0_0_afddaaa328" y="93.971146"/>
    </g>
    <g clip-path="url(#p791b2abcbd)">
     <use style="fill:#66c2a5;" x="184.156786" xlink:href="#C0_0_afddaaa328" y="109.805624"/>
    </g>
    <g clip-path="url(#p791b2abcbd)">
     <use style="fill:#66c2a5;" x="217.712752" xlink:href="#C0_0_afddaaa328" y="102.437337"/>
    </g>
    <g clip-path="url(#p791b2abcbd)">
     <use style="fill:#66c2a5;" x="168.8953" xlink:href="#C0_0_afddaaa328" y="109.599362"/>
    </g>
    <g clip-path="url(#p791b2abcbd)">
     <use style="fill:#66c2a5;" x="240.401722" xlink:href="#C0_0_afddaaa328" y="106.178882"/>
    </g>
    <g clip-path="url(#p791b2abcbd)">
     <use style="fill:#66c2a5;" x="157.933737" xlink:href="#C0_0_afddaaa328" y="104.60787"/>
    </g>
    <g clip-path="url(#p791b2abcbd)">
     <use style="fill:#66c2a5;" x="370.139318" xlink:href="#C0_0_afddaaa328" y="114.7216"/>
    </g>
    <g clip-path="url(#p791b2abcbd)">
     <use style="fill:#66c2a5;" x="225.856686" xlink:href="#C0_0_afddaaa328" y="95.669934"/>
    </g>
    <g clip-path="url(#p791b2abcbd)">
     <use style="fill:#66c2a5;" x="192.455219" xlink:href="#C0_0_afddaaa328" y="106.732811"/>
    </g>
    <g clip-path="url(#p791b2abcbd)">
     <use style="fill:#66c2a5;" x="175.673943" xlink:href="#C0_0_afddaaa328" y="115.44243"/>
    </g>
    <g clip-path="url(#p791b2abcbd)">
     <use style="fill:#66c2a5;" x="168.053874" xlink:href="#C0_0_afddaaa328" y="98.830664"/>
    </g>
    <g clip-path="url(#p791b2abcbd)">
     <use style="fill:#66c2a5;" x="153.498686" xlink:href="#C0_0_afddaaa328" y="111.914915"/>
    </g>
    <g clip-path="url(#p791b2abcbd)">
     <use style="fill:#66c2a5;" x="182.940835" xlink:href="#C0_0_afddaaa328" y="98.855738"/>
    </g>
    <g clip-path="url(#p791b2abcbd)">
     <use style="fill:#66c2a5;" x="176.215275" xlink:href="#C0_0_afddaaa328" y="99.167854"/>
    </g>
    <g clip-path="url(#p791b2abcbd)">
     <use style="fill:#66c2a5;" x="164.615315" xlink:href="#C0_0_afddaaa328" y="112.397139"/>
    </g>
    <g clip-path="url(#p791b2abcbd)">
     <use style="fill:#66c2a5;" x="256.669286" xlink:href="#C0_0_afddaaa328" y="113.292961"/>
    </g>
    <g clip-path="url(#p791b2abcbd)">
     <use style="fill:#66c2a5;" x="148.007918" xlink:href="#C0_0_afddaaa328" y="97.523968"/>
    </g>
    <g clip-path="url(#p791b2abcbd)">
     <use style="fill:#66c2a5;" x="215.572283" xlink:href="#C0_0_afddaaa328" y="94.330072"/>
    </g>
    <g clip-path="url(#p791b2abcbd)">
     <use style="fill:#66c2a5;" x="156.495342" xlink:href="#C0_0_afddaaa328" y="95.559896"/>
    </g>
    <g clip-path="url(#p791b2abcbd)">
     <use style="fill:#66c2a5;" x="221.75586" xlink:href="#C0_0_afddaaa328" y="114.680133"/>
    </g>
    <g clip-path="url(#p791b2abcbd)">
     <use style="fill:#66c2a5;" x="172.615287" xlink:href="#C0_0_afddaaa328" y="115.176427"/>
    </g>
    <g clip-path="url(#p791b2abcbd)">
     <use style="fill:#66c2a5;" x="209.715961" xlink:href="#C0_0_afddaaa328" y="108.379611"/>
    </g>
    <g clip-path="url(#p791b2abcbd)">
     <use style="fill:#66c2a5;" x="168.225112" xlink:href="#C0_0_afddaaa328" y="109.333717"/>
    </g>
    <g clip-path="url(#p791b2abcbd)">
     <use style="fill:#66c2a5;" x="169.440898" xlink:href="#C0_0_afddaaa328" y="109.913657"/>
    </g>
    <g clip-path="url(#p791b2abcbd)">
     <use style="fill:#66c2a5;" x="258.210423" xlink:href="#C0_0_afddaaa328" y="110.110165"/>
    </g>
    <g clip-path="url(#p791b2abcbd)">
     <use style="fill:#66c2a5;" x="198.448532" xlink:href="#C0_0_afddaaa328" y="102.026537"/>
    </g>
    <g clip-path="url(#p791b2abcbd)">
     <use style="fill:#66c2a5;" x="195.530735" xlink:href="#C0_0_afddaaa328" y="110.112251"/>
    </g>
    <g clip-path="url(#p791b2abcbd)">
     <use style="fill:#66c2a5;" x="187.101392" xlink:href="#C0_0_afddaaa328" y="96.745741"/>
    </g>
    <g clip-path="url(#p791b2abcbd)">
     <use style="fill:#66c2a5;" x="161.554525" xlink:href="#C0_0_afddaaa328" y="110.317406"/>
    </g>
    <g clip-path="url(#p791b2abcbd)">
     <use style="fill:#66c2a5;" x="251.532161" xlink:href="#C0_0_afddaaa328" y="98.780073"/>
    </g>
    <g clip-path="url(#p791b2abcbd)">
     <use style="fill:#66c2a5;" x="232.182322" xlink:href="#C0_0_afddaaa328" y="94.612007"/>
    </g>
    <g clip-path="url(#p791b2abcbd)">
     <use style="fill:#66c2a5;" x="187.761509" xlink:href="#C0_0_afddaaa328" y="99.921555"/>
    </g>
    <g clip-path="url(#p791b2abcbd)">
     <use style="fill:#66c2a5;" x="163.033502" xlink:href="#C0_0_afddaaa328" y="107.455317"/>
    </g>
    <g clip-path="url(#p791b2abcbd)">
     <use style="fill:#66c2a5;" x="170.799548" xlink:href="#C0_0_afddaaa328" y="107.447361"/>
    </g>
    <g clip-path="url(#p791b2abcbd)">
     <use style="fill:#66c2a5;" x="162.488655" xlink:href="#C0_0_afddaaa328" y="112.985436"/>
    </g>
    <g clip-path="url(#p791b2abcbd)">
     <use style="fill:#66c2a5;" x="180.212469" xlink:href="#C0_0_afddaaa328" y="106.970104"/>
    </g>
    <g clip-path="url(#p791b2abcbd)">
     <use style="fill:#66c2a5;" x="280.066557" xlink:href="#C0_0_afddaaa328" y="100.338754"/>
    </g>
    <g clip-path="url(#p791b2abcbd)">
     <use style="fill:#66c2a5;" x="198.779198" xlink:href="#C0_0_afddaaa328" y="113.272115"/>
    </g>
    <g clip-path="url(#p791b2abcbd)">
     <use style="fill:#66c2a5;" x="214.716096" xlink:href="#C0_0_afddaaa328" y="96.993539"/>
    </g>
    <g clip-path="url(#p791b2abcbd)">
     <use style="fill:#66c2a5;" x="190.798082" xlink:href="#C0_0_afddaaa328" y="112.444751"/>
    </g>
    <g clip-path="url(#p791b2abcbd)">
     <use style="fill:#66c2a5;" x="189.009065" xlink:href="#C0_0_afddaaa328" y="107.010613"/>
    </g>
    <g clip-path="url(#p791b2abcbd)">
     <use style="fill:#66c2a5;" x="205.393165" xlink:href="#C0_0_afddaaa328" y="106.598347"/>
    </g>
    <g clip-path="url(#p791b2abcbd)">
     <use style="fill:#66c2a5;" x="137.861588" xlink:href="#C0_0_afddaaa328" y="107.056863"/>
    </g>
    <g clip-path="url(#p791b2abcbd)">
     <use style="fill:#66c2a5;" x="172.615287" xlink:href="#C0_0_afddaaa328" y="109.018942"/>
    </g>
    <g clip-path="url(#p791b2abcbd)">
     <use style="fill:#66c2a5;" x="214.34384" xlink:href="#C0_0_afddaaa328" y="103.062837"/>
    </g>
    <g clip-path="url(#p791b2abcbd)">
     <use style="fill:#66c2a5;" x="239.479674" xlink:href="#C0_0_afddaaa328" y="94.558868"/>
    </g>
    <g clip-path="url(#p791b2abcbd)">
     <use style="fill:#66c2a5;" x="213.003721" xlink:href="#C0_0_afddaaa328" y="109.521203"/>
    </g>
    <g clip-path="url(#p791b2abcbd)">
     <use style="fill:#66c2a5;" x="149.675366" xlink:href="#C0_0_afddaaa328" y="98.272692"/>
    </g>
    <g clip-path="url(#p791b2abcbd)">
     <use style="fill:#66c2a5;" x="274.232396" xlink:href="#C0_0_afddaaa328" y="101.684343"/>
    </g>
    <g clip-path="url(#p791b2abcbd)">
     <use style="fill:#66c2a5;" x="275.695676" xlink:href="#C0_0_afddaaa328" y="114.932401"/>
    </g>
    <g clip-path="url(#p791b2abcbd)">
     <use style="fill:#66c2a5;" x="177.521357" xlink:href="#C0_0_afddaaa328" y="101.703537"/>
    </g>
    <g clip-path="url(#p791b2abcbd)">
     <use style="fill:#66c2a5;" x="226.052019" xlink:href="#C0_0_afddaaa328" y="116.299913"/>
    </g>
    <g clip-path="url(#p791b2abcbd)">
     <use style="fill:#66c2a5;" x="197.677964" xlink:href="#C0_0_afddaaa328" y="114.34114"/>
    </g>
    <g clip-path="url(#p791b2abcbd)">
     <use style="fill:#66c2a5;" x="182.341504" xlink:href="#C0_0_afddaaa328" y="105.978926"/>
    </g>
    <g clip-path="url(#p791b2abcbd)">
     <use style="fill:#66c2a5;" x="193.893615" xlink:href="#C0_0_afddaaa328" y="115.637267"/>
    </g>
    <g clip-path="url(#p791b2abcbd)">
     <use style="fill:#66c2a5;" x="165.485312" xlink:href="#C0_0_afddaaa328" y="105.765306"/>
    </g>
    <g clip-path="url(#p791b2abcbd)">
     <use style="fill:#66c2a5;" x="173.276618" xlink:href="#C0_0_afddaaa328" y="102.533646"/>
    </g>
    <g clip-path="url(#p791b2abcbd)">
     <use style="fill:#66c2a5;" x="192.455219" xlink:href="#C0_0_afddaaa328" y="115.945518"/>
    </g>
    <g clip-path="url(#p791b2abcbd)">
     <use style="fill:#66c2a5;" x="166.355309" xlink:href="#C0_0_afddaaa328" y="108.162147"/>
    </g>
   </g>
   <g id="PathCollection_2">
    <defs>
     <path d="M 0 2 
C 0.530406 2 1.03916 1.789267 1.414214 1.414214 
C 1.789267 1.03916 2 0.530406 2 -0 
C 2 -0.530406 1.789267 -1.03916 1.414214 -1.414214 
C 1.03916 -1.789267 0.530406 -2 0 -2 
C -0.530406 -2 -1.03916 -1.789267 -1.414214 -1.414214 
C -1.789267 -1.03916 -2 -0.530406 -2 0 
C -2 0.530406 -1.789267 1.03916 -1.414214 1.414214 
C -1.03916 1.789267 -0.530406 2 0 2 
z
" id="C1_0_0d51e17562"/>
    </defs>
    <g clip-path="url(#p791b2abcbd)">
     <use style="fill:#fc8d62;" x="215.469541" xlink:href="#C1_0_0d51e17562" y="229.550546"/>
    </g>
    <g clip-path="url(#p791b2abcbd)">
     <use style="fill:#fc8d62;" x="178.071269" xlink:href="#C1_0_0d51e17562" y="211.534473"/>
    </g>
    <g clip-path="url(#p791b2abcbd)">
     <use style="fill:#fc8d62;" x="184.156786" xlink:href="#C1_0_0d51e17562" y="229.589461"/>
    </g>
    <g clip-path="url(#p791b2abcbd)">
     <use style="fill:#fc8d62;" x="221.876937" xlink:href="#C1_0_0d51e17562" y="226.881235"/>
    </g>
    <g clip-path="url(#p791b2abcbd)">
     <use style="fill:#fc8d62;" x="192.455219" xlink:href="#C1_0_0d51e17562" y="221.582583"/>
    </g>
    <g clip-path="url(#p791b2abcbd)">
     <use style="fill:#fc8d62;" x="270.628865" xlink:href="#C1_0_0d51e17562" y="218.237354"/>
    </g>
    <g clip-path="url(#p791b2abcbd)">
     <use style="fill:#fc8d62;" x="209.81516" xlink:href="#C1_0_0d51e17562" y="228.167093"/>
    </g>
    <g clip-path="url(#p791b2abcbd)">
     <use style="fill:#fc8d62;" x="275.730724" xlink:href="#C1_0_0d51e17562" y="219.228316"/>
    </g>
    <g clip-path="url(#p791b2abcbd)">
     <use style="fill:#fc8d62;" x="158.610629" xlink:href="#C1_0_0d51e17562" y="213.845184"/>
    </g>
    <g clip-path="url(#p791b2abcbd)">
     <use style="fill:#fc8d62;" x="251.056501" xlink:href="#C1_0_0d51e17562" y="220.969712"/>
    </g>
    <g clip-path="url(#p791b2abcbd)">
     <use style="fill:#fc8d62;" x="200.446303" xlink:href="#C1_0_0d51e17562" y="218.555401"/>
    </g>
    <g clip-path="url(#p791b2abcbd)">
     <use style="fill:#fc8d62;" x="196.450761" xlink:href="#C1_0_0d51e17562" y="217.583229"/>
    </g>
    <g clip-path="url(#p791b2abcbd)">
     <use style="fill:#fc8d62;" x="159.764422" xlink:href="#C1_0_0d51e17562" y="229.72063"/>
    </g>
    <g clip-path="url(#p791b2abcbd)">
     <use style="fill:#fc8d62;" x="205.531538" xlink:href="#C1_0_0d51e17562" y="225.34945"/>
    </g>
    <g clip-path="url(#p791b2abcbd)">
     <use style="fill:#fc8d62;" x="226.29981" xlink:href="#C1_0_0d51e17562" y="209.650723"/>
    </g>
    <g clip-path="url(#p791b2abcbd)">
     <use style="fill:#fc8d62;" x="224.419555" xlink:href="#C1_0_0d51e17562" y="212.020852"/>
    </g>
    <g clip-path="url(#p791b2abcbd)">
     <use style="fill:#fc8d62;" x="261.378317" xlink:href="#C1_0_0d51e17562" y="227.867669"/>
    </g>
    <g clip-path="url(#p791b2abcbd)">
     <use style="fill:#fc8d62;" x="230.812422" xlink:href="#C1_0_0d51e17562" y="220.104668"/>
    </g>
    <g clip-path="url(#p791b2abcbd)">
     <use style="fill:#fc8d62;" x="206.83917" xlink:href="#C1_0_0d51e17562" y="219.940375"/>
    </g>
    <g clip-path="url(#p791b2abcbd)">
     <use style="fill:#fc8d62;" x="295.197726" xlink:href="#C1_0_0d51e17562" y="224.693747"/>
    </g>
    <g clip-path="url(#p791b2abcbd)">
     <use style="fill:#fc8d62;" x="306.012726" xlink:href="#C1_0_0d51e17562" y="208.800223"/>
    </g>
    <g clip-path="url(#p791b2abcbd)">
     <use style="fill:#fc8d62;" x="238.222336" xlink:href="#C1_0_0d51e17562" y="216.299824"/>
    </g>
    <g clip-path="url(#p791b2abcbd)">
     <use style="fill:#fc8d62;" x="175.858353" xlink:href="#C1_0_0d51e17562" y="222.796216"/>
    </g>
    <g clip-path="url(#p791b2abcbd)">
     <use style="fill:#fc8d62;" x="222.421784" xlink:href="#C1_0_0d51e17562" y="219.720332"/>
    </g>
    <g clip-path="url(#p791b2abcbd)">
     <use style="fill:#fc8d62;" x="251.298655" xlink:href="#C1_0_0d51e17562" y="223.529731"/>
    </g>
    <g clip-path="url(#p791b2abcbd)">
     <use style="fill:#fc8d62;" x="209.715961" xlink:href="#C1_0_0d51e17562" y="208.341882"/>
    </g>
    <g clip-path="url(#p791b2abcbd)">
     <use style="fill:#fc8d62;" x="187.12783" xlink:href="#C1_0_0d51e17562" y="212.203597"/>
    </g>
    <g clip-path="url(#p791b2abcbd)">
     <use style="fill:#fc8d62;" x="240.401722" xlink:href="#C1_0_0d51e17562" y="220.597558"/>
    </g>
    <g clip-path="url(#p791b2abcbd)">
     <use style="fill:#fc8d62;" x="222.421784" xlink:href="#C1_0_0d51e17562" y="213.228154"/>
    </g>
    <g clip-path="url(#p791b2abcbd)">
     <use style="fill:#fc8d62;" x="183.46525" xlink:href="#C1_0_0d51e17562" y="225.106919"/>
    </g>
    <g clip-path="url(#p791b2abcbd)">
     <use style="fill:#fc8d62;" x="298.219564" xlink:href="#C1_0_0d51e17562" y="212.229062"/>
    </g>
    <g clip-path="url(#p791b2abcbd)">
     <use style="fill:#fc8d62;" x="221.876937" xlink:href="#C1_0_0d51e17562" y="210.115429"/>
    </g>
    <g clip-path="url(#p791b2abcbd)">
     <use style="fill:#fc8d62;" x="197.592345" xlink:href="#C1_0_0d51e17562" y="221.771475"/>
    </g>
   </g>
   <g id="PathCollection_3">
    <defs>
     <path d="M 0 2 
C 0.530406 2 1.03916 1.789267 1.414214 1.414214 
C 1.789267 1.03916 2 0.530406 2 -0 
C 2 -0.530406 1.789267 -1.03916 1.414214 -1.414214 
C 1.03916 -1.789267 0.530406 -2 0 -2 
C -0.530406 -2 -1.03916 -1.789267 -1.414214 -1.414214 
C -1.789267 -1.03916 -2 -0.530406 -2 0 
C -2 0.530406 -1.789267 1.03916 -1.414214 1.414214 
C -1.03916 1.789267 -0.530406 2 0 2 
z
" id="C2_0_b6435fae0f"/>
    </defs>
    <g clip-path="url(#p791b2abcbd)">
     <use style="fill:#8da0cb;" x="277.859928" xlink:href="#C2_0_b6435fae0f" y="327.212367"/>
    </g>
    <g clip-path="url(#p791b2abcbd)">
     <use style="fill:#8da0cb;" x="188.669969" xlink:href="#C2_0_b6435fae0f" y="329.942102"/>
    </g>
    <g clip-path="url(#p791b2abcbd)">
     <use style="fill:#8da0cb;" x="203.519797" xlink:href="#C2_0_b6435fae0f" y="344.296484"/>
    </g>
    <g clip-path="url(#p791b2abcbd)">
     <use style="fill:#8da0cb;" x="246.395035" xlink:href="#C2_0_b6435fae0f" y="325.639714"/>
    </g>
    <g clip-path="url(#p791b2abcbd)">
     <use style="fill:#8da0cb;" x="195.87997" xlink:href="#C2_0_b6435fae0f" y="332.522938"/>
    </g>
    <g clip-path="url(#p791b2abcbd)">
     <use style="fill:#8da0cb;" x="221.223121" xlink:href="#C2_0_b6435fae0f" y="337.592392"/>
    </g>
    <g clip-path="url(#p791b2abcbd)">
     <use style="fill:#8da0cb;" x="255.913826" xlink:href="#C2_0_b6435fae0f" y="326.528793"/>
    </g>
    <g clip-path="url(#p791b2abcbd)">
     <use style="fill:#8da0cb;" x="253.310396" xlink:href="#C2_0_b6435fae0f" y="343.955592"/>
    </g>
    <g clip-path="url(#p791b2abcbd)">
     <use style="fill:#8da0cb;" x="314.718802" xlink:href="#C2_0_b6435fae0f" y="337.034533"/>
    </g>
    <g clip-path="url(#p791b2abcbd)">
     <use style="fill:#8da0cb;" x="218.346331" xlink:href="#C2_0_b6435fae0f" y="324.245384"/>
    </g>
    <g clip-path="url(#p791b2abcbd)">
     <use style="fill:#8da0cb;" x="181.099469" xlink:href="#C2_0_b6435fae0f" y="336.627511"/>
    </g>
    <g clip-path="url(#p791b2abcbd)">
     <use style="fill:#8da0cb;" x="221.223121" xlink:href="#C2_0_b6435fae0f" y="330.453434"/>
    </g>
    <g clip-path="url(#p791b2abcbd)">
     <use style="fill:#8da0cb;" x="154.098017" xlink:href="#C2_0_b6435fae0f" y="338.221161"/>
    </g>
    <g clip-path="url(#p791b2abcbd)">
     <use style="fill:#8da0cb;" x="214.031146" xlink:href="#C2_0_b6435fae0f" y="339.70661"/>
    </g>
    <g clip-path="url(#p791b2abcbd)">
     <use style="fill:#8da0cb;" x="279.78635" xlink:href="#C2_0_b6435fae0f" y="344.807663"/>
    </g>
    <g clip-path="url(#p791b2abcbd)">
     <use style="fill:#8da0cb;" x="192.455219" xlink:href="#C2_0_b6435fae0f" y="331.914953"/>
    </g>
    <g clip-path="url(#p791b2abcbd)">
     <use style="fill:#8da0cb;" x="222.069236" xlink:href="#C2_0_b6435fae0f" y="329.854546"/>
    </g>
    <g clip-path="url(#p791b2abcbd)">
     <use style="fill:#8da0cb;" x="168.481968" xlink:href="#C2_0_b6435fae0f" y="325.52613"/>
    </g>
    <g clip-path="url(#p791b2abcbd)">
     <use style="fill:#8da0cb;" x="120.535465" xlink:href="#C2_0_b6435fae0f" y="324.314636"/>
    </g>
    <g clip-path="url(#p791b2abcbd)">
     <use style="fill:#8da0cb;" x="216.428471" xlink:href="#C2_0_b6435fae0f" y="342.992995"/>
    </g>
    <g clip-path="url(#p791b2abcbd)">
     <use style="fill:#8da0cb;" x="264.374974" xlink:href="#C2_0_b6435fae0f" y="324.91312"/>
    </g>
    <g clip-path="url(#p791b2abcbd)">
     <use style="fill:#8da0cb;" x="219.425127" xlink:href="#C2_0_b6435fae0f" y="330.027326"/>
    </g>
    <g clip-path="url(#p791b2abcbd)">
     <use style="fill:#8da0cb;" x="372.254605" xlink:href="#C2_0_b6435fae0f" y="325.936532"/>
    </g>
    <g clip-path="url(#p791b2abcbd)">
     <use style="fill:#8da0cb;" x="192.455219" xlink:href="#C2_0_b6435fae0f" y="332.81882"/>
    </g>
   </g>
   <g id="PolyCollection_1">
    <defs>
     <path d="M 121.950427 -357.295692 
L 121.950427 -357.718767 
L 124.618104 -358.104586 
L 127.285781 -358.70519 
L 129.953459 -359.557521 
L 132.621136 -360.68582 
L 135.288813 -362.122973 
L 137.95649 -363.936836 
L 140.624168 -366.234392 
L 143.291845 -369.131144 
L 145.959522 -372.708026 
L 148.6272 -376.994277 
L 151.294877 -381.983258 
L 153.962554 -387.636072 
L 156.630232 -393.82065 
L 159.297909 -400.200993 
L 161.965586 -406.176156 
L 164.633263 -410.976748 
L 167.300941 -413.926908 
L 169.968618 -414.746167 
L 172.636295 -413.709805 
L 175.303973 -411.555344 
L 177.97165 -409.167069 
L 180.639327 -407.195988 
L 183.307005 -405.80727 
L 185.974682 -404.67549 
L 188.642359 -403.214243 
L 191.310036 -400.911253 
L 193.977714 -397.606368 
L 196.645391 -393.598779 
L 199.313068 -389.552242 
L 201.980746 -386.239458 
L 204.648423 -384.221738 
L 207.3161 -383.59757 
L 209.983778 -383.947147 
L 212.651455 -384.518359 
L 215.319132 -384.56603 
L 217.986809 -383.659833 
L 220.654487 -381.801068 
L 223.322164 -379.32138 
L 225.989841 -376.668624 
L 228.657519 -374.216594 
L 231.325196 -372.171363 
L 233.992873 -370.570941 
L 236.660551 -369.344707 
L 239.328228 -368.398628 
L 241.995905 -367.686318 
L 244.663583 -367.221933 
L 247.33126 -367.021518 
L 249.998937 -367.01956 
L 252.666614 -367.041991 
L 255.334292 -366.880837 
L 258.001969 -366.430421 
L 260.669646 -365.783016 
L 263.337324 -365.199115 
L 266.005001 -364.954359 
L 268.672678 -365.156232 
L 271.340356 -365.651059 
L 274.008033 -366.085254 
L 276.67571 -366.084522 
L 279.343387 -365.441089 
L 282.011065 -364.201378 
L 284.678742 -362.617859 
L 287.346419 -361.013371 
L 290.014097 -359.645836 
L 292.681774 -358.638844 
L 295.349451 -357.989107 
L 298.017129 -357.618783 
L 300.684806 -357.431437 
L 303.352483 -357.347071 
L 306.02016 -357.313194 
L 308.687838 -357.301053 
L 311.355515 -357.297167 
L 314.023192 -357.296056 
L 316.69087 -357.295772 
L 319.358547 -357.295708 
L 322.026224 -357.295694 
L 324.693902 -357.295692 
L 327.361579 -357.295693 
L 330.029256 -357.2957 
L 332.696933 -357.295737 
L 335.364611 -357.295901 
L 338.032288 -357.296549 
L 340.699965 -357.29883 
L 343.367643 -357.305953 
L 346.03532 -357.325674 
L 348.702997 -357.373978 
L 351.370675 -357.478361 
L 354.038352 -357.676593 
L 356.706029 -358.005477 
L 359.373707 -358.477671 
L 362.041384 -359.054668 
L 364.709061 -359.634949 
L 367.376738 -360.075812 
L 370.044416 -360.248376 
L 372.712093 -360.098143 
L 375.37977 -359.672679 
L 378.047448 -359.097395 
L 380.715125 -358.516106 
L 383.382802 -358.034445 
L 386.05048 -357.695322 
L 386.05048 -357.295692 
L 386.05048 -357.295692 
L 383.382802 -357.295692 
L 380.715125 -357.295692 
L 378.047448 -357.295692 
L 375.37977 -357.295692 
L 372.712093 -357.295692 
L 370.044416 -357.295692 
L 367.376738 -357.295692 
L 364.709061 -357.295692 
L 362.041384 -357.295692 
L 359.373707 -357.295692 
L 356.706029 -357.295692 
L 354.038352 -357.295692 
L 351.370675 -357.295692 
L 348.702997 -357.295692 
L 346.03532 -357.295692 
L 343.367643 -357.295692 
L 340.699965 -357.295692 
L 338.032288 -357.295692 
L 335.364611 -357.295692 
L 332.696933 -357.295692 
L 330.029256 -357.295692 
L 327.361579 -357.295692 
L 324.693902 -357.295692 
L 322.026224 -357.295692 
L 319.358547 -357.295692 
L 316.69087 -357.295692 
L 314.023192 -357.295692 
L 311.355515 -357.295692 
L 308.687838 -357.295692 
L 306.02016 -357.295692 
L 303.352483 -357.295692 
L 300.684806 -357.295692 
L 298.017129 -357.295692 
L 295.349451 -357.295692 
L 292.681774 -357.295692 
L 290.014097 -357.295692 
L 287.346419 -357.295692 
L 284.678742 -357.295692 
L 282.011065 -357.295692 
L 279.343387 -357.295692 
L 276.67571 -357.295692 
L 274.008033 -357.295692 
L 271.340356 -357.295692 
L 268.672678 -357.295692 
L 266.005001 -357.295692 
L 263.337324 -357.295692 
L 260.669646 -357.295692 
L 258.001969 -357.295692 
L 255.334292 -357.295692 
L 252.666614 -357.295692 
L 249.998937 -357.295692 
L 247.33126 -357.295692 
L 244.663583 -357.295692 
L 241.995905 -357.295692 
L 239.328228 -357.295692 
L 236.660551 -357.295692 
L 233.992873 -357.295692 
L 231.325196 -357.295692 
L 228.657519 -357.295692 
L 225.989841 -357.295692 
L 223.322164 -357.295692 
L 220.654487 -357.295692 
L 217.986809 -357.295692 
L 215.319132 -357.295692 
L 212.651455 -357.295692 
L 209.983778 -357.295692 
L 207.3161 -357.295692 
L 204.648423 -357.295692 
L 201.980746 -357.295692 
L 199.313068 -357.295692 
L 196.645391 -357.295692 
L 193.977714 -357.295692 
L 191.310036 -357.295692 
L 188.642359 -357.295692 
L 185.974682 -357.295692 
L 183.307005 -357.295692 
L 180.639327 -357.295692 
L 177.97165 -357.295692 
L 175.303973 -357.295692 
L 172.636295 -357.295692 
L 169.968618 -357.295692 
L 167.300941 -357.295692 
L 164.633263 -357.295692 
L 161.965586 -357.295692 
L 159.297909 -357.295692 
L 156.630232 -357.295692 
L 153.962554 -357.295692 
L 151.294877 -357.295692 
L 148.6272 -357.295692 
L 145.959522 -357.295692 
L 143.291845 -357.295692 
L 140.624168 -357.295692 
L 137.95649 -357.295692 
L 135.288813 -357.295692 
L 132.621136 -357.295692 
L 129.953459 -357.295692 
L 127.285781 -357.295692 
L 124.618104 -357.295692 
L 121.950427 -357.295692 
z
" id="mf5985b62d6" style="stroke:#595959;"/>
    </defs>
    <g clip-path="url(#p791b2abcbd)">
     <use style="fill:#72b6a1;stroke:#595959;" x="0" xlink:href="#mf5985b62d6" y="439.2"/>
    </g>
   </g>
   <g id="PolyCollection_2">
    <defs>
     <path d="M 143.289742 -242.394741 
L 143.289742 -243.811184 
L 145.088165 -244.632956 
L 146.886588 -245.743953 
L 148.685011 -247.141779 
L 150.483434 -248.770261 
L 152.281857 -250.514046 
L 154.08028 -252.210925 
L 155.878703 -253.683843 
L 157.677126 -254.786837 
L 159.475548 -255.451836 
L 161.273971 -255.719886 
L 163.072394 -255.743592 
L 164.870817 -255.756663 
L 166.66924 -256.018008 
L 168.467663 -256.746928 
L 170.266086 -258.06882 
L 172.064509 -259.986609 
L 173.862932 -262.384137 
L 175.661355 -265.057775 
L 177.459778 -267.765382 
L 179.258201 -270.278914 
L 181.056624 -272.428359 
L 182.855047 -274.128411 
L 184.65347 -275.384028 
L 186.451893 -276.275731 
L 188.250316 -276.929857 
L 190.048739 -277.482372 
L 191.847161 -278.046137 
L 193.645584 -278.689732 
L 195.444007 -279.431428 
L 197.24243 -280.246534 
L 199.040853 -281.082891 
L 200.839276 -281.879258 
L 202.637699 -282.583739 
L 204.436122 -283.171372 
L 206.234545 -283.659121 
L 208.032968 -284.112984 
L 209.831391 -284.639195 
L 211.629814 -285.353704 
L 213.428237 -286.332888 
L 215.22666 -287.560375 
L 217.025083 -288.893077 
L 218.823506 -290.067516 
L 220.621929 -290.753672 
L 222.420352 -290.643289 
L 224.218774 -289.542611 
L 226.017197 -287.435044 
L 227.81562 -284.49013 
L 229.614043 -281.016688 
L 231.412466 -277.37976 
L 233.210889 -273.913014 
L 235.009312 -270.855895 
L 236.807735 -268.330526 
L 238.606158 -266.355199 
L 240.404581 -264.878085 
L 242.203004 -263.811872 
L 244.001427 -263.056785 
L 245.79985 -262.510535 
L 247.598273 -262.07213 
L 249.396696 -261.648087 
L 251.195119 -261.164617 
L 252.993542 -260.582324 
L 254.791965 -259.905791 
L 256.590387 -259.181553 
L 258.38881 -258.483185 
L 260.187233 -257.887794 
L 261.985656 -257.451281 
L 263.784079 -257.189359 
L 265.582502 -257.068911 
L 267.380925 -257.011594 
L 269.179348 -256.909311 
L 270.977771 -256.649136 
L 272.776194 -256.142953 
L 274.574617 -255.354963 
L 276.37304 -254.319453 
L 278.171463 -253.14281 
L 279.969886 -251.987611 
L 281.768309 -251.041502 
L 283.566732 -250.477769 
L 285.365155 -250.416705 
L 287.163578 -250.896753 
L 288.962 -251.862236 
L 290.760423 -253.170808 
L 292.558846 -254.619199 
L 294.357269 -255.981276 
L 296.155692 -257.049105 
L 297.954115 -257.667034 
L 299.752538 -257.751344 
L 301.550961 -257.293065 
L 303.349384 -256.346832 
L 305.147807 -255.011998 
L 306.94623 -253.412374 
L 308.744653 -251.678645 
L 310.543076 -249.934628 
L 312.341499 -248.286784 
L 314.139922 -246.816413 
L 315.938345 -245.574799 
L 317.736768 -244.582205 
L 319.535191 -243.831226 
L 321.333613 -243.293836 
L 321.333613 -242.394741 
L 321.333613 -242.394741 
L 319.535191 -242.394741 
L 317.736768 -242.394741 
L 315.938345 -242.394741 
L 314.139922 -242.394741 
L 312.341499 -242.394741 
L 310.543076 -242.394741 
L 308.744653 -242.394741 
L 306.94623 -242.394741 
L 305.147807 -242.394741 
L 303.349384 -242.394741 
L 301.550961 -242.394741 
L 299.752538 -242.394741 
L 297.954115 -242.394741 
L 296.155692 -242.394741 
L 294.357269 -242.394741 
L 292.558846 -242.394741 
L 290.760423 -242.394741 
L 288.962 -242.394741 
L 287.163578 -242.394741 
L 285.365155 -242.394741 
L 283.566732 -242.394741 
L 281.768309 -242.394741 
L 279.969886 -242.394741 
L 278.171463 -242.394741 
L 276.37304 -242.394741 
L 274.574617 -242.394741 
L 272.776194 -242.394741 
L 270.977771 -242.394741 
L 269.179348 -242.394741 
L 267.380925 -242.394741 
L 265.582502 -242.394741 
L 263.784079 -242.394741 
L 261.985656 -242.394741 
L 260.187233 -242.394741 
L 258.38881 -242.394741 
L 256.590387 -242.394741 
L 254.791965 -242.394741 
L 252.993542 -242.394741 
L 251.195119 -242.394741 
L 249.396696 -242.394741 
L 247.598273 -242.394741 
L 245.79985 -242.394741 
L 244.001427 -242.394741 
L 242.203004 -242.394741 
L 240.404581 -242.394741 
L 238.606158 -242.394741 
L 236.807735 -242.394741 
L 235.009312 -242.394741 
L 233.210889 -242.394741 
L 231.412466 -242.394741 
L 229.614043 -242.394741 
L 227.81562 -242.394741 
L 226.017197 -242.394741 
L 224.218774 -242.394741 
L 222.420352 -242.394741 
L 220.621929 -242.394741 
L 218.823506 -242.394741 
L 217.025083 -242.394741 
L 215.22666 -242.394741 
L 213.428237 -242.394741 
L 211.629814 -242.394741 
L 209.831391 -242.394741 
L 208.032968 -242.394741 
L 206.234545 -242.394741 
L 204.436122 -242.394741 
L 202.637699 -242.394741 
L 200.839276 -242.394741 
L 199.040853 -242.394741 
L 197.24243 -242.394741 
L 195.444007 -242.394741 
L 193.645584 -242.394741 
L 191.847161 -242.394741 
L 190.048739 -242.394741 
L 188.250316 -242.394741 
L 186.451893 -242.394741 
L 184.65347 -242.394741 
L 182.855047 -242.394741 
L 181.056624 -242.394741 
L 179.258201 -242.394741 
L 177.459778 -242.394741 
L 175.661355 -242.394741 
L 173.862932 -242.394741 
L 172.064509 -242.394741 
L 170.266086 -242.394741 
L 168.467663 -242.394741 
L 166.66924 -242.394741 
L 164.870817 -242.394741 
L 163.072394 -242.394741 
L 161.273971 -242.394741 
L 159.475548 -242.394741 
L 157.677126 -242.394741 
L 155.878703 -242.394741 
L 154.08028 -242.394741 
L 152.281857 -242.394741 
L 150.483434 -242.394741 
L 148.685011 -242.394741 
L 146.886588 -242.394741 
L 145.088165 -242.394741 
L 143.289742 -242.394741 
z
" id="m9019cbebed" style="stroke:#595959;"/>
    </defs>
    <g clip-path="url(#p791b2abcbd)">
     <use style="fill:#e99675;stroke:#595959;" x="0" xlink:href="#m9019cbebed" y="439.2"/>
    </g>
   </g>
   <g id="PolyCollection_3">
    <defs>
     <path d="M 99.204378 -127.49379 
L 99.204378 -128.301129 
L 102.177927 -128.850063 
L 105.151475 -129.601897 
L 108.125024 -130.525639 
L 111.098573 -131.528665 
L 114.072121 -132.463732 
L 117.04567 -133.162585 
L 120.019219 -133.488592 
L 122.992767 -133.388463 
L 125.966316 -132.92003 
L 128.939864 -132.242591 
L 131.913413 -131.573241 
L 134.886962 -131.126552 
L 137.86051 -131.059036 
L 140.834059 -131.434331 
L 143.807608 -132.216082 
L 146.781156 -133.287776 
L 149.754705 -134.492931 
L 152.728253 -135.683966 
L 155.701802 -136.764917 
L 158.675351 -137.715483 
L 161.648899 -138.592218 
L 164.622448 -139.512217 
L 167.595997 -140.627971 
L 170.569545 -142.097212 
L 173.543094 -144.045069 
L 176.516642 -146.516975 
L 179.490191 -149.432407 
L 182.46374 -152.563713 
L 185.437288 -155.567377 
L 188.410837 -158.0785 
L 191.384386 -159.846812 
L 194.357934 -160.860511 
L 197.331483 -161.392669 
L 200.305031 -161.926234 
L 203.27858 -162.963846 
L 206.252129 -164.787376 
L 209.225677 -167.270691 
L 212.199226 -169.843635 
L 215.172775 -171.649167 
L 218.146323 -171.848516 
L 221.119872 -169.952505 
L 224.093421 -166.034774 
L 227.066969 -160.732601 
L 230.040518 -155.039286 
L 233.014066 -149.984212 
L 235.987615 -146.334047 
L 238.961164 -144.418829 
L 241.934712 -144.117898 
L 244.908261 -144.975409 
L 247.88181 -146.381488 
L 250.855358 -147.754682 
L 253.828907 -148.679354 
L 256.802455 -148.973109 
L 259.776004 -148.678116 
L 262.749553 -147.987285 
L 265.723101 -147.132662 
L 268.69665 -146.27593 
L 271.670199 -145.4424 
L 274.643747 -144.524843 
L 277.617296 -143.353928 
L 280.590844 -141.800632 
L 283.564393 -139.860351 
L 286.537942 -137.679095 
L 289.51149 -135.513473 
L 292.485039 -133.648488 
L 295.458588 -132.311749 
L 298.432136 -131.614734 
L 301.405685 -131.532421 
L 304.379233 -131.917089 
L 307.352782 -132.537014 
L 310.326331 -133.131629 
L 313.299879 -133.473487 
L 316.273428 -133.422441 
L 319.246977 -132.954658 
L 322.220525 -132.155258 
L 325.194074 -131.177884 
L 328.167622 -130.189076 
L 331.141171 -129.320521 
L 334.11472 -128.645344 
L 337.088268 -128.181136 
L 340.061817 -127.910978 
L 343.035366 -127.809504 
L 346.008914 -127.863323 
L 348.982463 -128.079831 
L 351.956011 -128.482454 
L 354.92956 -129.093316 
L 357.903109 -129.907931 
L 360.876657 -130.87117 
L 363.850206 -131.867186 
L 366.823755 -132.733897 
L 369.797303 -133.302945 
L 372.770852 -133.452199 
L 375.7444 -133.148246 
L 378.717949 -132.458502 
L 381.691498 -131.526899 
L 384.665046 -130.525087 
L 387.638595 -129.601737 
L 390.612144 -128.850021 
L 393.585692 -128.301118 
L 393.585692 -127.49379 
L 393.585692 -127.49379 
L 390.612144 -127.49379 
L 387.638595 -127.49379 
L 384.665046 -127.49379 
L 381.691498 -127.49379 
L 378.717949 -127.49379 
L 375.7444 -127.49379 
L 372.770852 -127.49379 
L 369.797303 -127.49379 
L 366.823755 -127.49379 
L 363.850206 -127.49379 
L 360.876657 -127.49379 
L 357.903109 -127.49379 
L 354.92956 -127.49379 
L 351.956011 -127.49379 
L 348.982463 -127.49379 
L 346.008914 -127.49379 
L 343.035366 -127.49379 
L 340.061817 -127.49379 
L 337.088268 -127.49379 
L 334.11472 -127.49379 
L 331.141171 -127.49379 
L 328.167622 -127.49379 
L 325.194074 -127.49379 
L 322.220525 -127.49379 
L 319.246977 -127.49379 
L 316.273428 -127.49379 
L 313.299879 -127.49379 
L 310.326331 -127.49379 
L 307.352782 -127.49379 
L 304.379233 -127.49379 
L 301.405685 -127.49379 
L 298.432136 -127.49379 
L 295.458588 -127.49379 
L 292.485039 -127.49379 
L 289.51149 -127.49379 
L 286.537942 -127.49379 
L 283.564393 -127.49379 
L 280.590844 -127.49379 
L 277.617296 -127.49379 
L 274.643747 -127.49379 
L 271.670199 -127.49379 
L 268.69665 -127.49379 
L 265.723101 -127.49379 
L 262.749553 -127.49379 
L 259.776004 -127.49379 
L 256.802455 -127.49379 
L 253.828907 -127.49379 
L 250.855358 -127.49379 
L 247.88181 -127.49379 
L 244.908261 -127.49379 
L 241.934712 -127.49379 
L 238.961164 -127.49379 
L 235.987615 -127.49379 
L 233.014066 -127.49379 
L 230.040518 -127.49379 
L 227.066969 -127.49379 
L 224.093421 -127.49379 
L 221.119872 -127.49379 
L 218.146323 -127.49379 
L 215.172775 -127.49379 
L 212.199226 -127.49379 
L 209.225677 -127.49379 
L 206.252129 -127.49379 
L 203.27858 -127.49379 
L 200.305031 -127.49379 
L 197.331483 -127.49379 
L 194.357934 -127.49379 
L 191.384386 -127.49379 
L 188.410837 -127.49379 
L 185.437288 -127.49379 
L 182.46374 -127.49379 
L 179.490191 -127.49379 
L 176.516642 -127.49379 
L 173.543094 -127.49379 
L 170.569545 -127.49379 
L 167.595997 -127.49379 
L 164.622448 -127.49379 
L 161.648899 -127.49379 
L 158.675351 -127.49379 
L 155.701802 -127.49379 
L 152.728253 -127.49379 
L 149.754705 -127.49379 
L 146.781156 -127.49379 
L 143.807608 -127.49379 
L 140.834059 -127.49379 
L 137.86051 -127.49379 
L 134.886962 -127.49379 
L 131.913413 -127.49379 
L 128.939864 -127.49379 
L 125.966316 -127.49379 
L 122.992767 -127.49379 
L 120.019219 -127.49379 
L 117.04567 -127.49379 
L 114.072121 -127.49379 
L 111.098573 -127.49379 
L 108.125024 -127.49379 
L 105.151475 -127.49379 
L 102.177927 -127.49379 
L 99.204378 -127.49379 
z
" id="m3eaf198f57" style="stroke:#595959;"/>
    </defs>
    <g clip-path="url(#p791b2abcbd)">
     <use style="fill:#95a3c3;stroke:#595959;" x="0" xlink:href="#m3eaf198f57" y="439.2"/>
    </g>
   </g>
   <g id="PathCollection_4">
    <defs>
     <path d="M 0 3.383948 
C 0.897434 3.383948 1.758231 3.027394 2.392813 2.392813 
C 3.027394 1.758231 3.383948 0.897434 3.383948 -0 
C 3.383948 -0.897434 3.027394 -1.758231 2.392813 -2.392813 
C 1.758231 -3.027394 0.897434 -3.383948 0 -3.383948 
C -0.897434 -3.383948 -1.758231 -3.027394 -2.392813 -2.392813 
C -3.027394 -1.758231 -3.383948 -0.897434 -3.383948 0 
C -3.383948 0.897434 -3.027394 1.758231 -2.392813 2.392813 
C -1.758231 3.027394 -0.897434 3.383948 0 3.383948 
z
" id="C3_0_60bc16ecb2"/>
    </defs>
    <g clip-path="url(#p791b2abcbd)">
     <use style="fill:#ff0000;stroke:#ff0000;stroke-width:2.025;" x="195.721283" xlink:href="#C3_0_60bc16ecb2" y="104.884499"/>
    </g>
    <g clip-path="url(#p791b2abcbd)">
     <use style="fill:#ff0000;stroke:#ff0000;stroke-width:2.025;" x="221.807482" xlink:href="#C3_0_60bc16ecb2" y="219.785449"/>
    </g>
    <g clip-path="url(#p791b2abcbd)">
     <use style="fill:#ff0000;stroke:#ff0000;stroke-width:2.025;" x="224.773148" xlink:href="#C3_0_60bc16ecb2" y="334.6864"/>
    </g>
   </g>
   <g id="matplotlib.axis_1">
    <g id="xtick_1">
     <g id="line2d_1">
      <defs>
       <path d="M 0 0 
L 0 -5 
" id="m6378ae26a0" style="stroke:#000000;"/>
      </defs>
      <g>
       <use style="stroke:#000000;" x="154.467234" xlink:href="#m6378ae26a0" y="392.136875"/>
      </g>
     </g>
     <g id="text_1">
      <text style="font-family:DejaVu Sans;font-size:12px;font-stretch:normal;font-style:normal;font-weight:normal;text-anchor:middle;" transform="rotate(-0, 154.467234, 404.755)" x="154.467234" y="404.755">20</text>
     </g>
    </g>
    <g id="xtick_2">
     <g id="line2d_2">
      <g>
       <use style="stroke:#000000;" x="243.352872" xlink:href="#m6378ae26a0" y="392.136875"/>
      </g>
     </g>
     <g id="text_2">
      <text style="font-family:DejaVu Sans;font-size:12px;font-stretch:normal;font-style:normal;font-weight:normal;text-anchor:middle;" transform="rotate(-0, 243.352872, 404.755)" x="243.352872" y="404.755">30</text>
     </g>
    </g>
    <g id="xtick_3">
     <g id="line2d_3">
      <g>
       <use style="stroke:#000000;" x="332.23851" xlink:href="#m6378ae26a0" y="392.136875"/>
      </g>
     </g>
     <g id="text_3">
      <text style="font-family:DejaVu Sans;font-size:12px;font-stretch:normal;font-style:normal;font-weight:normal;text-anchor:middle;" transform="rotate(-0, 332.23851, 404.755)" x="332.23851" y="404.755">40</text>
     </g>
    </g>
    <g id="xtick_4">
     <g id="line2d_4">
      <g>
       <use style="stroke:#000000;" x="421.124149" xlink:href="#m6378ae26a0" y="392.136875"/>
      </g>
     </g>
     <g id="text_4">
      <text style="font-family:DejaVu Sans;font-size:12px;font-stretch:normal;font-style:normal;font-weight:normal;text-anchor:middle;" transform="rotate(-0, 421.124149, 404.755)" x="421.124149" y="404.755">50</text>
     </g>
    </g>
    <g id="text_5">
     <text style="font-family:DejaVu Sans;font-size:14px;font-stretch:normal;font-style:normal;font-weight:normal;text-anchor:middle;" transform="rotate(-0, 290.642656, 421.888438)" x="290.642656" y="421.888438">VOT</text>
    </g>
   </g>
   <g id="matplotlib.axis_2">
    <g id="ytick_1">
     <g id="line2d_5">
      <defs>
       <path d="M 0 0 
L 5 0 
" id="mb23c49e2ed" style="stroke:#000000;"/>
      </defs>
      <g>
       <use style="stroke:#000000;" x="84.485313" xlink:href="#mb23c49e2ed" y="104.884499"/>
      </g>
     </g>
     <g id="text_6">
      <text style="font-family:DejaVu Sans;font-size:14px;font-stretch:normal;font-style:normal;font-weight:normal;text-anchor:end;" transform="rotate(-0, 80.985313, 110.203405)" x="80.985313" y="110.203405">Healthy</text>
     </g>
    </g>
    <g id="ytick_2">
     <g id="line2d_6">
      <g>
       <use style="stroke:#000000;" x="84.485313" xlink:href="#mb23c49e2ed" y="219.785449"/>
      </g>
     </g>
     <g id="text_7">
      <text style="font-family:DejaVu Sans;font-size:14px;font-stretch:normal;font-style:normal;font-weight:normal;text-anchor:end;" transform="rotate(-0, 80.985313, 225.104355)" x="80.985313" y="225.104355">Mild</text>
     </g>
    </g>
    <g id="ytick_3">
     <g id="line2d_7">
      <g>
       <use style="stroke:#000000;" x="84.485313" xlink:href="#mb23c49e2ed" y="334.6864"/>
      </g>
     </g>
     <g id="text_8">
      <text style="font-family:DejaVu Sans;font-size:14px;font-stretch:normal;font-style:normal;font-weight:normal;" transform="translate(14.4 333.230618)">Moderate</text>
      <text style="font-family:DejaVu Sans;font-size:14px;font-stretch:normal;font-style:normal;font-weight:normal;" transform="translate(29.071562 348.907556)">-severe</text>
     </g>
    </g>
   </g>
   <g id="line2d_8">
    <path clip-path="url(#p791b2abcbd)" d="M 137.861588 100.575713 
L 137.861588 109.193284 
" style="fill:none;stroke:#595959;stroke-linecap:square;stroke-width:1.5;"/>
   </g>
   <g id="line2d_9">
    <path clip-path="url(#p791b2abcbd)" d="M 280.066557 100.575713 
L 280.066557 109.193284 
" style="fill:none;stroke:#595959;stroke-linecap:square;stroke-width:1.5;"/>
   </g>
   <g id="line2d_10">
    <defs>
     <path d="M -0 3.535534 
L 2.12132 0 
L -0 -3.535534 
L -2.12132 -0 
z
" id="m5067b5f4f0" style="stroke:#595959;stroke-linejoin:miter;"/>
    </defs>
    <g clip-path="url(#p791b2abcbd)">
     <use style="fill:#595959;stroke:#595959;stroke-linejoin:miter;" x="370.139318" xlink:href="#m5067b5f4f0" y="104.884499"/>
    </g>
   </g>
   <g id="line2d_11">
    <path clip-path="url(#p791b2abcbd)" d="M 158.610629 215.476663 
L 158.610629 224.094235 
" style="fill:none;stroke:#595959;stroke-linecap:square;stroke-width:1.5;"/>
   </g>
   <g id="line2d_12">
    <path clip-path="url(#p791b2abcbd)" d="M 306.012726 215.476663 
L 306.012726 224.094235 
" style="fill:none;stroke:#595959;stroke-linecap:square;stroke-width:1.5;"/>
   </g>
   <g id="line2d_13"/>
   <g id="line2d_14">
    <path clip-path="url(#p791b2abcbd)" d="M 120.535465 330.377614 
L 120.535465 338.995185 
" style="fill:none;stroke:#595959;stroke-linecap:square;stroke-width:1.5;"/>
   </g>
   <g id="line2d_15">
    <path clip-path="url(#p791b2abcbd)" d="M 314.718802 330.377614 
L 314.718802 338.995185 
" style="fill:none;stroke:#595959;stroke-linecap:square;stroke-width:1.5;"/>
   </g>
   <g id="line2d_16">
    <g clip-path="url(#p791b2abcbd)">
     <use style="fill:#595959;stroke:#595959;stroke-linejoin:miter;" x="372.254605" xlink:href="#m5067b5f4f0" y="334.6864"/>
    </g>
   </g>
   <g id="line2d_17">
    <path clip-path="url(#p791b2abcbd)" d="M 195.721283 104.884499 
L 221.807482 219.785449 
L 224.773148 334.6864 
" style="fill:none;stroke:#ff0000;stroke-linecap:square;stroke-width:2.7;"/>
   </g>
   <g id="line2d_18">
    <path clip-path="url(#p791b2abcbd)" d="M 186.543183 104.884499 
L 206.195063 104.884499 
" style="fill:none;"/>
   </g>
   <g id="line2d_19">
    <path clip-path="url(#p791b2abcbd)" d="M 186.543183 104.884499 
L 186.543183 104.884499 
" style="fill:none;"/>
   </g>
   <g id="line2d_20">
    <path clip-path="url(#p791b2abcbd)" d="M 206.195063 104.884499 
L 206.195063 104.884499 
" style="fill:none;"/>
   </g>
   <g id="line2d_21">
    <path clip-path="url(#p791b2abcbd)" d="M 209.777711 219.785449 
L 234.923957 219.785449 
" style="fill:none;"/>
   </g>
   <g id="line2d_22">
    <path clip-path="url(#p791b2abcbd)" d="M 209.777711 219.785449 
L 209.777711 219.785449 
" style="fill:none;"/>
   </g>
   <g id="line2d_23">
    <path clip-path="url(#p791b2abcbd)" d="M 234.923957 219.785449 
L 234.923957 219.785449 
" style="fill:none;"/>
   </g>
   <g id="line2d_24">
    <path clip-path="url(#p791b2abcbd)" d="M 204.682911 334.6864 
L 246.464712 334.6864 
" style="fill:none;"/>
   </g>
   <g id="line2d_25">
    <path clip-path="url(#p791b2abcbd)" d="M 204.682911 334.6864 
L 204.682911 334.6864 
" style="fill:none;"/>
   </g>
   <g id="line2d_26">
    <path clip-path="url(#p791b2abcbd)" d="M 246.464712 334.6864 
L 246.464712 334.6864 
" style="fill:none;"/>
   </g>
   <g id="line2d_27">
    <path clip-path="url(#p791b2abcbd)" d="M 391.641062 104.884499 
L 398.117451 104.884499 
L 398.117451 219.785449 
L 391.641062 219.785449 
" style="fill:none;stroke:#333333;stroke-linecap:square;stroke-width:1.5;"/>
   </g>
   <g id="line2d_28">
    <path clip-path="url(#p791b2abcbd)" d="M 423.606464 219.785449 
L 430.082853 219.785449 
L 430.082853 334.6864 
L 423.606464 334.6864 
" style="fill:none;stroke:#333333;stroke-linecap:square;stroke-width:1.5;"/>
   </g>
   <g id="line2d_29">
    <path clip-path="url(#p791b2abcbd)" d="M 458.613541 104.884499 
L 465.08993 104.884499 
L 465.08993 334.6864 
L 458.613541 334.6864 
" style="fill:none;stroke:#333333;stroke-linecap:square;stroke-width:1.5;"/>
   </g>
   <g id="line2d_30">
    <path clip-path="url(#p791b2abcbd)" d="M 187.12783 96.266927 
L 187.12783 113.50207 
" style="fill:none;stroke:#595959;stroke-linecap:square;stroke-width:1.5;"/>
   </g>
   <g id="line2d_31">
    <path clip-path="url(#p791b2abcbd)" d="M 221.876937 211.167878 
L 221.876937 228.40302 
" style="fill:none;stroke:#595959;stroke-linecap:square;stroke-width:1.5;"/>
   </g>
   <g id="line2d_32">
    <path clip-path="url(#p791b2abcbd)" d="M 218.885729 326.068828 
L 218.885729 343.303971 
" style="fill:none;stroke:#595959;stroke-linecap:square;stroke-width:1.5;"/>
   </g>
   <g id="patch_3">
    <path d="M 84.485313 392.136875 
L 84.485313 14.4 
" style="fill:none;stroke:#000000;stroke-linecap:square;stroke-linejoin:miter;"/>
   </g>
   <g id="patch_4">
    <path d="M 496.8 392.136875 
L 496.8 14.4 
" style="fill:none;stroke:#000000;stroke-linecap:square;stroke-linejoin:miter;"/>
   </g>
   <g id="patch_5">
    <path d="M 84.485313 392.136875 
L 496.8 392.136875 
" style="fill:none;stroke:#000000;stroke-linecap:square;stroke-linejoin:miter;"/>
   </g>
   <g id="patch_6">
    <path d="M 84.485313 14.4 
L 496.8 14.4 
" style="fill:none;stroke:#000000;stroke-linecap:square;stroke-linejoin:miter;"/>
   </g>
   <g id="text_9">
    <text style="font-family:DejaVu Sans;font-size:16px;font-stretch:normal;font-style:normal;font-weight:normal;text-anchor:middle;" transform="rotate(-270, 402.444951, 162.334974)" x="402.444951" y="162.334974">**</text>
   </g>
   <g id="text_10">
    <text style="font-family:DejaVu Sans;font-size:16px;font-stretch:normal;font-style:normal;font-weight:normal;text-anchor:middle;" transform="rotate(-270, 434.410353, 277.235924)" x="434.410353" y="277.235924">ns</text>
   </g>
   <g id="text_11">
    <text style="font-family:DejaVu Sans;font-size:16px;font-stretch:normal;font-style:normal;font-weight:normal;text-anchor:middle;" transform="rotate(-270, 469.41743, 219.785449)" x="469.41743" y="219.785449">**</text>
   </g>
   <g id="line2d_33">
    <path clip-path="url(#p791b2abcbd)" d="M 168.225112 104.884499 
L 137.861588 104.884499 
" style="fill:none;stroke:#595959;stroke-linecap:square;stroke-width:2;"/>
   </g>
   <g id="line2d_34">
    <path clip-path="url(#p791b2abcbd)" d="M 214.716096 104.884499 
L 280.066557 104.884499 
" style="fill:none;stroke:#595959;stroke-linecap:square;stroke-width:2;"/>
   </g>
   <g id="line2d_35">
    <path clip-path="url(#p791b2abcbd)" d="M 196.450761 219.785449 
L 158.610629 219.785449 
" style="fill:none;stroke:#595959;stroke-linecap:square;stroke-width:2;"/>
   </g>
   <g id="line2d_36">
    <path clip-path="url(#p791b2abcbd)" d="M 240.401722 219.785449 
L 306.012726 219.785449 
" style="fill:none;stroke:#595959;stroke-linecap:square;stroke-width:2;"/>
   </g>
   <g id="line2d_37">
    <path clip-path="url(#p791b2abcbd)" d="M 192.455219 334.6864 
L 120.535465 334.6864 
" style="fill:none;stroke:#595959;stroke-linecap:square;stroke-width:2;"/>
   </g>
   <g id="line2d_38">
    <path clip-path="url(#p791b2abcbd)" d="M 253.961254 334.6864 
L 314.718802 334.6864 
" style="fill:none;stroke:#595959;stroke-linecap:square;stroke-width:2;"/>
   </g>
   <g id="patch_7">
    <path clip-path="url(#p791b2abcbd)" d="M 168.225112 96.266927 
L 168.225112 113.50207 
L 214.716096 113.50207 
L 214.716096 96.266927 
L 168.225112 96.266927 
z
" style="fill:none;stroke:#595959;stroke-linejoin:miter;stroke-width:1.5;"/>
   </g>
   <g id="patch_8">
    <path clip-path="url(#p791b2abcbd)" d="M 196.450761 211.167878 
L 196.450761 228.40302 
L 240.401722 228.40302 
L 240.401722 211.167878 
L 196.450761 211.167878 
z
" style="fill:none;stroke:#595959;stroke-linejoin:miter;stroke-width:1.5;"/>
   </g>
   <g id="patch_9">
    <path clip-path="url(#p791b2abcbd)" d="M 192.455219 326.068828 
L 192.455219 343.303971 
L 253.961254 343.303971 
L 253.961254 326.068828 
L 192.455219 326.068828 
z
" style="fill:none;stroke:#595959;stroke-linejoin:miter;stroke-width:1.5;"/>
   </g>
  </g>
 </g>
 <defs>
  <clipPath id="p791b2abcbd">
   <rect height="377.736875" width="412.314687" x="84.485313" y="14.4"/>
  </clipPath>
 </defs>
</svg>
