<?xml version="1.0" encoding="utf-8" standalone="no"?>
<!DOCTYPE svg PUBLIC "-//W3C//DTD SVG 1.1//EN"
  "http://www.w3.org/Graphics/SVG/1.1/DTD/svg11.dtd">
<!-- Created with matplotlib (https://matplotlib.org/) -->
<svg height="439.2pt" version="1.1" viewBox="0 0 511.2 439.2" width="511.2pt" xmlns="http://www.w3.org/2000/svg" xmlns:xlink="http://www.w3.org/1999/xlink">
 <metadata>
  <rdf:RDF xmlns:cc="http://creativecommons.org/ns#" xmlns:dc="http://purl.org/dc/elements/1.1/" xmlns:rdf="http://www.w3.org/1999/02/22-rdf-syntax-ns#">
   <cc:Work>
    <dc:type rdf:resource="http://purl.org/dc/dcmitype/StillImage"/>
    <dc:date>2022-06-23T15:48:18.566839</dc:date>
    <dc:format>image/svg+xml</dc:format>
    <dc:creator>
     <cc:Agent>
      <dc:title>Matplotlib v3.3.3, https://matplotlib.org/</dc:title>
     </cc:Agent>
    </dc:creator>
   </cc:Work>
  </rdf:RDF>
 </metadata>
 <defs>
  <style type="text/css">*{stroke-linecap:butt;stroke-linejoin:round;}</style>
 </defs>
 <g id="figure_1">
  <g id="patch_1">
   <path d="M 0 439.2 
L 511.2 439.2 
L 511.2 0 
L 0 0 
z
" style="fill:#ffffff;"/>
  </g>
  <g id="axes_1">
   <g id="patch_2">
    <path d="M 84.485313 392.136875 
L 496.8 392.136875 
L 496.8 14.4 
L 84.485313 14.4 
z
" style="fill:#ffffff;"/>
   </g>
   <g id="PathCollection_1">
    <defs>
     <path d="M 0 2 
C 0.530406 2 1.03916 1.789267 1.414214 1.414214 
C 1.789267 1.03916 2 0.530406 2 -0 
C 2 -0.530406 1.789267 -1.03916 1.414214 -1.414214 
C 1.03916 -1.789267 0.530406 -2 0 -2 
C -0.530406 -2 -1.03916 -1.789267 -1.414214 -1.414214 
C -1.789267 -1.03916 -2 -0.530406 -2 0 
C -2 0.530406 -1.789267 1.03916 -1.414214 1.414214 
C -1.03916 1.789267 -0.530406 2 0 2 
z
" id="C0_0_2a9b05f1ef"/>
    </defs>
    <g clip-path="url(#p1078a357c1)">
     <use style="fill:#66c2a5;" x="120.406079" xlink:href="#C0_0_2a9b05f1ef" y="112.101961"/>
    </g>
    <g clip-path="url(#p1078a357c1)">
     <use style="fill:#66c2a5;" x="147.076097" xlink:href="#C0_0_2a9b05f1ef" y="108.249474"/>
    </g>
    <g clip-path="url(#p1078a357c1)">
     <use style="fill:#66c2a5;" x="120.005147" xlink:href="#C0_0_2a9b05f1ef" y="103.484869"/>
    </g>
    <g clip-path="url(#p1078a357c1)">
     <use style="fill:#66c2a5;" x="126.614541" xlink:href="#C0_0_2a9b05f1ef" y="110.190888"/>
    </g>
    <g clip-path="url(#p1078a357c1)">
     <use style="fill:#66c2a5;" x="161.900137" xlink:href="#C0_0_2a9b05f1ef" y="101.682865"/>
    </g>
    <g clip-path="url(#p1078a357c1)">
     <use style="fill:#66c2a5;" x="162.253982" xlink:href="#C0_0_2a9b05f1ef" y="107.614877"/>
    </g>
    <g clip-path="url(#p1078a357c1)">
     <use style="fill:#66c2a5;" x="127.342826" xlink:href="#C0_0_2a9b05f1ef" y="111.386949"/>
    </g>
    <g clip-path="url(#p1078a357c1)">
     <use style="fill:#66c2a5;" x="131.067049" xlink:href="#C0_0_2a9b05f1ef" y="115.953774"/>
    </g>
    <g clip-path="url(#p1078a357c1)">
     <use style="fill:#66c2a5;" x="130.779253" xlink:href="#C0_0_2a9b05f1ef" y="108.640216"/>
    </g>
    <g clip-path="url(#p1078a357c1)">
     <use style="fill:#66c2a5;" x="135.772223" xlink:href="#C0_0_2a9b05f1ef" y="115.188138"/>
    </g>
    <g clip-path="url(#p1078a357c1)">
     <use style="fill:#66c2a5;" x="123.499151" xlink:href="#C0_0_2a9b05f1ef" y="110.539921"/>
    </g>
    <g clip-path="url(#p1078a357c1)">
     <use style="fill:#66c2a5;" x="119.062597" xlink:href="#C0_0_2a9b05f1ef" y="112.705994"/>
    </g>
    <g clip-path="url(#p1078a357c1)">
     <use style="fill:#66c2a5;" x="124.308477" xlink:href="#C0_0_2a9b05f1ef" y="115.221467"/>
    </g>
    <g clip-path="url(#p1078a357c1)">
     <use style="fill:#66c2a5;" x="142.291526" xlink:href="#C0_0_2a9b05f1ef" y="105.307382"/>
    </g>
    <g clip-path="url(#p1078a357c1)">
     <use style="fill:#66c2a5;" x="138.079" xlink:href="#C0_0_2a9b05f1ef" y="111.797673"/>
    </g>
    <g clip-path="url(#p1078a357c1)">
     <use style="fill:#66c2a5;" x="218.821588" xlink:href="#C0_0_2a9b05f1ef" y="102.452556"/>
    </g>
    <g clip-path="url(#p1078a357c1)">
     <use style="fill:#66c2a5;" x="137.054561" xlink:href="#C0_0_2a9b05f1ef" y="94.731917"/>
    </g>
    <g clip-path="url(#p1078a357c1)">
     <use style="fill:#66c2a5;" x="148.271911" xlink:href="#C0_0_2a9b05f1ef" y="109.949447"/>
    </g>
    <g clip-path="url(#p1078a357c1)">
     <use style="fill:#66c2a5;" x="126.539413" xlink:href="#C0_0_2a9b05f1ef" y="109.058406"/>
    </g>
    <g clip-path="url(#p1078a357c1)">
     <use style="fill:#66c2a5;" x="131.005504" xlink:href="#C0_0_2a9b05f1ef" y="95.837911"/>
    </g>
    <g clip-path="url(#p1078a357c1)">
     <use style="fill:#66c2a5;" x="117.990576" xlink:href="#C0_0_2a9b05f1ef" y="104.668044"/>
    </g>
    <g clip-path="url(#p1078a357c1)">
     <use style="fill:#66c2a5;" x="118.670822" xlink:href="#C0_0_2a9b05f1ef" y="103.041339"/>
    </g>
    <g clip-path="url(#p1078a357c1)">
     <use style="fill:#66c2a5;" x="126.219899" xlink:href="#C0_0_2a9b05f1ef" y="109.14319"/>
    </g>
    <g clip-path="url(#p1078a357c1)">
     <use style="fill:#66c2a5;" x="142.777419" xlink:href="#C0_0_2a9b05f1ef" y="93.555216"/>
    </g>
    <g clip-path="url(#p1078a357c1)">
     <use style="fill:#66c2a5;" x="187.441886" xlink:href="#C0_0_2a9b05f1ef" y="108.932066"/>
    </g>
    <g clip-path="url(#p1078a357c1)">
     <use style="fill:#66c2a5;" x="298.778745" xlink:href="#C0_0_2a9b05f1ef" y="116.033247"/>
    </g>
    <g clip-path="url(#p1078a357c1)">
     <use style="fill:#66c2a5;" x="130.899544" xlink:href="#C0_0_2a9b05f1ef" y="102.952273"/>
    </g>
    <g clip-path="url(#p1078a357c1)">
     <use style="fill:#66c2a5;" x="127.936863" xlink:href="#C0_0_2a9b05f1ef" y="95.930483"/>
    </g>
    <g clip-path="url(#p1078a357c1)">
     <use style="fill:#66c2a5;" x="129.603652" xlink:href="#C0_0_2a9b05f1ef" y="113.597993"/>
    </g>
    <g clip-path="url(#p1078a357c1)">
     <use style="fill:#66c2a5;" x="142.812264" xlink:href="#C0_0_2a9b05f1ef" y="110.380953"/>
    </g>
    <g clip-path="url(#p1078a357c1)">
     <use style="fill:#66c2a5;" x="125.936272" xlink:href="#C0_0_2a9b05f1ef" y="113.861672"/>
    </g>
    <g clip-path="url(#p1078a357c1)">
     <use style="fill:#66c2a5;" x="131.672302" xlink:href="#C0_0_2a9b05f1ef" y="111.068312"/>
    </g>
    <g clip-path="url(#p1078a357c1)">
     <use style="fill:#66c2a5;" x="129.747749" xlink:href="#C0_0_2a9b05f1ef" y="105.799376"/>
    </g>
    <g clip-path="url(#p1078a357c1)">
     <use style="fill:#66c2a5;" x="168.513899" xlink:href="#C0_0_2a9b05f1ef" y="114.266333"/>
    </g>
    <g clip-path="url(#p1078a357c1)">
     <use style="fill:#66c2a5;" x="139.089988" xlink:href="#C0_0_2a9b05f1ef" y="99.799377"/>
    </g>
    <g clip-path="url(#p1078a357c1)">
     <use style="fill:#66c2a5;" x="125.665788" xlink:href="#C0_0_2a9b05f1ef" y="114.102456"/>
    </g>
    <g clip-path="url(#p1078a357c1)">
     <use style="fill:#66c2a5;" x="153.815973" xlink:href="#C0_0_2a9b05f1ef" y="112.362792"/>
    </g>
    <g clip-path="url(#p1078a357c1)">
     <use style="fill:#66c2a5;" x="123.021192" xlink:href="#C0_0_2a9b05f1ef" y="102.997692"/>
    </g>
    <g clip-path="url(#p1078a357c1)">
     <use style="fill:#66c2a5;" x="133.773161" xlink:href="#C0_0_2a9b05f1ef" y="100.932613"/>
    </g>
    <g clip-path="url(#p1078a357c1)">
     <use style="fill:#66c2a5;" x="127.937248" xlink:href="#C0_0_2a9b05f1ef" y="99.599658"/>
    </g>
    <g clip-path="url(#p1078a357c1)">
     <use style="fill:#66c2a5;" x="131.606445" xlink:href="#C0_0_2a9b05f1ef" y="95.451537"/>
    </g>
    <g clip-path="url(#p1078a357c1)">
     <use style="fill:#66c2a5;" x="120.943471" xlink:href="#C0_0_2a9b05f1ef" y="103.62907"/>
    </g>
    <g clip-path="url(#p1078a357c1)">
     <use style="fill:#66c2a5;" x="124.775848" xlink:href="#C0_0_2a9b05f1ef" y="94.412061"/>
    </g>
    <g clip-path="url(#p1078a357c1)">
     <use style="fill:#66c2a5;" x="123.188978" xlink:href="#C0_0_2a9b05f1ef" y="111.712837"/>
    </g>
    <g clip-path="url(#p1078a357c1)">
     <use style="fill:#66c2a5;" x="151.815017" xlink:href="#C0_0_2a9b05f1ef" y="115.804965"/>
    </g>
    <g clip-path="url(#p1078a357c1)">
     <use style="fill:#66c2a5;" x="152.817338" xlink:href="#C0_0_2a9b05f1ef" y="111.619343"/>
    </g>
    <g clip-path="url(#p1078a357c1)">
     <use style="fill:#66c2a5;" x="127.226701" xlink:href="#C0_0_2a9b05f1ef" y="114.809974"/>
    </g>
    <g clip-path="url(#p1078a357c1)">
     <use style="fill:#66c2a5;" x="134.507308" xlink:href="#C0_0_2a9b05f1ef" y="94.668493"/>
    </g>
    <g clip-path="url(#p1078a357c1)">
     <use style="fill:#66c2a5;" x="149.863533" xlink:href="#C0_0_2a9b05f1ef" y="106.822921"/>
    </g>
    <g clip-path="url(#p1078a357c1)">
     <use style="fill:#66c2a5;" x="129.998993" xlink:href="#C0_0_2a9b05f1ef" y="97.360104"/>
    </g>
    <g clip-path="url(#p1078a357c1)">
     <use style="fill:#66c2a5;" x="124.773561" xlink:href="#C0_0_2a9b05f1ef" y="112.349219"/>
    </g>
    <g clip-path="url(#p1078a357c1)">
     <use style="fill:#66c2a5;" x="119.035006" xlink:href="#C0_0_2a9b05f1ef" y="104.420334"/>
    </g>
    <g clip-path="url(#p1078a357c1)">
     <use style="fill:#66c2a5;" x="122.503093" xlink:href="#C0_0_2a9b05f1ef" y="112.464065"/>
    </g>
    <g clip-path="url(#p1078a357c1)">
     <use style="fill:#66c2a5;" x="148.059073" xlink:href="#C0_0_2a9b05f1ef" y="110.534843"/>
    </g>
    <g clip-path="url(#p1078a357c1)">
     <use style="fill:#66c2a5;" x="122.283023" xlink:href="#C0_0_2a9b05f1ef" y="108.518165"/>
    </g>
    <g clip-path="url(#p1078a357c1)">
     <use style="fill:#66c2a5;" x="129.027591" xlink:href="#C0_0_2a9b05f1ef" y="100.210114"/>
    </g>
    <g clip-path="url(#p1078a357c1)">
     <use style="fill:#66c2a5;" x="167.251734" xlink:href="#C0_0_2a9b05f1ef" y="112.996869"/>
    </g>
    <g clip-path="url(#p1078a357c1)">
     <use style="fill:#66c2a5;" x="128.486929" xlink:href="#C0_0_2a9b05f1ef" y="96.577355"/>
    </g>
    <g clip-path="url(#p1078a357c1)">
     <use style="fill:#66c2a5;" x="128.606637" xlink:href="#C0_0_2a9b05f1ef" y="105.345205"/>
    </g>
    <g clip-path="url(#p1078a357c1)">
     <use style="fill:#66c2a5;" x="133.183228" xlink:href="#C0_0_2a9b05f1ef" y="108.57208"/>
    </g>
    <g clip-path="url(#p1078a357c1)">
     <use style="fill:#66c2a5;" x="137.893756" xlink:href="#C0_0_2a9b05f1ef" y="93.726819"/>
    </g>
    <g clip-path="url(#p1078a357c1)">
     <use style="fill:#66c2a5;" x="125.638879" xlink:href="#C0_0_2a9b05f1ef" y="112.744105"/>
    </g>
    <g clip-path="url(#p1078a357c1)">
     <use style="fill:#66c2a5;" x="131.28931" xlink:href="#C0_0_2a9b05f1ef" y="111.788324"/>
    </g>
    <g clip-path="url(#p1078a357c1)">
     <use style="fill:#66c2a5;" x="149.271618" xlink:href="#C0_0_2a9b05f1ef" y="102.924536"/>
    </g>
    <g clip-path="url(#p1078a357c1)">
     <use style="fill:#66c2a5;" x="135.839096" xlink:href="#C0_0_2a9b05f1ef" y="96.68352"/>
    </g>
   </g>
   <g id="PathCollection_2">
    <defs>
     <path d="M 0 2 
C 0.530406 2 1.03916 1.789267 1.414214 1.414214 
C 1.789267 1.03916 2 0.530406 2 -0 
C 2 -0.530406 1.789267 -1.03916 1.414214 -1.414214 
C 1.03916 -1.789267 0.530406 -2 0 -2 
C -0.530406 -2 -1.03916 -1.789267 -1.414214 -1.414214 
C -1.789267 -1.03916 -2 -0.530406 -2 0 
C -2 0.530406 -1.789267 1.03916 -1.414214 1.414214 
C -1.03916 1.789267 -0.530406 2 0 2 
z
" id="C1_0_1fdcac7e1e"/>
    </defs>
    <g clip-path="url(#p1078a357c1)">
     <use style="fill:#fc8d62;" x="124.423213" xlink:href="#C1_0_1fdcac7e1e" y="231.154027"/>
    </g>
    <g clip-path="url(#p1078a357c1)">
     <use style="fill:#fc8d62;" x="126.647785" xlink:href="#C1_0_1fdcac7e1e" y="223.473467"/>
    </g>
    <g clip-path="url(#p1078a357c1)">
     <use style="fill:#fc8d62;" x="129.237689" xlink:href="#C1_0_1fdcac7e1e" y="226.204716"/>
    </g>
    <g clip-path="url(#p1078a357c1)">
     <use style="fill:#fc8d62;" x="143.266362" xlink:href="#C1_0_1fdcac7e1e" y="229.484284"/>
    </g>
    <g clip-path="url(#p1078a357c1)">
     <use style="fill:#fc8d62;" x="141.24301" xlink:href="#C1_0_1fdcac7e1e" y="231.014734"/>
    </g>
    <g clip-path="url(#p1078a357c1)">
     <use style="fill:#fc8d62;" x="121.891249" xlink:href="#C1_0_1fdcac7e1e" y="208.838757"/>
    </g>
    <g clip-path="url(#p1078a357c1)">
     <use style="fill:#fc8d62;" x="128.247391" xlink:href="#C1_0_1fdcac7e1e" y="209.458359"/>
    </g>
    <g clip-path="url(#p1078a357c1)">
     <use style="fill:#fc8d62;" x="370.987967" xlink:href="#C1_0_1fdcac7e1e" y="210.391389"/>
    </g>
    <g clip-path="url(#p1078a357c1)">
     <use style="fill:#fc8d62;" x="122.561961" xlink:href="#C1_0_1fdcac7e1e" y="219.965598"/>
    </g>
    <g clip-path="url(#p1078a357c1)">
     <use style="fill:#fc8d62;" x="146.481284" xlink:href="#C1_0_1fdcac7e1e" y="212.361248"/>
    </g>
    <g clip-path="url(#p1078a357c1)">
     <use style="fill:#fc8d62;" x="169.134185" xlink:href="#C1_0_1fdcac7e1e" y="213.813293"/>
    </g>
    <g clip-path="url(#p1078a357c1)">
     <use style="fill:#fc8d62;" x="138.802212" xlink:href="#C1_0_1fdcac7e1e" y="218.08477"/>
    </g>
    <g clip-path="url(#p1078a357c1)">
     <use style="fill:#fc8d62;" x="126.588794" xlink:href="#C1_0_1fdcac7e1e" y="222.932089"/>
    </g>
    <g clip-path="url(#p1078a357c1)">
     <use style="fill:#fc8d62;" x="162.484463" xlink:href="#C1_0_1fdcac7e1e" y="216.822876"/>
    </g>
    <g clip-path="url(#p1078a357c1)">
     <use style="fill:#fc8d62;" x="155.237052" xlink:href="#C1_0_1fdcac7e1e" y="221.730498"/>
    </g>
    <g clip-path="url(#p1078a357c1)">
     <use style="fill:#fc8d62;" x="134.425958" xlink:href="#C1_0_1fdcac7e1e" y="227.410442"/>
    </g>
    <g clip-path="url(#p1078a357c1)">
     <use style="fill:#fc8d62;" x="203.934275" xlink:href="#C1_0_1fdcac7e1e" y="225.574512"/>
    </g>
    <g clip-path="url(#p1078a357c1)">
     <use style="fill:#fc8d62;" x="123.605217" xlink:href="#C1_0_1fdcac7e1e" y="228.813935"/>
    </g>
    <g clip-path="url(#p1078a357c1)">
     <use style="fill:#fc8d62;" x="145.398615" xlink:href="#C1_0_1fdcac7e1e" y="229.737256"/>
    </g>
    <g clip-path="url(#p1078a357c1)">
     <use style="fill:#fc8d62;" x="130.137629" xlink:href="#C1_0_1fdcac7e1e" y="228.681316"/>
    </g>
    <g clip-path="url(#p1078a357c1)">
     <use style="fill:#fc8d62;" x="124.328723" xlink:href="#C1_0_1fdcac7e1e" y="221.33692"/>
    </g>
    <g clip-path="url(#p1078a357c1)">
     <use style="fill:#fc8d62;" x="119.219805" xlink:href="#C1_0_1fdcac7e1e" y="229.301023"/>
    </g>
    <g clip-path="url(#p1078a357c1)">
     <use style="fill:#fc8d62;" x="132.025631" xlink:href="#C1_0_1fdcac7e1e" y="228.182087"/>
    </g>
    <g clip-path="url(#p1078a357c1)">
     <use style="fill:#fc8d62;" x="117.650843" xlink:href="#C1_0_1fdcac7e1e" y="230.305847"/>
    </g>
    <g clip-path="url(#p1078a357c1)">
     <use style="fill:#fc8d62;" x="121.887997" xlink:href="#C1_0_1fdcac7e1e" y="213.666913"/>
    </g>
    <g clip-path="url(#p1078a357c1)">
     <use style="fill:#fc8d62;" x="127.228424" xlink:href="#C1_0_1fdcac7e1e" y="229.742797"/>
    </g>
    <g clip-path="url(#p1078a357c1)">
     <use style="fill:#fc8d62;" x="138.201144" xlink:href="#C1_0_1fdcac7e1e" y="209.471292"/>
    </g>
    <g clip-path="url(#p1078a357c1)">
     <use style="fill:#fc8d62;" x="191.473119" xlink:href="#C1_0_1fdcac7e1e" y="229.709879"/>
    </g>
    <g clip-path="url(#p1078a357c1)">
     <use style="fill:#fc8d62;" x="126.783165" xlink:href="#C1_0_1fdcac7e1e" y="213.043938"/>
    </g>
    <g clip-path="url(#p1078a357c1)">
     <use style="fill:#fc8d62;" x="132.584316" xlink:href="#C1_0_1fdcac7e1e" y="209.899396"/>
    </g>
    <g clip-path="url(#p1078a357c1)">
     <use style="fill:#fc8d62;" x="118.344843" xlink:href="#C1_0_1fdcac7e1e" y="228.079937"/>
    </g>
    <g clip-path="url(#p1078a357c1)">
     <use style="fill:#fc8d62;" x="117.169263" xlink:href="#C1_0_1fdcac7e1e" y="221.525229"/>
    </g>
    <g clip-path="url(#p1078a357c1)">
     <use style="fill:#fc8d62;" x="147.08664" xlink:href="#C1_0_1fdcac7e1e" y="213.438761"/>
    </g>
   </g>
   <g id="PathCollection_3">
    <defs>
     <path d="M 0 2 
C 0.530406 2 1.03916 1.789267 1.414214 1.414214 
C 1.789267 1.03916 2 0.530406 2 -0 
C 2 -0.530406 1.789267 -1.03916 1.414214 -1.414214 
C 1.03916 -1.789267 0.530406 -2 0 -2 
C -0.530406 -2 -1.03916 -1.789267 -1.414214 -1.414214 
C -1.789267 -1.03916 -2 -0.530406 -2 0 
C -2 0.530406 -1.789267 1.03916 -1.414214 1.414214 
C -1.03916 1.789267 -0.530406 2 0 2 
z
" id="C2_0_dfb7465ff5"/>
    </defs>
    <g clip-path="url(#p1078a357c1)">
     <use style="fill:#8da0cb;" x="195.098759" xlink:href="#C2_0_dfb7465ff5" y="326.613704"/>
    </g>
    <g clip-path="url(#p1078a357c1)">
     <use style="fill:#8da0cb;" x="145.701622" xlink:href="#C2_0_dfb7465ff5" y="345.925331"/>
    </g>
    <g clip-path="url(#p1078a357c1)">
     <use style="fill:#8da0cb;" x="150.078704" xlink:href="#C2_0_dfb7465ff5" y="340.786211"/>
    </g>
    <g clip-path="url(#p1078a357c1)">
     <use style="fill:#8da0cb;" x="144.347422" xlink:href="#C2_0_dfb7465ff5" y="327.762115"/>
    </g>
    <g clip-path="url(#p1078a357c1)">
     <use style="fill:#8da0cb;" x="133.354032" xlink:href="#C2_0_dfb7465ff5" y="334.053787"/>
    </g>
    <g clip-path="url(#p1078a357c1)">
     <use style="fill:#8da0cb;" x="192.953279" xlink:href="#C2_0_dfb7465ff5" y="330.208915"/>
    </g>
    <g clip-path="url(#p1078a357c1)">
     <use style="fill:#8da0cb;" x="148.049142" xlink:href="#C2_0_dfb7465ff5" y="327.686387"/>
    </g>
    <g clip-path="url(#p1078a357c1)">
     <use style="fill:#8da0cb;" x="152.152906" xlink:href="#C2_0_dfb7465ff5" y="340.093101"/>
    </g>
    <g clip-path="url(#p1078a357c1)">
     <use style="fill:#8da0cb;" x="132.692295" xlink:href="#C2_0_dfb7465ff5" y="326.083542"/>
    </g>
    <g clip-path="url(#p1078a357c1)">
     <use style="fill:#8da0cb;" x="166.758448" xlink:href="#C2_0_dfb7465ff5" y="339.651517"/>
    </g>
    <g clip-path="url(#p1078a357c1)">
     <use style="fill:#8da0cb;" x="259.715279" xlink:href="#C2_0_dfb7465ff5" y="329.784315"/>
    </g>
    <g clip-path="url(#p1078a357c1)">
     <use style="fill:#8da0cb;" x="118.649783" xlink:href="#C2_0_dfb7465ff5" y="334.677839"/>
    </g>
    <g clip-path="url(#p1078a357c1)">
     <use style="fill:#8da0cb;" x="150.085346" xlink:href="#C2_0_dfb7465ff5" y="330.73057"/>
    </g>
    <g clip-path="url(#p1078a357c1)">
     <use style="fill:#8da0cb;" x="151.855987" xlink:href="#C2_0_dfb7465ff5" y="335.666725"/>
    </g>
    <g clip-path="url(#p1078a357c1)">
     <use style="fill:#8da0cb;" x="123.052609" xlink:href="#C2_0_dfb7465ff5" y="343.062428"/>
    </g>
    <g clip-path="url(#p1078a357c1)">
     <use style="fill:#8da0cb;" x="176.664346" xlink:href="#C2_0_dfb7465ff5" y="345.669301"/>
    </g>
    <g clip-path="url(#p1078a357c1)">
     <use style="fill:#8da0cb;" x="124.576313" xlink:href="#C2_0_dfb7465ff5" y="337.442023"/>
    </g>
    <g clip-path="url(#p1078a357c1)">
     <use style="fill:#8da0cb;" x="145.086423" xlink:href="#C2_0_dfb7465ff5" y="331.019211"/>
    </g>
    <g clip-path="url(#p1078a357c1)">
     <use style="fill:#8da0cb;" x="128.558689" xlink:href="#C2_0_dfb7465ff5" y="328.679397"/>
    </g>
    <g clip-path="url(#p1078a357c1)">
     <use style="fill:#8da0cb;" x="131.934019" xlink:href="#C2_0_dfb7465ff5" y="328.623489"/>
    </g>
    <g clip-path="url(#p1078a357c1)">
     <use style="fill:#8da0cb;" x="219.825226" xlink:href="#C2_0_dfb7465ff5" y="327.557906"/>
    </g>
    <g clip-path="url(#p1078a357c1)">
     <use style="fill:#8da0cb;" x="141.754994" xlink:href="#C2_0_dfb7465ff5" y="336.917789"/>
    </g>
    <g clip-path="url(#p1078a357c1)">
     <use style="fill:#8da0cb;" x="168.777483" xlink:href="#C2_0_dfb7465ff5" y="344.71105"/>
    </g>
    <g clip-path="url(#p1078a357c1)">
     <use style="fill:#8da0cb;" x="124.796444" xlink:href="#C2_0_dfb7465ff5" y="332.308482"/>
    </g>
   </g>
   <g id="PolyCollection_1">
    <defs>
     <path d="M 107.352661 -357.295692 
L 107.352661 -358.497715 
L 109.393712 -360.065149 
L 111.434762 -362.946773 
L 113.475813 -367.581083 
L 115.516863 -374.13756 
L 117.557914 -382.346618 
L 119.598964 -391.475747 
L 121.640015 -400.44865 
L 123.681065 -408.034692 
L 125.722116 -413.072891 
L 127.763166 -414.746167 
L 129.804217 -412.863357 
L 131.845267 -407.992283 
L 133.886318 -401.300692 
L 135.927368 -394.152348 
L 137.968419 -387.687452 
L 140.009469 -382.59286 
L 142.050519 -379.080223 
L 144.09157 -376.958752 
L 146.13262 -375.730882 
L 148.173671 -374.744497 
L 150.214721 -373.435597 
L 152.255772 -371.577804 
L 154.296822 -369.371522 
L 156.337873 -367.283163 
L 158.378923 -365.732303 
L 160.419974 -364.843379 
L 162.461024 -364.414646 
L 164.502075 -364.080942 
L 166.543125 -363.52705 
L 168.584176 -362.625083 
L 170.625226 -361.455295 
L 172.666277 -360.234172 
L 174.707327 -359.201231 
L 176.748378 -358.522805 
L 178.789428 -358.250107 
L 180.830479 -358.326005 
L 182.871529 -358.612079 
L 184.91258 -358.925236 
L 186.95363 -359.09319 
L 188.994681 -359.020864 
L 191.035731 -358.727613 
L 193.076782 -358.321998 
L 195.117832 -357.930711 
L 197.158883 -357.635178 
L 199.199933 -357.453936 
L 201.240984 -357.365474 
L 203.282034 -357.342235 
L 205.323085 -357.373863 
L 207.364135 -357.474067 
L 209.405186 -357.671358 
L 211.446236 -357.983536 
L 213.487287 -358.383518 
L 215.528337 -358.780648 
L 217.569388 -359.045224 
L 219.610438 -359.074711 
L 221.651489 -358.857004 
L 223.692539 -358.478322 
L 225.733589 -358.068833 
L 227.77464 -357.731925 
L 229.81569 -357.508128 
L 231.856741 -357.384979 
L 233.897791 -357.328081 
L 235.938842 -357.305832 
L 237.979892 -357.298432 
L 240.020943 -357.296331 
L 242.061993 -357.29582 
L 244.103044 -357.295714 
L 246.144094 -357.295695 
L 248.185145 -357.295692 
L 250.226195 -357.295692 
L 252.267246 -357.295692 
L 254.308296 -357.295692 
L 256.349347 -357.295692 
L 258.390397 -357.295692 
L 260.431448 -357.295692 
L 262.472498 -357.295692 
L 264.513549 -357.295692 
L 266.554599 -357.295692 
L 268.59565 -357.295692 
L 270.6367 -357.295693 
L 272.677751 -357.295702 
L 274.718801 -357.295756 
L 276.759852 -357.296033 
L 278.800902 -357.297246 
L 280.841953 -357.301795 
L 282.883003 -357.316373 
L 284.924054 -357.356176 
L 286.965104 -357.448364 
L 289.006155 -357.628297 
L 291.047205 -357.921075 
L 293.088256 -358.310571 
L 295.129306 -358.717146 
L 297.170357 -359.014001 
L 299.211407 -359.088443 
L 301.252458 -358.91001 
L 303.293508 -358.550301 
L 305.334559 -358.137238 
L 307.375609 -357.782881 
L 309.416659 -357.539118 
L 309.416659 -357.295692 
L 309.416659 -357.295692 
L 307.375609 -357.295692 
L 305.334559 -357.295692 
L 303.293508 -357.295692 
L 301.252458 -357.295692 
L 299.211407 -357.295692 
L 297.170357 -357.295692 
L 295.129306 -357.295692 
L 293.088256 -357.295692 
L 291.047205 -357.295692 
L 289.006155 -357.295692 
L 286.965104 -357.295692 
L 284.924054 -357.295692 
L 282.883003 -357.295692 
L 280.841953 -357.295692 
L 278.800902 -357.295692 
L 276.759852 -357.295692 
L 274.718801 -357.295692 
L 272.677751 -357.295692 
L 270.6367 -357.295692 
L 268.59565 -357.295692 
L 266.554599 -357.295692 
L 264.513549 -357.295692 
L 262.472498 -357.295692 
L 260.431448 -357.295692 
L 258.390397 -357.295692 
L 256.349347 -357.295692 
L 254.308296 -357.295692 
L 252.267246 -357.295692 
L 250.226195 -357.295692 
L 248.185145 -357.295692 
L 246.144094 -357.295692 
L 244.103044 -357.295692 
L 242.061993 -357.295692 
L 240.020943 -357.295692 
L 237.979892 -357.295692 
L 235.938842 -357.295692 
L 233.897791 -357.295692 
L 231.856741 -357.295692 
L 229.81569 -357.295692 
L 227.77464 -357.295692 
L 225.733589 -357.295692 
L 223.692539 -357.295692 
L 221.651489 -357.295692 
L 219.610438 -357.295692 
L 217.569388 -357.295692 
L 215.528337 -357.295692 
L 213.487287 -357.295692 
L 211.446236 -357.295692 
L 209.405186 -357.295692 
L 207.364135 -357.295692 
L 205.323085 -357.295692 
L 203.282034 -357.295692 
L 201.240984 -357.295692 
L 199.199933 -357.295692 
L 197.158883 -357.295692 
L 195.117832 -357.295692 
L 193.076782 -357.295692 
L 191.035731 -357.295692 
L 188.994681 -357.295692 
L 186.95363 -357.295692 
L 184.91258 -357.295692 
L 182.871529 -357.295692 
L 180.830479 -357.295692 
L 178.789428 -357.295692 
L 176.748378 -357.295692 
L 174.707327 -357.295692 
L 172.666277 -357.295692 
L 170.625226 -357.295692 
L 168.584176 -357.295692 
L 166.543125 -357.295692 
L 164.502075 -357.295692 
L 162.461024 -357.295692 
L 160.419974 -357.295692 
L 158.378923 -357.295692 
L 156.337873 -357.295692 
L 154.296822 -357.295692 
L 152.255772 -357.295692 
L 150.214721 -357.295692 
L 148.173671 -357.295692 
L 146.13262 -357.295692 
L 144.09157 -357.295692 
L 142.050519 -357.295692 
L 140.009469 -357.295692 
L 137.968419 -357.295692 
L 135.927368 -357.295692 
L 133.886318 -357.295692 
L 131.845267 -357.295692 
L 129.804217 -357.295692 
L 127.763166 -357.295692 
L 125.722116 -357.295692 
L 123.681065 -357.295692 
L 121.640015 -357.295692 
L 119.598964 -357.295692 
L 117.557914 -357.295692 
L 115.516863 -357.295692 
L 113.475813 -357.295692 
L 111.434762 -357.295692 
L 109.393712 -357.295692 
L 107.352661 -357.295692 
z
" id="m1663048103" style="stroke:#595959;"/>
    </defs>
    <g clip-path="url(#p1078a357c1)">
     <use style="fill:#72b6a1;stroke:#595959;" x="0" xlink:href="#m1663048103" y="439.2"/>
    </g>
   </g>
   <g id="PolyCollection_2">
    <defs>
     <path d="M 98.993795 -242.394741 
L 98.993795 -243.807714 
L 101.924801 -245.242951 
L 104.855808 -247.646407 
L 107.786814 -251.271295 
L 110.71782 -256.180664 
L 113.648827 -262.118586 
L 116.579833 -268.466136 
L 119.51084 -274.340367 
L 122.441846 -278.82996 
L 125.372853 -281.281062 
L 128.303859 -281.502667 
L 131.234866 -279.789676 
L 134.165872 -276.755579 
L 137.096879 -273.070096 
L 140.027885 -269.24227 
L 142.958892 -265.545574 
L 145.889898 -262.081792 
L 148.820905 -258.898073 
L 151.751911 -256.061666 
L 154.682918 -253.654259 
L 157.613924 -251.717583 
L 160.544931 -250.210999 
L 163.475937 -249.019627 
L 166.406943 -248.007706 
L 169.33795 -247.081765 
L 172.268956 -246.226873 
L 175.199963 -245.499018 
L 178.130969 -244.981741 
L 181.061976 -244.732285 
L 183.992982 -244.745237 
L 186.923989 -244.949914 
L 189.854995 -245.238113 
L 192.786002 -245.502475 
L 195.717008 -245.663386 
L 198.648015 -245.675361 
L 201.579021 -245.520981 
L 204.510028 -245.206352 
L 207.441034 -244.762787 
L 210.372041 -244.246834 
L 213.303047 -243.729391 
L 216.234054 -243.275165 
L 219.16506 -242.923795 
L 222.096067 -242.683316 
L 225.027073 -242.537271 
L 227.958079 -242.458381 
L 230.889086 -242.420401 
L 233.820092 -242.404077 
L 236.751099 -242.397805 
L 239.682105 -242.395648 
L 242.613112 -242.394983 
L 245.544118 -242.394799 
L 248.475125 -242.394754 
L 251.406131 -242.394743 
L 254.337138 -242.394741 
L 257.268144 -242.394741 
L 260.199151 -242.394741 
L 263.130157 -242.394741 
L 266.061164 -242.394741 
L 268.99217 -242.394741 
L 271.923177 -242.394741 
L 274.854183 -242.394741 
L 277.78519 -242.394741 
L 280.716196 -242.394741 
L 283.647202 -242.394741 
L 286.578209 -242.394741 
L 289.509215 -242.394741 
L 292.440222 -242.394741 
L 295.371228 -242.394741 
L 298.302235 -242.394741 
L 301.233241 -242.394741 
L 304.164248 -242.394741 
L 307.095254 -242.394741 
L 310.026261 -242.394741 
L 312.957267 -242.394741 
L 315.888274 -242.394741 
L 318.81928 -242.394741 
L 321.750287 -242.394742 
L 324.681293 -242.394746 
L 327.6123 -242.394764 
L 330.543306 -242.394845 
L 333.474313 -242.395155 
L 336.405319 -242.396227 
L 339.336325 -242.399556 
L 342.267332 -242.408797 
L 345.198338 -242.43172 
L 348.129345 -242.482414 
L 351.060351 -242.582067 
L 353.991358 -242.75545 
L 356.922364 -243.020691 
L 359.853371 -243.373659 
L 362.784377 -243.774417 
L 365.715384 -244.147136 
L 368.64639 -244.400648 
L 371.577397 -244.463995 
L 374.508403 -244.318457 
L 377.43941 -244.00647 
L 380.370416 -243.611676 
L 383.301423 -243.222811 
L 386.232429 -242.902539 
L 389.163436 -242.675374 
L 389.163436 -242.394741 
L 389.163436 -242.394741 
L 386.232429 -242.394741 
L 383.301423 -242.394741 
L 380.370416 -242.394741 
L 377.43941 -242.394741 
L 374.508403 -242.394741 
L 371.577397 -242.394741 
L 368.64639 -242.394741 
L 365.715384 -242.394741 
L 362.784377 -242.394741 
L 359.853371 -242.394741 
L 356.922364 -242.394741 
L 353.991358 -242.394741 
L 351.060351 -242.394741 
L 348.129345 -242.394741 
L 345.198338 -242.394741 
L 342.267332 -242.394741 
L 339.336325 -242.394741 
L 336.405319 -242.394741 
L 333.474313 -242.394741 
L 330.543306 -242.394741 
L 327.6123 -242.394741 
L 324.681293 -242.394741 
L 321.750287 -242.394741 
L 318.81928 -242.394741 
L 315.888274 -242.394741 
L 312.957267 -242.394741 
L 310.026261 -242.394741 
L 307.095254 -242.394741 
L 304.164248 -242.394741 
L 301.233241 -242.394741 
L 298.302235 -242.394741 
L 295.371228 -242.394741 
L 292.440222 -242.394741 
L 289.509215 -242.394741 
L 286.578209 -242.394741 
L 283.647202 -242.394741 
L 280.716196 -242.394741 
L 277.78519 -242.394741 
L 274.854183 -242.394741 
L 271.923177 -242.394741 
L 268.99217 -242.394741 
L 266.061164 -242.394741 
L 263.130157 -242.394741 
L 260.199151 -242.394741 
L 257.268144 -242.394741 
L 254.337138 -242.394741 
L 251.406131 -242.394741 
L 248.475125 -242.394741 
L 245.544118 -242.394741 
L 242.613112 -242.394741 
L 239.682105 -242.394741 
L 236.751099 -242.394741 
L 233.820092 -242.394741 
L 230.889086 -242.394741 
L 227.958079 -242.394741 
L 225.027073 -242.394741 
L 222.096067 -242.394741 
L 219.16506 -242.394741 
L 216.234054 -242.394741 
L 213.303047 -242.394741 
L 210.372041 -242.394741 
L 207.441034 -242.394741 
L 204.510028 -242.394741 
L 201.579021 -242.394741 
L 198.648015 -242.394741 
L 195.717008 -242.394741 
L 192.786002 -242.394741 
L 189.854995 -242.394741 
L 186.923989 -242.394741 
L 183.992982 -242.394741 
L 181.061976 -242.394741 
L 178.130969 -242.394741 
L 175.199963 -242.394741 
L 172.268956 -242.394741 
L 169.33795 -242.394741 
L 166.406943 -242.394741 
L 163.475937 -242.394741 
L 160.544931 -242.394741 
L 157.613924 -242.394741 
L 154.682918 -242.394741 
L 151.751911 -242.394741 
L 148.820905 -242.394741 
L 145.889898 -242.394741 
L 142.958892 -242.394741 
L 140.027885 -242.394741 
L 137.096879 -242.394741 
L 134.165872 -242.394741 
L 131.234866 -242.394741 
L 128.303859 -242.394741 
L 125.372853 -242.394741 
L 122.441846 -242.394741 
L 119.51084 -242.394741 
L 116.579833 -242.394741 
L 113.648827 -242.394741 
L 110.71782 -242.394741 
L 107.786814 -242.394741 
L 104.855808 -242.394741 
L 101.924801 -242.394741 
L 98.993795 -242.394741 
z
" id="mb7b8db845c" style="stroke:#595959;"/>
    </defs>
    <g clip-path="url(#p1078a357c1)">
     <use style="fill:#e99675;stroke:#595959;" x="0" xlink:href="#mb7b8db845c" y="439.2"/>
    </g>
   </g>
   <g id="PolyCollection_3">
    <defs>
     <path d="M 105.206923 -127.49379 
L 105.206923 -128.257021 
L 106.9034 -128.80842 
L 108.599877 -129.643263 
L 110.296354 -130.834647 
L 111.992831 -132.437256 
L 113.689308 -134.468732 
L 115.385785 -136.893545 
L 117.082262 -139.614978 
L 118.778739 -142.479481 
L 120.475216 -145.294394 
L 122.171693 -147.855919 
L 123.86817 -149.981265 
L 125.564646 -151.538562 
L 127.261123 -152.470192 
L 128.9576 -152.807592 
L 130.654077 -152.676026 
L 132.350554 -152.285812 
L 134.047031 -151.904664 
L 135.743508 -151.808137 
L 137.439985 -152.213146 
L 139.136462 -153.210351 
L 140.832939 -154.718189 
L 142.529416 -156.479066 
L 144.225893 -158.105997 
L 145.92237 -159.170792 
L 147.618847 -159.310242 
L 149.315323 -158.32025 
L 151.0118 -156.211218 
L 152.708277 -153.209323 
L 154.404754 -149.703636 
L 156.101231 -146.154147 
L 157.797708 -142.986408 
L 159.494185 -140.501639 
L 161.190662 -138.825488 
L 162.887139 -137.906035 
L 164.583616 -137.556153 
L 166.280093 -137.522446 
L 167.97657 -137.557115 
L 169.673047 -137.471976 
L 171.369524 -137.163827 
L 173.066 -136.612621 
L 174.762477 -135.86287 
L 176.458954 -135.000776 
L 178.155431 -134.135014 
L 179.851908 -133.381865 
L 181.548385 -132.850453 
L 183.244862 -132.62405 
L 184.941339 -132.738203 
L 186.637816 -133.162219 
L 188.334293 -133.793487 
L 190.03077 -134.471731 
L 191.727247 -135.013256 
L 193.423724 -135.256497 
L 195.1202 -135.104227 
L 196.816677 -134.547782 
L 198.513154 -133.665336 
L 200.209631 -132.596394 
L 201.906108 -131.503456 
L 203.602585 -130.534888 
L 205.299062 -129.799635 
L 206.995539 -129.357137 
L 208.692016 -129.218973 
L 210.388493 -129.355889 
L 212.08497 -129.705449 
L 213.781447 -130.179542 
L 215.477924 -130.674134 
L 217.174401 -131.083709 
L 218.870877 -131.31981 
L 220.567354 -131.329133 
L 222.263831 -131.104617 
L 223.960308 -130.684612 
L 225.656785 -130.139821 
L 227.353262 -129.552757 
L 229.049739 -128.997162 
L 230.746216 -128.523966 
L 232.442693 -128.156764 
L 234.13917 -127.895784 
L 235.835647 -127.72671 
L 237.532124 -127.63037 
L 239.228601 -127.590594 
L 240.925078 -127.599167 
L 242.621554 -127.65795 
L 244.318031 -127.778419 
L 246.014508 -127.978558 
L 247.710985 -128.276825 
L 249.407462 -128.683424 
L 251.103939 -129.190529 
L 252.800416 -129.764716 
L 254.496893 -130.3457 
L 256.19337 -130.854297 
L 257.889847 -131.209208 
L 259.586324 -131.348077 
L 261.282801 -131.245366 
L 262.979278 -130.920022 
L 264.675755 -130.42977 
L 266.372231 -129.854393 
L 268.068708 -129.274634 
L 269.765185 -128.754347 
L 271.461662 -128.330996 
L 273.158139 -128.015507 
L 273.158139 -127.49379 
L 273.158139 -127.49379 
L 271.461662 -127.49379 
L 269.765185 -127.49379 
L 268.068708 -127.49379 
L 266.372231 -127.49379 
L 264.675755 -127.49379 
L 262.979278 -127.49379 
L 261.282801 -127.49379 
L 259.586324 -127.49379 
L 257.889847 -127.49379 
L 256.19337 -127.49379 
L 254.496893 -127.49379 
L 252.800416 -127.49379 
L 251.103939 -127.49379 
L 249.407462 -127.49379 
L 247.710985 -127.49379 
L 246.014508 -127.49379 
L 244.318031 -127.49379 
L 242.621554 -127.49379 
L 240.925078 -127.49379 
L 239.228601 -127.49379 
L 237.532124 -127.49379 
L 235.835647 -127.49379 
L 234.13917 -127.49379 
L 232.442693 -127.49379 
L 230.746216 -127.49379 
L 229.049739 -127.49379 
L 227.353262 -127.49379 
L 225.656785 -127.49379 
L 223.960308 -127.49379 
L 222.263831 -127.49379 
L 220.567354 -127.49379 
L 218.870877 -127.49379 
L 217.174401 -127.49379 
L 215.477924 -127.49379 
L 213.781447 -127.49379 
L 212.08497 -127.49379 
L 210.388493 -127.49379 
L 208.692016 -127.49379 
L 206.995539 -127.49379 
L 205.299062 -127.49379 
L 203.602585 -127.49379 
L 201.906108 -127.49379 
L 200.209631 -127.49379 
L 198.513154 -127.49379 
L 196.816677 -127.49379 
L 195.1202 -127.49379 
L 193.423724 -127.49379 
L 191.727247 -127.49379 
L 190.03077 -127.49379 
L 188.334293 -127.49379 
L 186.637816 -127.49379 
L 184.941339 -127.49379 
L 183.244862 -127.49379 
L 181.548385 -127.49379 
L 179.851908 -127.49379 
L 178.155431 -127.49379 
L 176.458954 -127.49379 
L 174.762477 -127.49379 
L 173.066 -127.49379 
L 171.369524 -127.49379 
L 169.673047 -127.49379 
L 167.97657 -127.49379 
L 166.280093 -127.49379 
L 164.583616 -127.49379 
L 162.887139 -127.49379 
L 161.190662 -127.49379 
L 159.494185 -127.49379 
L 157.797708 -127.49379 
L 156.101231 -127.49379 
L 154.404754 -127.49379 
L 152.708277 -127.49379 
L 151.0118 -127.49379 
L 149.315323 -127.49379 
L 147.618847 -127.49379 
L 145.92237 -127.49379 
L 144.225893 -127.49379 
L 142.529416 -127.49379 
L 140.832939 -127.49379 
L 139.136462 -127.49379 
L 137.439985 -127.49379 
L 135.743508 -127.49379 
L 134.047031 -127.49379 
L 132.350554 -127.49379 
L 130.654077 -127.49379 
L 128.9576 -127.49379 
L 127.261123 -127.49379 
L 125.564646 -127.49379 
L 123.86817 -127.49379 
L 122.171693 -127.49379 
L 120.475216 -127.49379 
L 118.778739 -127.49379 
L 117.082262 -127.49379 
L 115.385785 -127.49379 
L 113.689308 -127.49379 
L 111.992831 -127.49379 
L 110.296354 -127.49379 
L 108.599877 -127.49379 
L 106.9034 -127.49379 
L 105.206923 -127.49379 
z
" id="ma68245fddd" style="stroke:#595959;"/>
    </defs>
    <g clip-path="url(#p1078a357c1)">
     <use style="fill:#95a3c3;stroke:#595959;" x="0" xlink:href="#ma68245fddd" y="439.2"/>
    </g>
   </g>
   <g id="PathCollection_4">
    <defs>
     <path d="M 0 3.383948 
C 0.897434 3.383948 1.758231 3.027394 2.392813 2.392813 
C 3.027394 1.758231 3.383948 0.897434 3.383948 -0 
C 3.383948 -0.897434 3.027394 -1.758231 2.392813 -2.392813 
C 1.758231 -3.027394 0.897434 -3.383948 0 -3.383948 
C -0.897434 -3.383948 -1.758231 -3.027394 -2.392813 -2.392813 
C -3.027394 -1.758231 -3.383948 -0.897434 -3.383948 0 
C -3.383948 0.897434 -3.027394 1.758231 -2.392813 2.392813 
C -1.758231 3.027394 -0.897434 3.383948 0 3.383948 
z
" id="C3_0_bb78a6ce7a"/>
    </defs>
    <g clip-path="url(#p1078a357c1)">
     <use style="fill:#ff0000;stroke:#ff0000;stroke-width:2.025;" x="138.528346" xlink:href="#C3_0_bb78a6ce7a" y="104.884499"/>
    </g>
    <g clip-path="url(#p1078a357c1)">
     <use style="fill:#ff0000;stroke:#ff0000;stroke-width:2.025;" x="144.203643" xlink:href="#C3_0_bb78a6ce7a" y="219.785449"/>
    </g>
    <g clip-path="url(#p1078a357c1)">
     <use style="fill:#ff0000;stroke:#ff0000;stroke-width:2.025;" x="155.271648" xlink:href="#C3_0_bb78a6ce7a" y="334.6864"/>
    </g>
   </g>
   <g id="matplotlib.axis_1">
    <g id="xtick_1">
     <g id="line2d_1">
      <defs>
       <path d="M 0 0 
L 0 -5 
" id="m5b86190de0" style="stroke:#000000;"/>
      </defs>
      <g>
       <use style="stroke:#000000;" x="109.660098" xlink:href="#m5b86190de0" y="392.136875"/>
      </g>
     </g>
     <g id="text_1">
      <text style="font-family:DejaVu Sans;font-size:12px;font-stretch:normal;font-style:normal;font-weight:normal;text-anchor:middle;" transform="rotate(-0, 109.660098, 404.755)" x="109.660098" y="404.755">0</text>
     </g>
    </g>
    <g id="xtick_2">
     <g id="line2d_2">
      <g>
       <use style="stroke:#000000;" x="192.222736" xlink:href="#m5b86190de0" y="392.136875"/>
      </g>
     </g>
     <g id="text_2">
      <text style="font-family:DejaVu Sans;font-size:12px;font-stretch:normal;font-style:normal;font-weight:normal;text-anchor:middle;" transform="rotate(-0, 192.222736, 404.755)" x="192.222736" y="404.755">200</text>
     </g>
    </g>
    <g id="xtick_3">
     <g id="line2d_3">
      <g>
       <use style="stroke:#000000;" x="274.785374" xlink:href="#m5b86190de0" y="392.136875"/>
      </g>
     </g>
     <g id="text_3">
      <text style="font-family:DejaVu Sans;font-size:12px;font-stretch:normal;font-style:normal;font-weight:normal;text-anchor:middle;" transform="rotate(-0, 274.785374, 404.755)" x="274.785374" y="404.755">400</text>
     </g>
    </g>
    <g id="xtick_4">
     <g id="line2d_4">
      <g>
       <use style="stroke:#000000;" x="357.348012" xlink:href="#m5b86190de0" y="392.136875"/>
      </g>
     </g>
     <g id="text_4">
      <text style="font-family:DejaVu Sans;font-size:12px;font-stretch:normal;font-style:normal;font-weight:normal;text-anchor:middle;" transform="rotate(-0, 357.348012, 404.755)" x="357.348012" y="404.755">600</text>
     </g>
    </g>
    <g id="xtick_5">
     <g id="line2d_5">
      <g>
       <use style="stroke:#000000;" x="439.91065" xlink:href="#m5b86190de0" y="392.136875"/>
      </g>
     </g>
     <g id="text_5">
      <text style="font-family:DejaVu Sans;font-size:12px;font-stretch:normal;font-style:normal;font-weight:normal;text-anchor:middle;" transform="rotate(-0, 439.91065, 404.755)" x="439.91065" y="404.755">800</text>
     </g>
    </g>
    <g id="text_6">
     <text style="font-family:DejaVu Sans;font-size:14px;font-stretch:normal;font-style:normal;font-weight:normal;text-anchor:middle;" transform="rotate(-0, 290.642656, 421.888438)" x="290.642656" y="421.888438">DDK regularity</text>
    </g>
   </g>
   <g id="matplotlib.axis_2">
    <g id="ytick_1">
     <g id="line2d_6">
      <defs>
       <path d="M 0 0 
L 5 0 
" id="mab996ae123" style="stroke:#000000;"/>
      </defs>
      <g>
       <use style="stroke:#000000;" x="84.485313" xlink:href="#mab996ae123" y="104.884499"/>
      </g>
     </g>
     <g id="text_7">
      <text style="font-family:DejaVu Sans;font-size:14px;font-stretch:normal;font-style:normal;font-weight:normal;text-anchor:end;" transform="rotate(-0, 80.985313, 110.203405)" x="80.985313" y="110.203405">Healthy</text>
     </g>
    </g>
    <g id="ytick_2">
     <g id="line2d_7">
      <g>
       <use style="stroke:#000000;" x="84.485313" xlink:href="#mab996ae123" y="219.785449"/>
      </g>
     </g>
     <g id="text_8">
      <text style="font-family:DejaVu Sans;font-size:14px;font-stretch:normal;font-style:normal;font-weight:normal;text-anchor:end;" transform="rotate(-0, 80.985313, 225.104355)" x="80.985313" y="225.104355">Mild</text>
     </g>
    </g>
    <g id="ytick_3">
     <g id="line2d_8">
      <g>
       <use style="stroke:#000000;" x="84.485313" xlink:href="#mab996ae123" y="334.6864"/>
      </g>
     </g>
     <g id="text_9">
      <text style="font-family:DejaVu Sans;font-size:14px;font-stretch:normal;font-style:normal;font-weight:normal;" transform="translate(14.4 333.230618)">Moderate</text>
      <text style="font-family:DejaVu Sans;font-size:14px;font-stretch:normal;font-style:normal;font-weight:normal;" transform="translate(29.071562 348.907556)">-severe</text>
     </g>
    </g>
   </g>
   <g id="line2d_9">
    <path clip-path="url(#p1078a357c1)" d="M 117.990576 100.575713 
L 117.990576 109.193284 
" style="fill:none;stroke:#595959;stroke-linecap:square;stroke-width:1.5;"/>
   </g>
   <g id="line2d_10">
    <path clip-path="url(#p1078a357c1)" d="M 167.251734 100.575713 
L 167.251734 109.193284 
" style="fill:none;stroke:#595959;stroke-linecap:square;stroke-width:1.5;"/>
   </g>
   <g id="line2d_11">
    <defs>
     <path d="M -0 3.535534 
L 2.12132 0 
L -0 -3.535534 
L -2.12132 -0 
z
" id="m02d42dbbd0" style="stroke:#595959;stroke-linejoin:miter;"/>
    </defs>
    <g clip-path="url(#p1078a357c1)">
     <use style="fill:#595959;stroke:#595959;stroke-linejoin:miter;" x="218.821588" xlink:href="#m02d42dbbd0" y="104.884499"/>
     <use style="fill:#595959;stroke:#595959;stroke-linejoin:miter;" x="187.441886" xlink:href="#m02d42dbbd0" y="104.884499"/>
     <use style="fill:#595959;stroke:#595959;stroke-linejoin:miter;" x="298.778745" xlink:href="#m02d42dbbd0" y="104.884499"/>
     <use style="fill:#595959;stroke:#595959;stroke-linejoin:miter;" x="168.513899" xlink:href="#m02d42dbbd0" y="104.884499"/>
    </g>
   </g>
   <g id="line2d_12">
    <path clip-path="url(#p1078a357c1)" d="M 117.169263 215.476663 
L 117.169263 224.094235 
" style="fill:none;stroke:#595959;stroke-linecap:square;stroke-width:1.5;"/>
   </g>
   <g id="line2d_13">
    <path clip-path="url(#p1078a357c1)" d="M 169.134185 215.476663 
L 169.134185 224.094235 
" style="fill:none;stroke:#595959;stroke-linecap:square;stroke-width:1.5;"/>
   </g>
   <g id="line2d_14">
    <g clip-path="url(#p1078a357c1)">
     <use style="fill:#595959;stroke:#595959;stroke-linejoin:miter;" x="370.987967" xlink:href="#m02d42dbbd0" y="219.785449"/>
     <use style="fill:#595959;stroke:#595959;stroke-linejoin:miter;" x="203.934275" xlink:href="#m02d42dbbd0" y="219.785449"/>
     <use style="fill:#595959;stroke:#595959;stroke-linejoin:miter;" x="191.473119" xlink:href="#m02d42dbbd0" y="219.785449"/>
    </g>
   </g>
   <g id="line2d_15">
    <path clip-path="url(#p1078a357c1)" d="M 118.649783 330.377614 
L 118.649783 338.995185 
" style="fill:none;stroke:#595959;stroke-linecap:square;stroke-width:1.5;"/>
   </g>
   <g id="line2d_16">
    <path clip-path="url(#p1078a357c1)" d="M 195.098759 330.377614 
L 195.098759 338.995185 
" style="fill:none;stroke:#595959;stroke-linecap:square;stroke-width:1.5;"/>
   </g>
   <g id="line2d_17">
    <g clip-path="url(#p1078a357c1)">
     <use style="fill:#595959;stroke:#595959;stroke-linejoin:miter;" x="259.715279" xlink:href="#m02d42dbbd0" y="334.6864"/>
     <use style="fill:#595959;stroke:#595959;stroke-linejoin:miter;" x="219.825226" xlink:href="#m02d42dbbd0" y="334.6864"/>
    </g>
   </g>
   <g id="line2d_18">
    <path clip-path="url(#p1078a357c1)" d="M 138.528346 104.884499 
L 144.203643 219.785449 
L 155.271648 334.6864 
" style="fill:none;stroke:#ff0000;stroke-linecap:square;stroke-width:2.7;"/>
   </g>
   <g id="line2d_19">
    <path clip-path="url(#p1078a357c1)" d="M 133.017534 104.884499 
L 145.528238 104.884499 
" style="fill:none;"/>
   </g>
   <g id="line2d_20">
    <path clip-path="url(#p1078a357c1)" d="M 133.017534 104.884499 
L 133.017534 104.884499 
" style="fill:none;"/>
   </g>
   <g id="line2d_21">
    <path clip-path="url(#p1078a357c1)" d="M 145.528238 104.884499 
L 145.528238 104.884499 
" style="fill:none;"/>
   </g>
   <g id="line2d_22">
    <path clip-path="url(#p1078a357c1)" d="M 132.207647 219.785449 
L 161.15708 219.785449 
" style="fill:none;"/>
   </g>
   <g id="line2d_23">
    <path clip-path="url(#p1078a357c1)" d="M 132.207647 219.785449 
L 132.207647 219.785449 
" style="fill:none;"/>
   </g>
   <g id="line2d_24">
    <path clip-path="url(#p1078a357c1)" d="M 161.15708 219.785449 
L 161.15708 219.785449 
" style="fill:none;"/>
   </g>
   <g id="line2d_25">
    <path clip-path="url(#p1078a357c1)" d="M 142.944679 334.6864 
L 168.804723 334.6864 
" style="fill:none;"/>
   </g>
   <g id="line2d_26">
    <path clip-path="url(#p1078a357c1)" d="M 142.944679 334.6864 
L 142.944679 334.6864 
" style="fill:none;"/>
   </g>
   <g id="line2d_27">
    <path clip-path="url(#p1078a357c1)" d="M 168.804723 334.6864 
L 168.804723 334.6864 
" style="fill:none;"/>
   </g>
   <g id="line2d_28">
    <path clip-path="url(#p1078a357c1)" d="M 392.182088 104.884499 
L 398.56582 104.884499 
L 398.56582 219.785449 
L 392.182088 219.785449 
" style="fill:none;stroke:#333333;stroke-linecap:square;stroke-width:1.5;"/>
   </g>
   <g id="line2d_29">
    <path clip-path="url(#p1078a357c1)" d="M 423.690166 219.785449 
L 430.073898 219.785449 
L 430.073898 334.6864 
L 423.690166 334.6864 
" style="fill:none;stroke:#333333;stroke-linecap:square;stroke-width:1.5;"/>
   </g>
   <g id="line2d_30">
    <path clip-path="url(#p1078a357c1)" d="M 458.691713 104.884499 
L 465.075446 104.884499 
L 465.075446 334.6864 
L 458.691713 334.6864 
" style="fill:none;stroke:#333333;stroke-linecap:square;stroke-width:1.5;"/>
   </g>
   <g id="line2d_31">
    <path clip-path="url(#p1078a357c1)" d="M 130.899544 96.266927 
L 130.899544 113.50207 
" style="fill:none;stroke:#595959;stroke-linecap:square;stroke-width:1.5;"/>
   </g>
   <g id="line2d_32">
    <path clip-path="url(#p1078a357c1)" d="M 130.137629 211.167878 
L 130.137629 228.40302 
" style="fill:none;stroke:#595959;stroke-linecap:square;stroke-width:1.5;"/>
   </g>
   <g id="line2d_33">
    <path clip-path="url(#p1078a357c1)" d="M 146.875382 326.068828 
L 146.875382 343.303971 
" style="fill:none;stroke:#595959;stroke-linecap:square;stroke-width:1.5;"/>
   </g>
   <g id="patch_3">
    <path d="M 84.485313 392.136875 
L 84.485313 14.4 
" style="fill:none;stroke:#000000;stroke-linecap:square;stroke-linejoin:miter;"/>
   </g>
   <g id="patch_4">
    <path d="M 496.8 392.136875 
L 496.8 14.4 
" style="fill:none;stroke:#000000;stroke-linecap:square;stroke-linejoin:miter;"/>
   </g>
   <g id="patch_5">
    <path d="M 84.485313 392.136875 
L 496.8 392.136875 
" style="fill:none;stroke:#000000;stroke-linecap:square;stroke-linejoin:miter;"/>
   </g>
   <g id="patch_6">
    <path d="M 84.485313 14.4 
L 496.8 14.4 
" style="fill:none;stroke:#000000;stroke-linecap:square;stroke-linejoin:miter;"/>
   </g>
   <g id="text_10">
    <text style="font-family:DejaVu Sans;font-size:16px;font-stretch:normal;font-style:normal;font-weight:normal;text-anchor:middle;" transform="rotate(-270, 402.89332, 162.334974)" x="402.89332" y="162.334974">ns</text>
   </g>
   <g id="text_11">
    <text style="font-family:DejaVu Sans;font-size:16px;font-stretch:normal;font-style:normal;font-weight:normal;text-anchor:middle;" transform="rotate(-270, 434.401398, 277.235924)" x="434.401398" y="277.235924">*</text>
   </g>
   <g id="text_12">
    <text style="font-family:DejaVu Sans;font-size:16px;font-stretch:normal;font-style:normal;font-weight:normal;text-anchor:middle;" transform="rotate(-270, 469.402946, 219.785449)" x="469.402946" y="219.785449">*</text>
   </g>
   <g id="line2d_34">
    <path clip-path="url(#p1078a357c1)" d="M 125.665788 104.884499 
L 117.990576 104.884499 
" style="fill:none;stroke:#595959;stroke-linecap:square;stroke-width:2;"/>
   </g>
   <g id="line2d_35">
    <path clip-path="url(#p1078a357c1)" d="M 142.777419 104.884499 
L 167.251734 104.884499 
" style="fill:none;stroke:#595959;stroke-linecap:square;stroke-width:2;"/>
   </g>
   <g id="line2d_36">
    <path clip-path="url(#p1078a357c1)" d="M 124.328723 219.785449 
L 117.169263 219.785449 
" style="fill:none;stroke:#595959;stroke-linecap:square;stroke-width:2;"/>
   </g>
   <g id="line2d_37">
    <path clip-path="url(#p1078a357c1)" d="M 145.398615 219.785449 
L 169.134185 219.785449 
" style="fill:none;stroke:#595959;stroke-linecap:square;stroke-width:2;"/>
   </g>
   <g id="line2d_38">
    <path clip-path="url(#p1078a357c1)" d="M 132.502726 334.6864 
L 118.649783 334.6864 
" style="fill:none;stroke:#595959;stroke-linecap:square;stroke-width:2;"/>
   </g>
   <g id="line2d_39">
    <path clip-path="url(#p1078a357c1)" d="M 167.263207 334.6864 
L 195.098759 334.6864 
" style="fill:none;stroke:#595959;stroke-linecap:square;stroke-width:2;"/>
   </g>
   <g id="patch_7">
    <path clip-path="url(#p1078a357c1)" d="M 125.665788 96.266927 
L 125.665788 113.50207 
L 142.777419 113.50207 
L 142.777419 96.266927 
L 125.665788 96.266927 
z
" style="fill:none;stroke:#595959;stroke-linejoin:miter;stroke-width:1.5;"/>
   </g>
   <g id="patch_8">
    <path clip-path="url(#p1078a357c1)" d="M 124.328723 211.167878 
L 124.328723 228.40302 
L 145.398615 228.40302 
L 145.398615 211.167878 
L 124.328723 211.167878 
z
" style="fill:none;stroke:#595959;stroke-linejoin:miter;stroke-width:1.5;"/>
   </g>
   <g id="patch_9">
    <path clip-path="url(#p1078a357c1)" d="M 132.502726 326.068828 
L 132.502726 343.303971 
L 167.263207 343.303971 
L 167.263207 326.068828 
L 132.502726 326.068828 
z
" style="fill:none;stroke:#595959;stroke-linejoin:miter;stroke-width:1.5;"/>
   </g>
  </g>
 </g>
 <defs>
  <clipPath id="p1078a357c1">
   <rect height="377.736875" width="412.314687" x="84.485313" y="14.4"/>
  </clipPath>
 </defs>
</svg>
