<?xml version="1.0" encoding="utf-8" standalone="no"?>
<!DOCTYPE svg PUBLIC "-//W3C//DTD SVG 1.1//EN"
  "http://www.w3.org/Graphics/SVG/1.1/DTD/svg11.dtd">
<!-- Created with matplotlib (https://matplotlib.org/) -->
<svg height="439.2pt" version="1.1" viewBox="0 0 511.2 439.2" width="511.2pt" xmlns="http://www.w3.org/2000/svg" xmlns:xlink="http://www.w3.org/1999/xlink">
 <metadata>
  <rdf:RDF xmlns:cc="http://creativecommons.org/ns#" xmlns:dc="http://purl.org/dc/elements/1.1/" xmlns:rdf="http://www.w3.org/1999/02/22-rdf-syntax-ns#">
   <cc:Work>
    <dc:type rdf:resource="http://purl.org/dc/dcmitype/StillImage"/>
    <dc:date>2022-06-23T16:03:20.568646</dc:date>
    <dc:format>image/svg+xml</dc:format>
    <dc:creator>
     <cc:Agent>
      <dc:title>Matplotlib v3.3.3, https://matplotlib.org/</dc:title>
     </cc:Agent>
    </dc:creator>
   </cc:Work>
  </rdf:RDF>
 </metadata>
 <defs>
  <style type="text/css">*{stroke-linecap:butt;stroke-linejoin:round;}</style>
 </defs>
 <g id="figure_1">
  <g id="patch_1">
   <path d="M 0 439.2 
L 511.2 439.2 
L 511.2 0 
L 0 0 
z
" style="fill:#ffffff;"/>
  </g>
  <g id="axes_1">
   <g id="patch_2">
    <path d="M 84.485313 392.136875 
L 496.8 392.136875 
L 496.8 14.4 
L 84.485313 14.4 
z
" style="fill:#ffffff;"/>
   </g>
   <g id="PathCollection_1">
    <defs>
     <path d="M 0 2 
C 0.530406 2 1.03916 1.789267 1.414214 1.414214 
C 1.789267 1.03916 2 0.530406 2 -0 
C 2 -0.530406 1.789267 -1.03916 1.414214 -1.414214 
C 1.03916 -1.789267 0.530406 -2 0 -2 
C -0.530406 -2 -1.03916 -1.789267 -1.414214 -1.414214 
C -1.789267 -1.03916 -2 -0.530406 -2 0 
C -2 0.530406 -1.789267 1.03916 -1.414214 1.414214 
C -1.03916 1.789267 -0.530406 2 0 2 
z
" id="C0_0_0a1aa8c290"/>
    </defs>
    <g clip-path="url(#pe3d7d27484)">
     <use style="fill:#66c2a5;" x="238.801719" xlink:href="#C0_0_0a1aa8c290" y="111.905021"/>
    </g>
    <g clip-path="url(#pe3d7d27484)">
     <use style="fill:#66c2a5;" x="200.561922" xlink:href="#C0_0_0a1aa8c290" y="115.143287"/>
    </g>
    <g clip-path="url(#pe3d7d27484)">
     <use style="fill:#66c2a5;" x="171.002054" xlink:href="#C0_0_0a1aa8c290" y="97.173593"/>
    </g>
    <g clip-path="url(#pe3d7d27484)">
     <use style="fill:#66c2a5;" x="238.506408" xlink:href="#C0_0_0a1aa8c290" y="112.342413"/>
    </g>
    <g clip-path="url(#pe3d7d27484)">
     <use style="fill:#66c2a5;" x="261.009767" xlink:href="#C0_0_0a1aa8c290" y="105.627507"/>
    </g>
    <g clip-path="url(#pe3d7d27484)">
     <use style="fill:#66c2a5;" x="255.869434" xlink:href="#C0_0_0a1aa8c290" y="112.30409"/>
    </g>
    <g clip-path="url(#pe3d7d27484)">
     <use style="fill:#66c2a5;" x="202.633163" xlink:href="#C0_0_0a1aa8c290" y="109.908603"/>
    </g>
    <g clip-path="url(#pe3d7d27484)">
     <use style="fill:#66c2a5;" x="248.312777" xlink:href="#C0_0_0a1aa8c290" y="100.282666"/>
    </g>
    <g clip-path="url(#pe3d7d27484)">
     <use style="fill:#66c2a5;" x="197.11406" xlink:href="#C0_0_0a1aa8c290" y="107.003785"/>
    </g>
    <g clip-path="url(#pe3d7d27484)">
     <use style="fill:#66c2a5;" x="170.447807" xlink:href="#C0_0_0a1aa8c290" y="100.817825"/>
    </g>
    <g clip-path="url(#pe3d7d27484)">
     <use style="fill:#66c2a5;" x="287.332908" xlink:href="#C0_0_0a1aa8c290" y="110.434155"/>
    </g>
    <g clip-path="url(#pe3d7d27484)">
     <use style="fill:#66c2a5;" x="240.889238" xlink:href="#C0_0_0a1aa8c290" y="97.854183"/>
    </g>
    <g clip-path="url(#pe3d7d27484)">
     <use style="fill:#66c2a5;" x="242.332155" xlink:href="#C0_0_0a1aa8c290" y="104.094242"/>
    </g>
    <g clip-path="url(#pe3d7d27484)">
     <use style="fill:#66c2a5;" x="189.915235" xlink:href="#C0_0_0a1aa8c290" y="101.894392"/>
    </g>
    <g clip-path="url(#pe3d7d27484)">
     <use style="fill:#66c2a5;" x="213.764213" xlink:href="#C0_0_0a1aa8c290" y="97.274979"/>
    </g>
    <g clip-path="url(#pe3d7d27484)">
     <use style="fill:#66c2a5;" x="217.272796" xlink:href="#C0_0_0a1aa8c290" y="110.736204"/>
    </g>
    <g clip-path="url(#pe3d7d27484)">
     <use style="fill:#66c2a5;" x="209.380243" xlink:href="#C0_0_0a1aa8c290" y="112.376966"/>
    </g>
    <g clip-path="url(#pe3d7d27484)">
     <use style="fill:#66c2a5;" x="271.908344" xlink:href="#C0_0_0a1aa8c290" y="115.55273"/>
    </g>
    <g clip-path="url(#pe3d7d27484)">
     <use style="fill:#66c2a5;" x="233.303378" xlink:href="#C0_0_0a1aa8c290" y="111.522088"/>
    </g>
    <g clip-path="url(#pe3d7d27484)">
     <use style="fill:#66c2a5;" x="230.583729" xlink:href="#C0_0_0a1aa8c290" y="111.334108"/>
    </g>
    <g clip-path="url(#pe3d7d27484)">
     <use style="fill:#66c2a5;" x="196.995978" xlink:href="#C0_0_0a1aa8c290" y="114.754287"/>
    </g>
    <g clip-path="url(#pe3d7d27484)">
     <use style="fill:#66c2a5;" x="228.970466" xlink:href="#C0_0_0a1aa8c290" y="111.180388"/>
    </g>
    <g clip-path="url(#pe3d7d27484)">
     <use style="fill:#66c2a5;" x="196.19411" xlink:href="#C0_0_0a1aa8c290" y="105.494329"/>
    </g>
    <g clip-path="url(#pe3d7d27484)">
     <use style="fill:#66c2a5;" x="203.189783" xlink:href="#C0_0_0a1aa8c290" y="109.849081"/>
    </g>
    <g clip-path="url(#pe3d7d27484)">
     <use style="fill:#66c2a5;" x="246.214713" xlink:href="#C0_0_0a1aa8c290" y="114.807523"/>
    </g>
    <g clip-path="url(#pe3d7d27484)">
     <use style="fill:#66c2a5;" x="261.841318" xlink:href="#C0_0_0a1aa8c290" y="105.116923"/>
    </g>
    <g clip-path="url(#pe3d7d27484)">
     <use style="fill:#66c2a5;" x="200.635389" xlink:href="#C0_0_0a1aa8c290" y="98.358836"/>
    </g>
    <g clip-path="url(#pe3d7d27484)">
     <use style="fill:#66c2a5;" x="176.422666" xlink:href="#C0_0_0a1aa8c290" y="115.739447"/>
    </g>
    <g clip-path="url(#pe3d7d27484)">
     <use style="fill:#66c2a5;" x="227.22928" xlink:href="#C0_0_0a1aa8c290" y="102.367141"/>
    </g>
    <g clip-path="url(#pe3d7d27484)">
     <use style="fill:#66c2a5;" x="165.627134" xlink:href="#C0_0_0a1aa8c290" y="109.466528"/>
    </g>
    <g clip-path="url(#pe3d7d27484)">
     <use style="fill:#66c2a5;" x="214.460747" xlink:href="#C0_0_0a1aa8c290" y="106.203214"/>
    </g>
    <g clip-path="url(#pe3d7d27484)">
     <use style="fill:#66c2a5;" x="257.967424" xlink:href="#C0_0_0a1aa8c290" y="93.430968"/>
    </g>
    <g clip-path="url(#pe3d7d27484)">
     <use style="fill:#66c2a5;" x="204.135057" xlink:href="#C0_0_0a1aa8c290" y="96.140929"/>
    </g>
    <g clip-path="url(#pe3d7d27484)">
     <use style="fill:#66c2a5;" x="203.460619" xlink:href="#C0_0_0a1aa8c290" y="113.443121"/>
    </g>
    <g clip-path="url(#pe3d7d27484)">
     <use style="fill:#66c2a5;" x="226.307576" xlink:href="#C0_0_0a1aa8c290" y="93.450147"/>
    </g>
    <g clip-path="url(#pe3d7d27484)">
     <use style="fill:#66c2a5;" x="215.043156" xlink:href="#C0_0_0a1aa8c290" y="96.437244"/>
    </g>
    <g clip-path="url(#pe3d7d27484)">
     <use style="fill:#66c2a5;" x="182.948967" xlink:href="#C0_0_0a1aa8c290" y="94.634561"/>
    </g>
    <g clip-path="url(#pe3d7d27484)">
     <use style="fill:#66c2a5;" x="204.876813" xlink:href="#C0_0_0a1aa8c290" y="106.613686"/>
    </g>
    <g clip-path="url(#pe3d7d27484)">
     <use style="fill:#66c2a5;" x="185.383981" xlink:href="#C0_0_0a1aa8c290" y="106.153593"/>
    </g>
    <g clip-path="url(#pe3d7d27484)">
     <use style="fill:#66c2a5;" x="274.050948" xlink:href="#C0_0_0a1aa8c290" y="96.981637"/>
    </g>
    <g clip-path="url(#pe3d7d27484)">
     <use style="fill:#66c2a5;" x="220.216961" xlink:href="#C0_0_0a1aa8c290" y="110.522418"/>
    </g>
    <g clip-path="url(#pe3d7d27484)">
     <use style="fill:#66c2a5;" x="256.991291" xlink:href="#C0_0_0a1aa8c290" y="112.811188"/>
    </g>
    <g clip-path="url(#pe3d7d27484)">
     <use style="fill:#66c2a5;" x="163.060458" xlink:href="#C0_0_0a1aa8c290" y="94.419095"/>
    </g>
    <g clip-path="url(#pe3d7d27484)">
     <use style="fill:#66c2a5;" x="206.868449" xlink:href="#C0_0_0a1aa8c290" y="109.875645"/>
    </g>
    <g clip-path="url(#pe3d7d27484)">
     <use style="fill:#66c2a5;" x="185.535944" xlink:href="#C0_0_0a1aa8c290" y="101.934292"/>
    </g>
    <g clip-path="url(#pe3d7d27484)">
     <use style="fill:#66c2a5;" x="223.047132" xlink:href="#C0_0_0a1aa8c290" y="96.834867"/>
    </g>
    <g clip-path="url(#pe3d7d27484)">
     <use style="fill:#66c2a5;" x="235.031833" xlink:href="#C0_0_0a1aa8c290" y="116.04152"/>
    </g>
    <g clip-path="url(#pe3d7d27484)">
     <use style="fill:#66c2a5;" x="208.167788" xlink:href="#C0_0_0a1aa8c290" y="110.549928"/>
    </g>
    <g clip-path="url(#pe3d7d27484)">
     <use style="fill:#66c2a5;" x="220.027172" xlink:href="#C0_0_0a1aa8c290" y="95.389561"/>
    </g>
    <g clip-path="url(#pe3d7d27484)">
     <use style="fill:#66c2a5;" x="256.89767" xlink:href="#C0_0_0a1aa8c290" y="115.914705"/>
    </g>
    <g clip-path="url(#pe3d7d27484)">
     <use style="fill:#66c2a5;" x="374.502037" xlink:href="#C0_0_0a1aa8c290" y="95.910696"/>
    </g>
    <g clip-path="url(#pe3d7d27484)">
     <use style="fill:#66c2a5;" x="183.74523" xlink:href="#C0_0_0a1aa8c290" y="99.192461"/>
    </g>
    <g clip-path="url(#pe3d7d27484)">
     <use style="fill:#66c2a5;" x="197.098001" xlink:href="#C0_0_0a1aa8c290" y="104.50641"/>
    </g>
    <g clip-path="url(#pe3d7d27484)">
     <use style="fill:#66c2a5;" x="206.768025" xlink:href="#C0_0_0a1aa8c290" y="110.184593"/>
    </g>
    <g clip-path="url(#pe3d7d27484)">
     <use style="fill:#66c2a5;" x="201.855512" xlink:href="#C0_0_0a1aa8c290" y="108.19497"/>
    </g>
    <g clip-path="url(#pe3d7d27484)">
     <use style="fill:#66c2a5;" x="171.104933" xlink:href="#C0_0_0a1aa8c290" y="107.543264"/>
    </g>
    <g clip-path="url(#pe3d7d27484)">
     <use style="fill:#66c2a5;" x="246.706593" xlink:href="#C0_0_0a1aa8c290" y="97.260297"/>
    </g>
    <g clip-path="url(#pe3d7d27484)">
     <use style="fill:#66c2a5;" x="212.66198" xlink:href="#C0_0_0a1aa8c290" y="103.05667"/>
    </g>
    <g clip-path="url(#pe3d7d27484)">
     <use style="fill:#66c2a5;" x="234.776177" xlink:href="#C0_0_0a1aa8c290" y="112.345965"/>
    </g>
    <g clip-path="url(#pe3d7d27484)">
     <use style="fill:#66c2a5;" x="202.081412" xlink:href="#C0_0_0a1aa8c290" y="112.123384"/>
    </g>
    <g clip-path="url(#pe3d7d27484)">
     <use style="fill:#66c2a5;" x="228.56135" xlink:href="#C0_0_0a1aa8c290" y="105.28325"/>
    </g>
    <g clip-path="url(#pe3d7d27484)">
     <use style="fill:#66c2a5;" x="241.857653" xlink:href="#C0_0_0a1aa8c290" y="115.839165"/>
    </g>
    <g clip-path="url(#pe3d7d27484)">
     <use style="fill:#66c2a5;" x="164.722088" xlink:href="#C0_0_0a1aa8c290" y="101.292313"/>
    </g>
    <g clip-path="url(#pe3d7d27484)">
     <use style="fill:#66c2a5;" x="277.492305" xlink:href="#C0_0_0a1aa8c290" y="109.288287"/>
    </g>
    <g clip-path="url(#pe3d7d27484)">
     <use style="fill:#66c2a5;" x="208.155675" xlink:href="#C0_0_0a1aa8c290" y="116.223274"/>
    </g>
   </g>
   <g id="PathCollection_2">
    <defs>
     <path d="M 0 2 
C 0.530406 2 1.03916 1.789267 1.414214 1.414214 
C 1.789267 1.03916 2 0.530406 2 -0 
C 2 -0.530406 1.789267 -1.03916 1.414214 -1.414214 
C 1.03916 -1.789267 0.530406 -2 0 -2 
C -0.530406 -2 -1.03916 -1.789267 -1.414214 -1.414214 
C -1.789267 -1.03916 -2 -0.530406 -2 0 
C -2 0.530406 -1.789267 1.03916 -1.414214 1.414214 
C -1.03916 1.789267 -0.530406 2 0 2 
z
" id="C1_0_9d57b91b6d"/>
    </defs>
    <g clip-path="url(#pe3d7d27484)">
     <use style="fill:#fc8d62;" x="250.206022" xlink:href="#C1_0_9d57b91b6d" y="216.880099"/>
    </g>
    <g clip-path="url(#pe3d7d27484)">
     <use style="fill:#fc8d62;" x="172.100133" xlink:href="#C1_0_9d57b91b6d" y="211.047408"/>
    </g>
    <g clip-path="url(#pe3d7d27484)">
     <use style="fill:#fc8d62;" x="189.579435" xlink:href="#C1_0_9d57b91b6d" y="221.812425"/>
    </g>
    <g clip-path="url(#pe3d7d27484)">
     <use style="fill:#fc8d62;" x="198.92567" xlink:href="#C1_0_9d57b91b6d" y="216.670685"/>
    </g>
    <g clip-path="url(#pe3d7d27484)">
     <use style="fill:#fc8d62;" x="273.890419" xlink:href="#C1_0_9d57b91b6d" y="216.414201"/>
    </g>
    <g clip-path="url(#pe3d7d27484)">
     <use style="fill:#fc8d62;" x="195.016181" xlink:href="#C1_0_9d57b91b6d" y="224.854374"/>
    </g>
    <g clip-path="url(#pe3d7d27484)">
     <use style="fill:#fc8d62;" x="208.020213" xlink:href="#C1_0_9d57b91b6d" y="224.902486"/>
    </g>
    <g clip-path="url(#pe3d7d27484)">
     <use style="fill:#fc8d62;" x="157.902242" xlink:href="#C1_0_9d57b91b6d" y="221.314698"/>
    </g>
    <g clip-path="url(#pe3d7d27484)">
     <use style="fill:#fc8d62;" x="163.52763" xlink:href="#C1_0_9d57b91b6d" y="230.719568"/>
    </g>
    <g clip-path="url(#pe3d7d27484)">
     <use style="fill:#fc8d62;" x="208.584484" xlink:href="#C1_0_9d57b91b6d" y="215.004441"/>
    </g>
    <g clip-path="url(#pe3d7d27484)">
     <use style="fill:#fc8d62;" x="217.67473" xlink:href="#C1_0_9d57b91b6d" y="211.034921"/>
    </g>
    <g clip-path="url(#pe3d7d27484)">
     <use style="fill:#fc8d62;" x="267.595988" xlink:href="#C1_0_9d57b91b6d" y="230.029887"/>
    </g>
    <g clip-path="url(#pe3d7d27484)">
     <use style="fill:#fc8d62;" x="188.002927" xlink:href="#C1_0_9d57b91b6d" y="221.382225"/>
    </g>
    <g clip-path="url(#pe3d7d27484)">
     <use style="fill:#fc8d62;" x="292.828976" xlink:href="#C1_0_9d57b91b6d" y="208.649816"/>
    </g>
    <g clip-path="url(#pe3d7d27484)">
     <use style="fill:#fc8d62;" x="220.447399" xlink:href="#C1_0_9d57b91b6d" y="219.650468"/>
    </g>
    <g clip-path="url(#pe3d7d27484)">
     <use style="fill:#fc8d62;" x="342.41347" xlink:href="#C1_0_9d57b91b6d" y="223.74934"/>
    </g>
    <g clip-path="url(#pe3d7d27484)">
     <use style="fill:#fc8d62;" x="138.219068" xlink:href="#C1_0_9d57b91b6d" y="215.879501"/>
    </g>
    <g clip-path="url(#pe3d7d27484)">
     <use style="fill:#fc8d62;" x="196.300708" xlink:href="#C1_0_9d57b91b6d" y="211.287142"/>
    </g>
    <g clip-path="url(#pe3d7d27484)">
     <use style="fill:#fc8d62;" x="131.398889" xlink:href="#C1_0_9d57b91b6d" y="210.502392"/>
    </g>
    <g clip-path="url(#pe3d7d27484)">
     <use style="fill:#fc8d62;" x="204.916621" xlink:href="#C1_0_9d57b91b6d" y="211.574409"/>
    </g>
    <g clip-path="url(#pe3d7d27484)">
     <use style="fill:#fc8d62;" x="200.906942" xlink:href="#C1_0_9d57b91b6d" y="216.390762"/>
    </g>
    <g clip-path="url(#pe3d7d27484)">
     <use style="fill:#fc8d62;" x="202.404484" xlink:href="#C1_0_9d57b91b6d" y="214.004885"/>
    </g>
    <g clip-path="url(#pe3d7d27484)">
     <use style="fill:#fc8d62;" x="218.312121" xlink:href="#C1_0_9d57b91b6d" y="214.768955"/>
    </g>
    <g clip-path="url(#pe3d7d27484)">
     <use style="fill:#fc8d62;" x="176.186875" xlink:href="#C1_0_9d57b91b6d" y="221.070259"/>
    </g>
    <g clip-path="url(#pe3d7d27484)">
     <use style="fill:#fc8d62;" x="178.092602" xlink:href="#C1_0_9d57b91b6d" y="217.23304"/>
    </g>
    <g clip-path="url(#pe3d7d27484)">
     <use style="fill:#fc8d62;" x="170.528956" xlink:href="#C1_0_9d57b91b6d" y="221.289163"/>
    </g>
    <g clip-path="url(#pe3d7d27484)">
     <use style="fill:#fc8d62;" x="156.921474" xlink:href="#C1_0_9d57b91b6d" y="215.129369"/>
    </g>
    <g clip-path="url(#pe3d7d27484)">
     <use style="fill:#fc8d62;" x="170.848985" xlink:href="#C1_0_9d57b91b6d" y="228.982257"/>
    </g>
    <g clip-path="url(#pe3d7d27484)">
     <use style="fill:#fc8d62;" x="127.633124" xlink:href="#C1_0_9d57b91b6d" y="229.013409"/>
    </g>
    <g clip-path="url(#pe3d7d27484)">
     <use style="fill:#fc8d62;" x="132.715908" xlink:href="#C1_0_9d57b91b6d" y="218.534918"/>
    </g>
    <g clip-path="url(#pe3d7d27484)">
     <use style="fill:#fc8d62;" x="229.449402" xlink:href="#C1_0_9d57b91b6d" y="219.718163"/>
    </g>
   </g>
   <g id="PathCollection_3">
    <defs>
     <path d="M 0 2 
C 0.530406 2 1.03916 1.789267 1.414214 1.414214 
C 1.789267 1.03916 2 0.530406 2 -0 
C 2 -0.530406 1.789267 -1.03916 1.414214 -1.414214 
C 1.03916 -1.789267 0.530406 -2 0 -2 
C -0.530406 -2 -1.03916 -1.789267 -1.414214 -1.414214 
C -1.789267 -1.03916 -2 -0.530406 -2 0 
C -2 0.530406 -1.789267 1.03916 -1.414214 1.414214 
C -1.03916 1.789267 -0.530406 2 0 2 
z
" id="C2_0_74b0c41efc"/>
    </defs>
    <g clip-path="url(#pe3d7d27484)">
     <use style="fill:#8da0cb;" x="179.898404" xlink:href="#C2_0_74b0c41efc" y="337.874825"/>
    </g>
    <g clip-path="url(#pe3d7d27484)">
     <use style="fill:#8da0cb;" x="175.639279" xlink:href="#C2_0_74b0c41efc" y="328.529024"/>
    </g>
    <g clip-path="url(#pe3d7d27484)">
     <use style="fill:#8da0cb;" x="188.498292" xlink:href="#C2_0_74b0c41efc" y="324.667181"/>
    </g>
    <g clip-path="url(#pe3d7d27484)">
     <use style="fill:#8da0cb;" x="148.128186" xlink:href="#C2_0_74b0c41efc" y="324.492074"/>
    </g>
    <g clip-path="url(#pe3d7d27484)">
     <use style="fill:#8da0cb;" x="216.316206" xlink:href="#C2_0_74b0c41efc" y="338.290758"/>
    </g>
    <g clip-path="url(#pe3d7d27484)">
     <use style="fill:#8da0cb;" x="143.34138" xlink:href="#C2_0_74b0c41efc" y="344.443743"/>
    </g>
    <g clip-path="url(#pe3d7d27484)">
     <use style="fill:#8da0cb;" x="147.327352" xlink:href="#C2_0_74b0c41efc" y="336.783161"/>
    </g>
    <g clip-path="url(#pe3d7d27484)">
     <use style="fill:#8da0cb;" x="202.200519" xlink:href="#C2_0_74b0c41efc" y="345.771248"/>
    </g>
    <g clip-path="url(#pe3d7d27484)">
     <use style="fill:#8da0cb;" x="218.832572" xlink:href="#C2_0_74b0c41efc" y="345.155574"/>
    </g>
    <g clip-path="url(#pe3d7d27484)">
     <use style="fill:#8da0cb;" x="142.751407" xlink:href="#C2_0_74b0c41efc" y="342.782807"/>
    </g>
    <g clip-path="url(#pe3d7d27484)">
     <use style="fill:#8da0cb;" x="200.421613" xlink:href="#C2_0_74b0c41efc" y="343.902795"/>
    </g>
    <g clip-path="url(#pe3d7d27484)">
     <use style="fill:#8da0cb;" x="322.265113" xlink:href="#C2_0_74b0c41efc" y="335.069112"/>
    </g>
    <g clip-path="url(#pe3d7d27484)">
     <use style="fill:#8da0cb;" x="240.629329" xlink:href="#C2_0_74b0c41efc" y="329.773795"/>
    </g>
    <g clip-path="url(#pe3d7d27484)">
     <use style="fill:#8da0cb;" x="210.209477" xlink:href="#C2_0_74b0c41efc" y="344.543118"/>
    </g>
    <g clip-path="url(#pe3d7d27484)">
     <use style="fill:#8da0cb;" x="195.243619" xlink:href="#C2_0_74b0c41efc" y="330.913523"/>
    </g>
    <g clip-path="url(#pe3d7d27484)">
     <use style="fill:#8da0cb;" x="178.393474" xlink:href="#C2_0_74b0c41efc" y="334.295738"/>
    </g>
    <g clip-path="url(#pe3d7d27484)">
     <use style="fill:#8da0cb;" x="232.466408" xlink:href="#C2_0_74b0c41efc" y="334.752401"/>
    </g>
    <g clip-path="url(#pe3d7d27484)">
     <use style="fill:#8da0cb;" x="145.585528" xlink:href="#C2_0_74b0c41efc" y="339.178356"/>
    </g>
    <g clip-path="url(#pe3d7d27484)">
     <use style="fill:#8da0cb;" x="224.81428" xlink:href="#C2_0_74b0c41efc" y="329.832322"/>
    </g>
   </g>
   <g id="PolyCollection_1">
    <defs>
     <path d="M 148.771571 -357.295692 
L 148.771571 -358.297005 
L 151.196009 -359.321693 
L 153.620447 -360.997904 
L 156.044885 -363.424325 
L 158.469323 -366.520514 
L 160.893761 -369.977925 
L 163.318199 -373.309304 
L 165.742637 -376.001278 
L 168.167075 -377.711665 
L 170.591513 -378.414689 
L 173.01595 -378.410534 
L 175.440388 -378.181139 
L 177.864826 -378.166627 
L 180.289264 -378.602767 
L 182.713702 -379.535341 
L 185.13814 -380.998381 
L 187.562578 -383.195683 
L 189.987016 -386.494184 
L 192.411454 -391.176484 
L 194.835892 -397.105593 
L 197.26033 -403.554078 
L 199.684767 -409.356564 
L 202.109205 -413.331854 
L 204.533643 -414.746167 
L 206.958081 -413.56867 
L 209.382519 -410.40742 
L 211.806957 -406.206444 
L 214.231395 -401.899347 
L 216.655833 -398.183163 
L 219.080271 -395.449947 
L 221.504709 -393.81267 
L 223.929147 -393.157381 
L 226.353584 -393.206607 
L 228.778022 -393.605129 
L 231.20246 -394.012842 
L 233.626898 -394.162874 
L 236.051336 -393.866968 
L 238.475774 -393.003264 
L 240.900212 -391.538015 
L 243.32465 -389.583816 
L 245.749088 -387.428544 
L 248.173526 -385.456656 
L 250.597964 -383.959421 
L 253.022401 -382.942955 
L 255.446839 -382.089951 
L 257.871277 -380.94412 
L 260.295715 -379.212846 
L 262.720153 -376.970429 
L 265.144591 -374.606373 
L 267.569029 -372.56006 
L 269.993467 -371.046047 
L 272.417905 -369.965231 
L 274.842343 -369.035551 
L 277.266781 -368.009189 
L 279.691218 -366.806095 
L 282.115656 -365.494605 
L 284.540094 -364.182344 
L 286.964532 -362.93029 
L 289.38897 -361.747898 
L 291.813408 -360.640184 
L 294.237846 -359.642383 
L 296.662284 -358.810265 
L 299.086722 -358.184675 
L 301.51116 -357.766602 
L 303.935598 -357.51972 
L 306.360035 -357.391121 
L 308.784473 -357.332022 
L 311.208911 -357.308039 
L 313.633349 -357.299436 
L 316.057787 -357.296704 
L 318.482225 -357.295936 
L 320.906663 -357.295744 
L 323.331101 -357.295702 
L 325.755539 -357.295693 
L 328.179977 -357.295692 
L 330.604415 -357.295692 
L 333.028852 -357.295692 
L 335.45329 -357.295693 
L 337.877728 -357.295698 
L 340.302166 -357.295726 
L 342.726604 -357.295857 
L 345.151042 -357.296399 
L 347.57548 -357.298386 
L 349.999918 -357.30483 
L 352.424356 -357.323316 
L 354.848794 -357.370114 
L 357.273232 -357.474385 
L 359.697669 -357.678076 
L 362.122107 -358.024948 
L 364.546545 -358.535197 
L 366.970983 -359.173302 
L 369.395421 -359.830533 
L 371.819859 -360.345585 
L 374.244297 -360.566139 
L 376.668735 -360.421181 
L 379.093173 -359.95775 
L 381.517611 -359.316409 
L 383.942049 -358.662734 
L 386.366486 -358.119919 
L 388.790924 -357.738587 
L 388.790924 -357.295692 
L 388.790924 -357.295692 
L 386.366486 -357.295692 
L 383.942049 -357.295692 
L 381.517611 -357.295692 
L 379.093173 -357.295692 
L 376.668735 -357.295692 
L 374.244297 -357.295692 
L 371.819859 -357.295692 
L 369.395421 -357.295692 
L 366.970983 -357.295692 
L 364.546545 -357.295692 
L 362.122107 -357.295692 
L 359.697669 -357.295692 
L 357.273232 -357.295692 
L 354.848794 -357.295692 
L 352.424356 -357.295692 
L 349.999918 -357.295692 
L 347.57548 -357.295692 
L 345.151042 -357.295692 
L 342.726604 -357.295692 
L 340.302166 -357.295692 
L 337.877728 -357.295692 
L 335.45329 -357.295692 
L 333.028852 -357.295692 
L 330.604415 -357.295692 
L 328.179977 -357.295692 
L 325.755539 -357.295692 
L 323.331101 -357.295692 
L 320.906663 -357.295692 
L 318.482225 -357.295692 
L 316.057787 -357.295692 
L 313.633349 -357.295692 
L 311.208911 -357.295692 
L 308.784473 -357.295692 
L 306.360035 -357.295692 
L 303.935598 -357.295692 
L 301.51116 -357.295692 
L 299.086722 -357.295692 
L 296.662284 -357.295692 
L 294.237846 -357.295692 
L 291.813408 -357.295692 
L 289.38897 -357.295692 
L 286.964532 -357.295692 
L 284.540094 -357.295692 
L 282.115656 -357.295692 
L 279.691218 -357.295692 
L 277.266781 -357.295692 
L 274.842343 -357.295692 
L 272.417905 -357.295692 
L 269.993467 -357.295692 
L 267.569029 -357.295692 
L 265.144591 -357.295692 
L 262.720153 -357.295692 
L 260.295715 -357.295692 
L 257.871277 -357.295692 
L 255.446839 -357.295692 
L 253.022401 -357.295692 
L 250.597964 -357.295692 
L 248.173526 -357.295692 
L 245.749088 -357.295692 
L 243.32465 -357.295692 
L 240.900212 -357.295692 
L 238.475774 -357.295692 
L 236.051336 -357.295692 
L 233.626898 -357.295692 
L 231.20246 -357.295692 
L 228.778022 -357.295692 
L 226.353584 -357.295692 
L 223.929147 -357.295692 
L 221.504709 -357.295692 
L 219.080271 -357.295692 
L 216.655833 -357.295692 
L 214.231395 -357.295692 
L 211.806957 -357.295692 
L 209.382519 -357.295692 
L 206.958081 -357.295692 
L 204.533643 -357.295692 
L 202.109205 -357.295692 
L 199.684767 -357.295692 
L 197.26033 -357.295692 
L 194.835892 -357.295692 
L 192.411454 -357.295692 
L 189.987016 -357.295692 
L 187.562578 -357.295692 
L 185.13814 -357.295692 
L 182.713702 -357.295692 
L 180.289264 -357.295692 
L 177.864826 -357.295692 
L 175.440388 -357.295692 
L 173.01595 -357.295692 
L 170.591513 -357.295692 
L 168.167075 -357.295692 
L 165.742637 -357.295692 
L 163.318199 -357.295692 
L 160.893761 -357.295692 
L 158.469323 -357.295692 
L 156.044885 -357.295692 
L 153.620447 -357.295692 
L 151.196009 -357.295692 
L 148.771571 -357.295692 
z
" id="mf71bf7db5c" style="stroke:#595959;"/>
    </defs>
    <g clip-path="url(#pe3d7d27484)">
     <use style="fill:#72b6a1;stroke:#595959;" x="0" xlink:href="#mf71bf7db5c" y="439.2"/>
    </g>
   </g>
   <g id="PolyCollection_2">
    <defs>
     <path d="M 108.225823 -242.394741 
L 108.225823 -243.621955 
L 110.787388 -244.529817 
L 113.348953 -245.879214 
L 115.910518 -247.73185 
L 118.472083 -250.07118 
L 121.033648 -252.769415 
L 123.595213 -255.579955 
L 126.156779 -258.168872 
L 128.718344 -260.185948 
L 131.279909 -261.358397 
L 133.841474 -261.577136 
L 136.403039 -260.943724 
L 138.964604 -259.757989 
L 141.526169 -258.447373 
L 144.087735 -257.460021 
L 146.6493 -257.156261 
L 149.210865 -257.732282 
L 151.77243 -259.196275 
L 154.333995 -261.396408 
L 156.89556 -264.080789 
L 159.457125 -266.96103 
L 162.018691 -269.757687 
L 164.580256 -272.223492 
L 167.141821 -274.157373 
L 169.703386 -275.426479 
L 172.264951 -276.001286 
L 174.826516 -275.989147 
L 177.388081 -275.639775 
L 179.949646 -275.302771 
L 182.511212 -275.339796 
L 185.072777 -276.018537 
L 187.634342 -277.427186 
L 190.195907 -279.440803 
L 192.757472 -281.750436 
L 195.319037 -283.943459 
L 197.880602 -285.608531 
L 200.442168 -286.433642 
L 203.003733 -286.269761 
L 205.565298 -285.143554 
L 208.126863 -283.218813 
L 210.688428 -280.723884 
L 213.249993 -277.874801 
L 215.811558 -274.824095 
L 218.373124 -271.65156 
L 220.934689 -268.392401 
L 223.496254 -265.081537 
L 226.057819 -261.789225 
L 228.619384 -258.632195 
L 231.180949 -255.758646 
L 233.742514 -253.316046 
L 236.30408 -251.414627 
L 238.865645 -250.098553 
L 241.42721 -249.334101 
L 243.988775 -249.020265 
L 246.55034 -249.020584 
L 249.111905 -249.206159 
L 251.67347 -249.492612 
L 254.235035 -249.853823 
L 256.796601 -250.304878 
L 259.358166 -250.862265 
L 261.919731 -251.50229 
L 264.481296 -252.141121 
L 267.042861 -252.649405 
L 269.604426 -252.896511 
L 272.165991 -252.803533 
L 274.727557 -252.378869 
L 277.289122 -251.718145 
L 279.850687 -250.967285 
L 282.412252 -250.265109 
L 284.973817 -249.691377 
L 287.535382 -249.24304 
L 290.096947 -248.847576 
L 292.658513 -248.404634 
L 295.220078 -247.834898 
L 297.781643 -247.113925 
L 300.343208 -246.278489 
L 302.904773 -245.407383 
L 305.466338 -244.589794 
L 308.027903 -243.897089 
L 310.589469 -243.368629 
L 313.151034 -243.013517 
L 315.712599 -242.823092 
L 318.274164 -242.786121 
L 320.835729 -242.899561 
L 323.397294 -243.170648 
L 325.958859 -243.609333 
L 328.520425 -244.213385 
L 331.08199 -244.951702 
L 333.643555 -245.753671 
L 336.20512 -246.51204 
L 338.766685 -247.102472 
L 341.32825 -247.415396 
L 343.889815 -247.388742 
L 346.45138 -247.027865 
L 349.012946 -246.403736 
L 351.574511 -245.630181 
L 354.136076 -244.830124 
L 356.697641 -244.104509 
L 359.259206 -243.514291 
L 361.820771 -243.078473 
L 361.820771 -242.394741 
L 361.820771 -242.394741 
L 359.259206 -242.394741 
L 356.697641 -242.394741 
L 354.136076 -242.394741 
L 351.574511 -242.394741 
L 349.012946 -242.394741 
L 346.45138 -242.394741 
L 343.889815 -242.394741 
L 341.32825 -242.394741 
L 338.766685 -242.394741 
L 336.20512 -242.394741 
L 333.643555 -242.394741 
L 331.08199 -242.394741 
L 328.520425 -242.394741 
L 325.958859 -242.394741 
L 323.397294 -242.394741 
L 320.835729 -242.394741 
L 318.274164 -242.394741 
L 315.712599 -242.394741 
L 313.151034 -242.394741 
L 310.589469 -242.394741 
L 308.027903 -242.394741 
L 305.466338 -242.394741 
L 302.904773 -242.394741 
L 300.343208 -242.394741 
L 297.781643 -242.394741 
L 295.220078 -242.394741 
L 292.658513 -242.394741 
L 290.096947 -242.394741 
L 287.535382 -242.394741 
L 284.973817 -242.394741 
L 282.412252 -242.394741 
L 279.850687 -242.394741 
L 277.289122 -242.394741 
L 274.727557 -242.394741 
L 272.165991 -242.394741 
L 269.604426 -242.394741 
L 267.042861 -242.394741 
L 264.481296 -242.394741 
L 261.919731 -242.394741 
L 259.358166 -242.394741 
L 256.796601 -242.394741 
L 254.235035 -242.394741 
L 251.67347 -242.394741 
L 249.111905 -242.394741 
L 246.55034 -242.394741 
L 243.988775 -242.394741 
L 241.42721 -242.394741 
L 238.865645 -242.394741 
L 236.30408 -242.394741 
L 233.742514 -242.394741 
L 231.180949 -242.394741 
L 228.619384 -242.394741 
L 226.057819 -242.394741 
L 223.496254 -242.394741 
L 220.934689 -242.394741 
L 218.373124 -242.394741 
L 215.811558 -242.394741 
L 213.249993 -242.394741 
L 210.688428 -242.394741 
L 208.126863 -242.394741 
L 205.565298 -242.394741 
L 203.003733 -242.394741 
L 200.442168 -242.394741 
L 197.880602 -242.394741 
L 195.319037 -242.394741 
L 192.757472 -242.394741 
L 190.195907 -242.394741 
L 187.634342 -242.394741 
L 185.072777 -242.394741 
L 182.511212 -242.394741 
L 179.949646 -242.394741 
L 177.388081 -242.394741 
L 174.826516 -242.394741 
L 172.264951 -242.394741 
L 169.703386 -242.394741 
L 167.141821 -242.394741 
L 164.580256 -242.394741 
L 162.018691 -242.394741 
L 159.457125 -242.394741 
L 156.89556 -242.394741 
L 154.333995 -242.394741 
L 151.77243 -242.394741 
L 149.210865 -242.394741 
L 146.6493 -242.394741 
L 144.087735 -242.394741 
L 141.526169 -242.394741 
L 138.964604 -242.394741 
L 136.403039 -242.394741 
L 133.841474 -242.394741 
L 131.279909 -242.394741 
L 128.718344 -242.394741 
L 126.156779 -242.394741 
L 123.595213 -242.394741 
L 121.033648 -242.394741 
L 118.472083 -242.394741 
L 115.910518 -242.394741 
L 113.348953 -242.394741 
L 110.787388 -242.394741 
L 108.225823 -242.394741 
z
" id="madc40a6d92" style="stroke:#595959;"/>
    </defs>
    <g clip-path="url(#pe3d7d27484)">
     <use style="fill:#e99675;stroke:#595959;" x="0" xlink:href="#madc40a6d92" y="439.2"/>
    </g>
   </g>
   <g id="PolyCollection_3">
    <defs>
     <path d="M 125.079422 -127.49379 
L 125.079422 -131.082899 
L 127.249701 -133.451851 
L 129.419981 -136.832282 
L 131.59026 -141.315221 
L 133.76054 -146.812616 
L 135.930819 -152.997454 
L 138.101099 -159.296006 
L 140.271379 -164.955072 
L 142.441658 -169.182815 
L 144.611938 -171.330901 
L 146.782217 -171.062827 
L 148.952497 -168.451498 
L 151.122776 -163.972092 
L 153.293056 -158.394312 
L 155.463335 -152.613232 
L 157.633615 -147.473879 
L 159.803895 -143.636019 
L 161.974174 -141.500527 
L 164.144454 -141.19274 
L 166.314733 -142.584386 
L 168.485013 -145.337447 
L 170.655292 -148.963674 
L 172.825572 -152.901163 
L 174.995851 -156.607054 
L 177.166131 -159.654084 
L 179.336411 -161.807277 
L 181.50669 -163.055148 
L 183.67697 -163.581736 
L 185.847249 -163.686775 
L 188.017529 -163.681123 
L 190.187808 -163.793319 
L 192.358088 -164.117227 
L 194.528367 -164.613506 
L 196.698647 -165.157168 
L 198.868927 -165.607593 
L 201.039206 -165.871533 
L 203.209486 -165.935084 
L 205.379765 -165.855024 
L 207.550045 -165.717474 
L 209.720324 -165.585357 
L 211.890604 -165.459797 
L 214.060884 -165.2727 
L 216.231163 -164.912306 
L 218.401443 -164.268208 
L 220.571722 -163.274374 
L 222.742002 -161.931413 
L 224.912281 -160.300291 
L 227.082561 -158.472946 
L 229.25284 -156.534455 
L 231.42312 -154.533226 
L 233.5934 -152.470554 
L 235.763679 -150.312026 
L 237.933959 -148.014596 
L 240.104238 -145.557745 
L 242.274518 -142.966401 
L 244.444797 -140.317052 
L 246.615077 -137.725188 
L 248.785356 -135.31925 
L 250.955636 -133.21091 
L 253.125916 -131.471901 
L 255.296195 -130.124009 
L 257.466475 -129.14312 
L 259.636754 -128.473219 
L 261.807034 -128.043924 
L 263.977313 -127.785789 
L 266.147593 -127.640136 
L 268.317872 -127.563006 
L 270.488152 -127.524668 
L 272.658432 -127.506779 
L 274.828711 -127.498945 
L 276.998991 -127.495732 
L 279.16927 -127.494529 
L 281.33955 -127.494214 
L 283.509829 -127.494462 
L 285.680109 -127.495526 
L 287.850388 -127.498395 
L 290.020668 -127.505408 
L 292.190948 -127.521411 
L 294.361227 -127.555619 
L 296.531507 -127.624093 
L 298.701786 -127.752323 
L 300.872066 -127.976714 
L 303.042345 -128.343051 
L 305.212625 -128.899849 
L 307.382904 -129.685413 
L 309.553184 -130.709878 
L 311.723464 -131.936928 
L 313.893743 -133.272773 
L 316.064023 -134.570197 
L 318.234302 -135.651608 
L 320.404582 -136.347697 
L 322.574861 -136.540605 
L 324.745141 -136.196535 
L 326.915421 -135.375429 
L 329.0857 -134.213904 
L 331.25598 -132.888107 
L 333.426259 -131.570371 
L 335.596539 -130.394174 
L 337.766818 -129.43653 
L 339.937098 -128.718896 
L 339.937098 -127.49379 
L 339.937098 -127.49379 
L 337.766818 -127.49379 
L 335.596539 -127.49379 
L 333.426259 -127.49379 
L 331.25598 -127.49379 
L 329.0857 -127.49379 
L 326.915421 -127.49379 
L 324.745141 -127.49379 
L 322.574861 -127.49379 
L 320.404582 -127.49379 
L 318.234302 -127.49379 
L 316.064023 -127.49379 
L 313.893743 -127.49379 
L 311.723464 -127.49379 
L 309.553184 -127.49379 
L 307.382904 -127.49379 
L 305.212625 -127.49379 
L 303.042345 -127.49379 
L 300.872066 -127.49379 
L 298.701786 -127.49379 
L 296.531507 -127.49379 
L 294.361227 -127.49379 
L 292.190948 -127.49379 
L 290.020668 -127.49379 
L 287.850388 -127.49379 
L 285.680109 -127.49379 
L 283.509829 -127.49379 
L 281.33955 -127.49379 
L 279.16927 -127.49379 
L 276.998991 -127.49379 
L 274.828711 -127.49379 
L 272.658432 -127.49379 
L 270.488152 -127.49379 
L 268.317872 -127.49379 
L 266.147593 -127.49379 
L 263.977313 -127.49379 
L 261.807034 -127.49379 
L 259.636754 -127.49379 
L 257.466475 -127.49379 
L 255.296195 -127.49379 
L 253.125916 -127.49379 
L 250.955636 -127.49379 
L 248.785356 -127.49379 
L 246.615077 -127.49379 
L 244.444797 -127.49379 
L 242.274518 -127.49379 
L 240.104238 -127.49379 
L 237.933959 -127.49379 
L 235.763679 -127.49379 
L 233.5934 -127.49379 
L 231.42312 -127.49379 
L 229.25284 -127.49379 
L 227.082561 -127.49379 
L 224.912281 -127.49379 
L 222.742002 -127.49379 
L 220.571722 -127.49379 
L 218.401443 -127.49379 
L 216.231163 -127.49379 
L 214.060884 -127.49379 
L 211.890604 -127.49379 
L 209.720324 -127.49379 
L 207.550045 -127.49379 
L 205.379765 -127.49379 
L 203.209486 -127.49379 
L 201.039206 -127.49379 
L 198.868927 -127.49379 
L 196.698647 -127.49379 
L 194.528367 -127.49379 
L 192.358088 -127.49379 
L 190.187808 -127.49379 
L 188.017529 -127.49379 
L 185.847249 -127.49379 
L 183.67697 -127.49379 
L 181.50669 -127.49379 
L 179.336411 -127.49379 
L 177.166131 -127.49379 
L 174.995851 -127.49379 
L 172.825572 -127.49379 
L 170.655292 -127.49379 
L 168.485013 -127.49379 
L 166.314733 -127.49379 
L 164.144454 -127.49379 
L 161.974174 -127.49379 
L 159.803895 -127.49379 
L 157.633615 -127.49379 
L 155.463335 -127.49379 
L 153.293056 -127.49379 
L 151.122776 -127.49379 
L 148.952497 -127.49379 
L 146.782217 -127.49379 
L 144.611938 -127.49379 
L 142.441658 -127.49379 
L 140.271379 -127.49379 
L 138.101099 -127.49379 
L 135.930819 -127.49379 
L 133.76054 -127.49379 
L 131.59026 -127.49379 
L 129.419981 -127.49379 
L 127.249701 -127.49379 
L 125.079422 -127.49379 
z
" id="mc075aae716" style="stroke:#595959;"/>
    </defs>
    <g clip-path="url(#pe3d7d27484)">
     <use style="fill:#95a3c3;stroke:#595959;" x="0" xlink:href="#mc075aae716" y="439.2"/>
    </g>
   </g>
   <g id="PathCollection_4">
    <defs>
     <path d="M 0 3.383948 
C 0.897434 3.383948 1.758231 3.027394 2.392813 2.392813 
C 3.027394 1.758231 3.383948 0.897434 3.383948 -0 
C 3.383948 -0.897434 3.027394 -1.758231 2.392813 -2.392813 
C 1.758231 -3.027394 0.897434 -3.383948 0 -3.383948 
C -0.897434 -3.383948 -1.758231 -3.027394 -2.392813 -2.392813 
C -3.027394 -1.758231 -3.383948 -0.897434 -3.383948 0 
C -3.383948 0.897434 -3.027394 1.758231 -2.392813 2.392813 
C -1.758231 3.027394 -0.897434 3.383948 0 3.383948 
z
" id="C3_0_a8b19a743c"/>
    </defs>
    <g clip-path="url(#pe3d7d27484)">
     <use style="fill:#ff0000;stroke:#ff0000;stroke-width:2.025;" x="220.320479" xlink:href="#C3_0_a8b19a743c" y="104.884499"/>
    </g>
    <g clip-path="url(#pe3d7d27484)">
     <use style="fill:#ff0000;stroke:#ff0000;stroke-width:2.025;" x="199.404906" xlink:href="#C3_0_a8b19a743c" y="219.785449"/>
    </g>
    <g clip-path="url(#pe3d7d27484)">
     <use style="fill:#ff0000;stroke:#ff0000;stroke-width:2.025;" x="195.419076" xlink:href="#C3_0_a8b19a743c" y="334.6864"/>
    </g>
   </g>
   <g id="matplotlib.axis_1">
    <g id="xtick_1">
     <g id="line2d_1">
      <defs>
       <path d="M 0 0 
L 0 -5 
" id="meb203cb4c9" style="stroke:#000000;"/>
      </defs>
      <g>
       <use style="stroke:#000000;" x="96.751798" xlink:href="#meb203cb4c9" y="392.136875"/>
      </g>
     </g>
     <g id="text_1">
      <text style="font-family:DejaVu Sans;font-size:12px;font-stretch:normal;font-style:normal;font-weight:normal;text-anchor:middle;" transform="rotate(-0, 96.751798, 404.755)" x="96.751798" y="404.755">0.0</text>
     </g>
    </g>
    <g id="xtick_2">
     <g id="line2d_2">
      <g>
       <use style="stroke:#000000;" x="158.084227" xlink:href="#meb203cb4c9" y="392.136875"/>
      </g>
     </g>
     <g id="text_2">
      <text style="font-family:DejaVu Sans;font-size:12px;font-stretch:normal;font-style:normal;font-weight:normal;text-anchor:middle;" transform="rotate(-0, 158.084227, 404.755)" x="158.084227" y="404.755">0.5</text>
     </g>
    </g>
    <g id="xtick_3">
     <g id="line2d_3">
      <g>
       <use style="stroke:#000000;" x="219.416656" xlink:href="#meb203cb4c9" y="392.136875"/>
      </g>
     </g>
     <g id="text_3">
      <text style="font-family:DejaVu Sans;font-size:12px;font-stretch:normal;font-style:normal;font-weight:normal;text-anchor:middle;" transform="rotate(-0, 219.416656, 404.755)" x="219.416656" y="404.755">1.0</text>
     </g>
    </g>
    <g id="xtick_4">
     <g id="line2d_4">
      <g>
       <use style="stroke:#000000;" x="280.749085" xlink:href="#meb203cb4c9" y="392.136875"/>
      </g>
     </g>
     <g id="text_4">
      <text style="font-family:DejaVu Sans;font-size:12px;font-stretch:normal;font-style:normal;font-weight:normal;text-anchor:middle;" transform="rotate(-0, 280.749085, 404.755)" x="280.749085" y="404.755">1.5</text>
     </g>
    </g>
    <g id="xtick_5">
     <g id="line2d_5">
      <g>
       <use style="stroke:#000000;" x="342.081514" xlink:href="#meb203cb4c9" y="392.136875"/>
      </g>
     </g>
     <g id="text_5">
      <text style="font-family:DejaVu Sans;font-size:12px;font-stretch:normal;font-style:normal;font-weight:normal;text-anchor:middle;" transform="rotate(-0, 342.081514, 404.755)" x="342.081514" y="404.755">2.0</text>
     </g>
    </g>
    <g id="xtick_6">
     <g id="line2d_6">
      <g>
       <use style="stroke:#000000;" x="403.413943" xlink:href="#meb203cb4c9" y="392.136875"/>
      </g>
     </g>
     <g id="text_6">
      <text style="font-family:DejaVu Sans;font-size:12px;font-stretch:normal;font-style:normal;font-weight:normal;text-anchor:middle;" transform="rotate(-0, 403.413943, 404.755)" x="403.413943" y="404.755">2.5</text>
     </g>
    </g>
    <g id="xtick_7">
     <g id="line2d_7">
      <g>
       <use style="stroke:#000000;" x="464.746372" xlink:href="#meb203cb4c9" y="392.136875"/>
      </g>
     </g>
     <g id="text_7">
      <text style="font-family:DejaVu Sans;font-size:12px;font-stretch:normal;font-style:normal;font-weight:normal;text-anchor:middle;" transform="rotate(-0, 464.746372, 404.755)" x="464.746372" y="404.755">3.0</text>
     </g>
    </g>
    <g id="text_8">
     <text style="font-family:DejaVu Sans;font-size:14px;font-stretch:normal;font-style:normal;font-weight:normal;text-anchor:middle;" transform="rotate(-0, 290.642656, 421.888438)" x="290.642656" y="421.888438">SZR</text>
    </g>
   </g>
   <g id="matplotlib.axis_2">
    <g id="ytick_1">
     <g id="line2d_8">
      <defs>
       <path d="M 0 0 
L 5 0 
" id="mc44509ef86" style="stroke:#000000;"/>
      </defs>
      <g>
       <use style="stroke:#000000;" x="84.485313" xlink:href="#mc44509ef86" y="104.884499"/>
      </g>
     </g>
     <g id="text_9">
      <text style="font-family:DejaVu Sans;font-size:14px;font-stretch:normal;font-style:normal;font-weight:normal;text-anchor:end;" transform="rotate(-0, 80.985313, 110.203405)" x="80.985313" y="110.203405">Healthy</text>
     </g>
    </g>
    <g id="ytick_2">
     <g id="line2d_9">
      <g>
       <use style="stroke:#000000;" x="84.485313" xlink:href="#mc44509ef86" y="219.785449"/>
      </g>
     </g>
     <g id="text_10">
      <text style="font-family:DejaVu Sans;font-size:14px;font-stretch:normal;font-style:normal;font-weight:normal;text-anchor:end;" transform="rotate(-0, 80.985313, 225.104355)" x="80.985313" y="225.104355">Mild</text>
     </g>
    </g>
    <g id="ytick_3">
     <g id="line2d_10">
      <g>
       <use style="stroke:#000000;" x="84.485313" xlink:href="#mc44509ef86" y="334.6864"/>
      </g>
     </g>
     <g id="text_11">
      <text style="font-family:DejaVu Sans;font-size:14px;font-stretch:normal;font-style:normal;font-weight:normal;" transform="translate(14.4 333.230618)">Moderate</text>
      <text style="font-family:DejaVu Sans;font-size:14px;font-stretch:normal;font-style:normal;font-weight:normal;" transform="translate(29.071562 348.907556)">-severe</text>
     </g>
    </g>
   </g>
   <g id="line2d_11">
    <path clip-path="url(#pe3d7d27484)" d="M 163.060458 100.575713 
L 163.060458 109.193284 
" style="fill:none;stroke:#595959;stroke-linecap:square;stroke-width:1.5;"/>
   </g>
   <g id="line2d_12">
    <path clip-path="url(#pe3d7d27484)" d="M 287.332908 100.575713 
L 287.332908 109.193284 
" style="fill:none;stroke:#595959;stroke-linecap:square;stroke-width:1.5;"/>
   </g>
   <g id="line2d_13">
    <defs>
     <path d="M -0 3.535534 
L 2.12132 0 
L -0 -3.535534 
L -2.12132 -0 
z
" id="m40a130730b" style="stroke:#595959;stroke-linejoin:miter;"/>
    </defs>
    <g clip-path="url(#pe3d7d27484)">
     <use style="fill:#595959;stroke:#595959;stroke-linejoin:miter;" x="374.502037" xlink:href="#m40a130730b" y="104.884499"/>
    </g>
   </g>
   <g id="line2d_14">
    <path clip-path="url(#pe3d7d27484)" d="M 127.633124 215.476663 
L 127.633124 224.094235 
" style="fill:none;stroke:#595959;stroke-linecap:square;stroke-width:1.5;"/>
   </g>
   <g id="line2d_15">
    <path clip-path="url(#pe3d7d27484)" d="M 273.890419 215.476663 
L 273.890419 224.094235 
" style="fill:none;stroke:#595959;stroke-linecap:square;stroke-width:1.5;"/>
   </g>
   <g id="line2d_16">
    <g clip-path="url(#pe3d7d27484)">
     <use style="fill:#595959;stroke:#595959;stroke-linejoin:miter;" x="292.828976" xlink:href="#m40a130730b" y="219.785449"/>
     <use style="fill:#595959;stroke:#595959;stroke-linejoin:miter;" x="342.41347" xlink:href="#m40a130730b" y="219.785449"/>
    </g>
   </g>
   <g id="line2d_17">
    <path clip-path="url(#pe3d7d27484)" d="M 142.751407 330.377614 
L 142.751407 338.995185 
" style="fill:none;stroke:#595959;stroke-linecap:square;stroke-width:1.5;"/>
   </g>
   <g id="line2d_18">
    <path clip-path="url(#pe3d7d27484)" d="M 240.629329 330.377614 
L 240.629329 338.995185 
" style="fill:none;stroke:#595959;stroke-linecap:square;stroke-width:1.5;"/>
   </g>
   <g id="line2d_19">
    <g clip-path="url(#pe3d7d27484)">
     <use style="fill:#595959;stroke:#595959;stroke-linejoin:miter;" x="322.265113" xlink:href="#m40a130730b" y="334.6864"/>
    </g>
   </g>
   <g id="line2d_20">
    <path clip-path="url(#pe3d7d27484)" d="M 220.320479 104.884499 
L 199.404906 219.785449 
L 195.419076 334.6864 
" style="fill:none;stroke:#ff0000;stroke-linecap:square;stroke-width:2.7;"/>
   </g>
   <g id="line2d_21">
    <path clip-path="url(#pe3d7d27484)" d="M 212.463899 104.884499 
L 229.394045 104.884499 
" style="fill:none;"/>
   </g>
   <g id="line2d_22">
    <path clip-path="url(#pe3d7d27484)" d="M 212.463899 104.884499 
L 212.463899 104.884499 
" style="fill:none;"/>
   </g>
   <g id="line2d_23">
    <path clip-path="url(#pe3d7d27484)" d="M 229.394045 104.884499 
L 229.394045 104.884499 
" style="fill:none;"/>
   </g>
   <g id="line2d_24">
    <path clip-path="url(#pe3d7d27484)" d="M 183.906704 219.785449 
L 216.389962 219.785449 
" style="fill:none;"/>
   </g>
   <g id="line2d_25">
    <path clip-path="url(#pe3d7d27484)" d="M 183.906704 219.785449 
L 183.906704 219.785449 
" style="fill:none;"/>
   </g>
   <g id="line2d_26">
    <path clip-path="url(#pe3d7d27484)" d="M 216.389962 219.785449 
L 216.389962 219.785449 
" style="fill:none;"/>
   </g>
   <g id="line2d_27">
    <path clip-path="url(#pe3d7d27484)" d="M 177.239907 334.6864 
L 214.524814 334.6864 
" style="fill:none;"/>
   </g>
   <g id="line2d_28">
    <path clip-path="url(#pe3d7d27484)" d="M 177.239907 334.6864 
L 177.239907 334.6864 
" style="fill:none;"/>
   </g>
   <g id="line2d_29">
    <path clip-path="url(#pe3d7d27484)" d="M 214.524814 334.6864 
L 214.524814 334.6864 
" style="fill:none;"/>
   </g>
   <g id="line2d_30">
    <path clip-path="url(#pe3d7d27484)" d="M 394.994639 104.884499 
L 401.167071 104.884499 
L 401.167071 219.785449 
L 394.994639 219.785449 
" style="fill:none;stroke:#333333;stroke-linecap:square;stroke-width:1.5;"/>
   </g>
   <g id="line2d_31">
    <path clip-path="url(#pe3d7d27484)" d="M 425.459807 219.785449 
L 431.632239 219.785449 
L 431.632239 334.6864 
L 425.459807 334.6864 
" style="fill:none;stroke:#333333;stroke-linecap:square;stroke-width:1.5;"/>
   </g>
   <g id="line2d_32">
    <path clip-path="url(#pe3d7d27484)" d="M 459.64241 104.884499 
L 465.814842 104.884499 
L 465.814842 334.6864 
L 459.64241 334.6864 
" style="fill:none;stroke:#333333;stroke-linecap:square;stroke-width:1.5;"/>
   </g>
   <g id="line2d_33">
    <path clip-path="url(#pe3d7d27484)" d="M 214.460747 96.266927 
L 214.460747 113.50207 
" style="fill:none;stroke:#595959;stroke-linecap:square;stroke-width:1.5;"/>
   </g>
   <g id="line2d_34">
    <path clip-path="url(#pe3d7d27484)" d="M 196.300708 211.167878 
L 196.300708 228.40302 
" style="fill:none;stroke:#595959;stroke-linecap:square;stroke-width:1.5;"/>
   </g>
   <g id="line2d_35">
    <path clip-path="url(#pe3d7d27484)" d="M 195.243619 326.068828 
L 195.243619 343.303971 
" style="fill:none;stroke:#595959;stroke-linecap:square;stroke-width:1.5;"/>
   </g>
   <g id="patch_3">
    <path d="M 84.485313 392.136875 
L 84.485313 14.4 
" style="fill:none;stroke:#000000;stroke-linecap:square;stroke-linejoin:miter;"/>
   </g>
   <g id="patch_4">
    <path d="M 496.8 392.136875 
L 496.8 14.4 
" style="fill:none;stroke:#000000;stroke-linecap:square;stroke-linejoin:miter;"/>
   </g>
   <g id="patch_5">
    <path d="M 84.485313 392.136875 
L 496.8 392.136875 
" style="fill:none;stroke:#000000;stroke-linecap:square;stroke-linejoin:miter;"/>
   </g>
   <g id="patch_6">
    <path d="M 84.485313 14.4 
L 496.8 14.4 
" style="fill:none;stroke:#000000;stroke-linecap:square;stroke-linejoin:miter;"/>
   </g>
   <g id="text_12">
    <text style="font-family:DejaVu Sans;font-size:16px;font-stretch:normal;font-style:normal;font-weight:normal;text-anchor:middle;" transform="rotate(-270, 405.494571, 162.334974)" x="405.494571" y="162.334974">*</text>
   </g>
   <g id="text_13">
    <text style="font-family:DejaVu Sans;font-size:16px;font-stretch:normal;font-style:normal;font-weight:normal;text-anchor:middle;" transform="rotate(-270, 435.959739, 277.235924)" x="435.959739" y="277.235924">ns</text>
   </g>
   <g id="text_14">
    <text style="font-family:DejaVu Sans;font-size:16px;font-stretch:normal;font-style:normal;font-weight:normal;text-anchor:middle;" transform="rotate(-270, 470.142342, 219.785449)" x="470.142342" y="219.785449">*</text>
   </g>
   <g id="line2d_36">
    <path clip-path="url(#pe3d7d27484)" d="M 200.561922 104.884499 
L 163.060458 104.884499 
" style="fill:none;stroke:#595959;stroke-linecap:square;stroke-width:2;"/>
   </g>
   <g id="line2d_37">
    <path clip-path="url(#pe3d7d27484)" d="M 240.889238 104.884499 
L 287.332908 104.884499 
" style="fill:none;stroke:#595959;stroke-linecap:square;stroke-width:2;"/>
   </g>
   <g id="line2d_38">
    <path clip-path="url(#pe3d7d27484)" d="M 170.688971 219.785449 
L 127.633124 219.785449 
" style="fill:none;stroke:#595959;stroke-linecap:square;stroke-width:2;"/>
   </g>
   <g id="line2d_39">
    <path clip-path="url(#pe3d7d27484)" d="M 217.993425 219.785449 
L 273.890419 219.785449 
" style="fill:none;stroke:#595959;stroke-linecap:square;stroke-width:2;"/>
   </g>
   <g id="line2d_40">
    <path clip-path="url(#pe3d7d27484)" d="M 161.883732 334.6864 
L 142.751407 334.6864 
" style="fill:none;stroke:#595959;stroke-linecap:square;stroke-width:2;"/>
   </g>
   <g id="line2d_41">
    <path clip-path="url(#pe3d7d27484)" d="M 217.574389 334.6864 
L 240.629329 334.6864 
" style="fill:none;stroke:#595959;stroke-linecap:square;stroke-width:2;"/>
   </g>
   <g id="patch_7">
    <path clip-path="url(#pe3d7d27484)" d="M 200.561922 96.266927 
L 200.561922 113.50207 
L 240.889238 113.50207 
L 240.889238 96.266927 
L 200.561922 96.266927 
z
" style="fill:none;stroke:#595959;stroke-linejoin:miter;stroke-width:1.5;"/>
   </g>
   <g id="patch_8">
    <path clip-path="url(#pe3d7d27484)" d="M 170.688971 211.167878 
L 170.688971 228.40302 
L 217.993425 228.40302 
L 217.993425 211.167878 
L 170.688971 211.167878 
z
" style="fill:none;stroke:#595959;stroke-linejoin:miter;stroke-width:1.5;"/>
   </g>
   <g id="patch_9">
    <path clip-path="url(#pe3d7d27484)" d="M 161.883732 326.068828 
L 161.883732 343.303971 
L 217.574389 343.303971 
L 217.574389 326.068828 
L 161.883732 326.068828 
z
" style="fill:none;stroke:#595959;stroke-linejoin:miter;stroke-width:1.5;"/>
   </g>
  </g>
 </g>
 <defs>
  <clipPath id="pe3d7d27484">
   <rect height="377.736875" width="412.314687" x="84.485313" y="14.4"/>
  </clipPath>
 </defs>
</svg>
