<?xml version="1.0" encoding="utf-8" standalone="no"?>
<!DOCTYPE svg PUBLIC "-//W3C//DTD SVG 1.1//EN"
  "http://www.w3.org/Graphics/SVG/1.1/DTD/svg11.dtd">
<!-- Created with matplotlib (https://matplotlib.org/) -->
<svg height="439.2pt" version="1.1" viewBox="0 0 511.2 439.2" width="511.2pt" xmlns="http://www.w3.org/2000/svg" xmlns:xlink="http://www.w3.org/1999/xlink">
 <metadata>
  <rdf:RDF xmlns:cc="http://creativecommons.org/ns#" xmlns:dc="http://purl.org/dc/elements/1.1/" xmlns:rdf="http://www.w3.org/1999/02/22-rdf-syntax-ns#">
   <cc:Work>
    <dc:type rdf:resource="http://purl.org/dc/dcmitype/StillImage"/>
    <dc:date>2022-06-23T15:48:14.022848</dc:date>
    <dc:format>image/svg+xml</dc:format>
    <dc:creator>
     <cc:Agent>
      <dc:title>Matplotlib v3.3.3, https://matplotlib.org/</dc:title>
     </cc:Agent>
    </dc:creator>
   </cc:Work>
  </rdf:RDF>
 </metadata>
 <defs>
  <style type="text/css">*{stroke-linecap:butt;stroke-linejoin:round;}</style>
 </defs>
 <g id="figure_1">
  <g id="patch_1">
   <path d="M 0 439.2 
L 511.2 439.2 
L 511.2 0 
L 0 0 
z
" style="fill:#ffffff;"/>
  </g>
  <g id="axes_1">
   <g id="patch_2">
    <path d="M 84.485313 392.136875 
L 496.8 392.136875 
L 496.8 14.4 
L 84.485313 14.4 
z
" style="fill:#ffffff;"/>
   </g>
   <g id="PathCollection_1">
    <defs>
     <path d="M 0 2 
C 0.530406 2 1.03916 1.789267 1.414214 1.414214 
C 1.789267 1.03916 2 0.530406 2 -0 
C 2 -0.530406 1.789267 -1.03916 1.414214 -1.414214 
C 1.03916 -1.789267 0.530406 -2 0 -2 
C -0.530406 -2 -1.03916 -1.789267 -1.414214 -1.414214 
C -1.789267 -1.03916 -2 -0.530406 -2 0 
C -2 0.530406 -1.789267 1.03916 -1.414214 1.414214 
C -1.03916 1.789267 -0.530406 2 0 2 
z
" id="C0_0_4ed0736831"/>
    </defs>
    <g clip-path="url(#p850b57a97f)">
     <use style="fill:#66c2a5;" x="304.0792" xlink:href="#C0_0_4ed0736831" y="99.669431"/>
    </g>
    <g clip-path="url(#p850b57a97f)">
     <use style="fill:#66c2a5;" x="278.386751" xlink:href="#C0_0_4ed0736831" y="114.639787"/>
    </g>
    <g clip-path="url(#p850b57a97f)">
     <use style="fill:#66c2a5;" x="218.437702" xlink:href="#C0_0_4ed0736831" y="101.27522"/>
    </g>
    <g clip-path="url(#p850b57a97f)">
     <use style="fill:#66c2a5;" x="308.361275" xlink:href="#C0_0_4ed0736831" y="103.967588"/>
    </g>
    <g clip-path="url(#p850b57a97f)">
     <use style="fill:#66c2a5;" x="192.745252" xlink:href="#C0_0_4ed0736831" y="94.279515"/>
    </g>
    <g clip-path="url(#p850b57a97f)">
     <use style="fill:#66c2a5;" x="231.283927" xlink:href="#C0_0_4ed0736831" y="109.355265"/>
    </g>
    <g clip-path="url(#p850b57a97f)">
     <use style="fill:#66c2a5;" x="286.9509" xlink:href="#C0_0_4ed0736831" y="110.561915"/>
    </g>
    <g clip-path="url(#p850b57a97f)">
     <use style="fill:#66c2a5;" x="252.694301" xlink:href="#C0_0_4ed0736831" y="113.696616"/>
    </g>
    <g clip-path="url(#p850b57a97f)">
     <use style="fill:#66c2a5;" x="222.719777" xlink:href="#C0_0_4ed0736831" y="114.9939"/>
    </g>
    <g clip-path="url(#p850b57a97f)">
     <use style="fill:#66c2a5;" x="316.925425" xlink:href="#C0_0_4ed0736831" y="105.755198"/>
    </g>
    <g clip-path="url(#p850b57a97f)">
     <use style="fill:#66c2a5;" x="321.2075" xlink:href="#C0_0_4ed0736831" y="109.882524"/>
    </g>
    <g clip-path="url(#p850b57a97f)">
     <use style="fill:#66c2a5;" x="312.64335" xlink:href="#C0_0_4ed0736831" y="115.045467"/>
    </g>
    <g clip-path="url(#p850b57a97f)">
     <use style="fill:#66c2a5;" x="235.566002" xlink:href="#C0_0_4ed0736831" y="95.372613"/>
    </g>
    <g clip-path="url(#p850b57a97f)">
     <use style="fill:#66c2a5;" x="214.155627" xlink:href="#C0_0_4ed0736831" y="111.718255"/>
    </g>
    <g clip-path="url(#p850b57a97f)">
     <use style="fill:#66c2a5;" x="227.001852" xlink:href="#C0_0_4ed0736831" y="113.155515"/>
    </g>
    <g clip-path="url(#p850b57a97f)">
     <use style="fill:#66c2a5;" x="175.616953" xlink:href="#C0_0_4ed0736831" y="110.91479"/>
    </g>
    <g clip-path="url(#p850b57a97f)">
     <use style="fill:#66c2a5;" x="304.0792" xlink:href="#C0_0_4ed0736831" y="95.64161"/>
    </g>
    <g clip-path="url(#p850b57a97f)">
     <use style="fill:#66c2a5;" x="252.694301" xlink:href="#C0_0_4ed0736831" y="98.853352"/>
    </g>
    <g clip-path="url(#p850b57a97f)">
     <use style="fill:#66c2a5;" x="286.9509" xlink:href="#C0_0_4ed0736831" y="93.977793"/>
    </g>
    <g clip-path="url(#p850b57a97f)">
     <use style="fill:#66c2a5;" x="312.64335" xlink:href="#C0_0_4ed0736831" y="112.390102"/>
    </g>
    <g clip-path="url(#p850b57a97f)">
     <use style="fill:#66c2a5;" x="364.028249" xlink:href="#C0_0_4ed0736831" y="103.681904"/>
    </g>
    <g clip-path="url(#p850b57a97f)">
     <use style="fill:#66c2a5;" x="227.001852" xlink:href="#C0_0_4ed0736831" y="94.150535"/>
    </g>
    <g clip-path="url(#p850b57a97f)">
     <use style="fill:#66c2a5;" x="261.258451" xlink:href="#C0_0_4ed0736831" y="101.433237"/>
    </g>
    <g clip-path="url(#p850b57a97f)">
     <use style="fill:#66c2a5;" x="269.822601" xlink:href="#C0_0_4ed0736831" y="113.771863"/>
    </g>
    <g clip-path="url(#p850b57a97f)">
     <use style="fill:#66c2a5;" x="175.616953" xlink:href="#C0_0_4ed0736831" y="98.597273"/>
    </g>
    <g clip-path="url(#p850b57a97f)">
     <use style="fill:#66c2a5;" x="158.488653" xlink:href="#C0_0_4ed0736831" y="114.975406"/>
    </g>
    <g clip-path="url(#p850b57a97f)">
     <use style="fill:#66c2a5;" x="321.2075" xlink:href="#C0_0_4ed0736831" y="108.500097"/>
    </g>
    <g clip-path="url(#p850b57a97f)">
     <use style="fill:#66c2a5;" x="244.130151" xlink:href="#C0_0_4ed0736831" y="110.961642"/>
    </g>
    <g clip-path="url(#p850b57a97f)">
     <use style="fill:#66c2a5;" x="372.592398" xlink:href="#C0_0_4ed0736831" y="97.835192"/>
    </g>
    <g clip-path="url(#p850b57a97f)">
     <use style="fill:#66c2a5;" x="269.822601" xlink:href="#C0_0_4ed0736831" y="115.217002"/>
    </g>
    <g clip-path="url(#p850b57a97f)">
     <use style="fill:#66c2a5;" x="265.540526" xlink:href="#C0_0_4ed0736831" y="100.846972"/>
    </g>
    <g clip-path="url(#p850b57a97f)">
     <use style="fill:#66c2a5;" x="248.412226" xlink:href="#C0_0_4ed0736831" y="96.765095"/>
    </g>
    <g clip-path="url(#p850b57a97f)">
     <use style="fill:#66c2a5;" x="269.822601" xlink:href="#C0_0_4ed0736831" y="95.738253"/>
    </g>
    <g clip-path="url(#p850b57a97f)">
     <use style="fill:#66c2a5;" x="214.155627" xlink:href="#C0_0_4ed0736831" y="103.955673"/>
    </g>
    <g clip-path="url(#p850b57a97f)">
     <use style="fill:#66c2a5;" x="278.386751" xlink:href="#C0_0_4ed0736831" y="100.718148"/>
    </g>
    <g clip-path="url(#p850b57a97f)">
     <use style="fill:#66c2a5;" x="304.0792" xlink:href="#C0_0_4ed0736831" y="99.464244"/>
    </g>
    <g clip-path="url(#p850b57a97f)">
     <use style="fill:#66c2a5;" x="201.309402" xlink:href="#C0_0_4ed0736831" y="108.182294"/>
    </g>
    <g clip-path="url(#p850b57a97f)">
     <use style="fill:#66c2a5;" x="342.617874" xlink:href="#C0_0_4ed0736831" y="101.534805"/>
    </g>
    <g clip-path="url(#p850b57a97f)">
     <use style="fill:#66c2a5;" x="351.182024" xlink:href="#C0_0_4ed0736831" y="108.228323"/>
    </g>
    <g clip-path="url(#p850b57a97f)">
     <use style="fill:#66c2a5;" x="299.797125" xlink:href="#C0_0_4ed0736831" y="99.661933"/>
    </g>
    <g clip-path="url(#p850b57a97f)">
     <use style="fill:#66c2a5;" x="329.771649" xlink:href="#C0_0_4ed0736831" y="102.444014"/>
    </g>
    <g clip-path="url(#p850b57a97f)">
     <use style="fill:#66c2a5;" x="359.746174" xlink:href="#C0_0_4ed0736831" y="103.092526"/>
    </g>
    <g clip-path="url(#p850b57a97f)">
     <use style="fill:#66c2a5;" x="265.540526" xlink:href="#C0_0_4ed0736831" y="106.404979"/>
    </g>
    <g clip-path="url(#p850b57a97f)">
     <use style="fill:#66c2a5;" x="299.797125" xlink:href="#C0_0_4ed0736831" y="94.315597"/>
    </g>
    <g clip-path="url(#p850b57a97f)">
     <use style="fill:#66c2a5;" x="227.001852" xlink:href="#C0_0_4ed0736831" y="109.073971"/>
    </g>
    <g clip-path="url(#p850b57a97f)">
     <use style="fill:#66c2a5;" x="252.694301" xlink:href="#C0_0_4ed0736831" y="96.363068"/>
    </g>
    <g clip-path="url(#p850b57a97f)">
     <use style="fill:#66c2a5;" x="334.053724" xlink:href="#C0_0_4ed0736831" y="99.475734"/>
    </g>
    <g clip-path="url(#p850b57a97f)">
     <use style="fill:#66c2a5;" x="282.668825" xlink:href="#C0_0_4ed0736831" y="107.016073"/>
    </g>
    <g clip-path="url(#p850b57a97f)">
     <use style="fill:#66c2a5;" x="278.386751" xlink:href="#C0_0_4ed0736831" y="111.701412"/>
    </g>
    <g clip-path="url(#p850b57a97f)">
     <use style="fill:#66c2a5;" x="304.0792" xlink:href="#C0_0_4ed0736831" y="113.421134"/>
    </g>
    <g clip-path="url(#p850b57a97f)">
     <use style="fill:#66c2a5;" x="252.694301" xlink:href="#C0_0_4ed0736831" y="102.037552"/>
    </g>
    <g clip-path="url(#p850b57a97f)">
     <use style="fill:#66c2a5;" x="304.0792" xlink:href="#C0_0_4ed0736831" y="108.688795"/>
    </g>
    <g clip-path="url(#p850b57a97f)">
     <use style="fill:#66c2a5;" x="278.386751" xlink:href="#C0_0_4ed0736831" y="99.824342"/>
    </g>
    <g clip-path="url(#p850b57a97f)">
     <use style="fill:#66c2a5;" x="248.412226" xlink:href="#C0_0_4ed0736831" y="94.39238"/>
    </g>
    <g clip-path="url(#p850b57a97f)">
     <use style="fill:#66c2a5;" x="274.104676" xlink:href="#C0_0_4ed0736831" y="94.239451"/>
    </g>
    <g clip-path="url(#p850b57a97f)">
     <use style="fill:#66c2a5;" x="295.51505" xlink:href="#C0_0_4ed0736831" y="111.977282"/>
    </g>
    <g clip-path="url(#p850b57a97f)">
     <use style="fill:#66c2a5;" x="235.566002" xlink:href="#C0_0_4ed0736831" y="108.198867"/>
    </g>
    <g clip-path="url(#p850b57a97f)">
     <use style="fill:#66c2a5;" x="304.0792" xlink:href="#C0_0_4ed0736831" y="94.833449"/>
    </g>
    <g clip-path="url(#p850b57a97f)">
     <use style="fill:#66c2a5;" x="269.822601" xlink:href="#C0_0_4ed0736831" y="113.681602"/>
    </g>
    <g clip-path="url(#p850b57a97f)">
     <use style="fill:#66c2a5;" x="312.64335" xlink:href="#C0_0_4ed0736831" y="101.98415"/>
    </g>
    <g clip-path="url(#p850b57a97f)">
     <use style="fill:#66c2a5;" x="282.668825" xlink:href="#C0_0_4ed0736831" y="111.411626"/>
    </g>
    <g clip-path="url(#p850b57a97f)">
     <use style="fill:#66c2a5;" x="252.694301" xlink:href="#C0_0_4ed0736831" y="104.44955"/>
    </g>
    <g clip-path="url(#p850b57a97f)">
     <use style="fill:#66c2a5;" x="252.694301" xlink:href="#C0_0_4ed0736831" y="113.933266"/>
    </g>
    <g clip-path="url(#p850b57a97f)">
     <use style="fill:#66c2a5;" x="209.873552" xlink:href="#C0_0_4ed0736831" y="107.319527"/>
    </g>
    <g clip-path="url(#p850b57a97f)">
     <use style="fill:#66c2a5;" x="329.771649" xlink:href="#C0_0_4ed0736831" y="98.585379"/>
    </g>
   </g>
   <g id="PathCollection_2">
    <defs>
     <path d="M 0 2 
C 0.530406 2 1.03916 1.789267 1.414214 1.414214 
C 1.789267 1.03916 2 0.530406 2 -0 
C 2 -0.530406 1.789267 -1.03916 1.414214 -1.414214 
C 1.03916 -1.789267 0.530406 -2 0 -2 
C -0.530406 -2 -1.03916 -1.789267 -1.414214 -1.414214 
C -1.789267 -1.03916 -2 -0.530406 -2 0 
C -2 0.530406 -1.789267 1.03916 -1.414214 1.414214 
C -1.03916 1.789267 -0.530406 2 0 2 
z
" id="C1_0_dc299f0f32"/>
    </defs>
    <g clip-path="url(#p850b57a97f)">
     <use style="fill:#fc8d62;" x="235.566002" xlink:href="#C1_0_dc299f0f32" y="217.957627"/>
    </g>
    <g clip-path="url(#p850b57a97f)">
     <use style="fill:#fc8d62;" x="312.64335" xlink:href="#C1_0_dc299f0f32" y="219.359965"/>
    </g>
    <g clip-path="url(#p850b57a97f)">
     <use style="fill:#fc8d62;" x="286.9509" xlink:href="#C1_0_dc299f0f32" y="229.145594"/>
    </g>
    <g clip-path="url(#p850b57a97f)">
     <use style="fill:#fc8d62;" x="261.258451" xlink:href="#C1_0_dc299f0f32" y="230.573459"/>
    </g>
    <g clip-path="url(#p850b57a97f)">
     <use style="fill:#fc8d62;" x="235.566002" xlink:href="#C1_0_dc299f0f32" y="228.393062"/>
    </g>
    <g clip-path="url(#p850b57a97f)">
     <use style="fill:#fc8d62;" x="261.258451" xlink:href="#C1_0_dc299f0f32" y="222.581986"/>
    </g>
    <g clip-path="url(#p850b57a97f)">
     <use style="fill:#fc8d62;" x="278.386751" xlink:href="#C1_0_dc299f0f32" y="208.537985"/>
    </g>
    <g clip-path="url(#p850b57a97f)">
     <use style="fill:#fc8d62;" x="115.667904" xlink:href="#C1_0_dc299f0f32" y="225.48496"/>
    </g>
    <g clip-path="url(#p850b57a97f)">
     <use style="fill:#fc8d62;" x="201.309402" xlink:href="#C1_0_dc299f0f32" y="213.650264"/>
    </g>
    <g clip-path="url(#p850b57a97f)">
     <use style="fill:#fc8d62;" x="235.566002" xlink:href="#C1_0_dc299f0f32" y="221.052759"/>
    </g>
    <g clip-path="url(#p850b57a97f)">
     <use style="fill:#fc8d62;" x="201.309402" xlink:href="#C1_0_dc299f0f32" y="217.313224"/>
    </g>
    <g clip-path="url(#p850b57a97f)">
     <use style="fill:#fc8d62;" x="227.001852" xlink:href="#C1_0_dc299f0f32" y="221.684961"/>
    </g>
    <g clip-path="url(#p850b57a97f)">
     <use style="fill:#fc8d62;" x="278.386751" xlink:href="#C1_0_dc299f0f32" y="220.710459"/>
    </g>
    <g clip-path="url(#p850b57a97f)">
     <use style="fill:#fc8d62;" x="227.001852" xlink:href="#C1_0_dc299f0f32" y="209.410401"/>
    </g>
    <g clip-path="url(#p850b57a97f)">
     <use style="fill:#fc8d62;" x="227.001852" xlink:href="#C1_0_dc299f0f32" y="216.605852"/>
    </g>
    <g clip-path="url(#p850b57a97f)">
     <use style="fill:#fc8d62;" x="184.181103" xlink:href="#C1_0_dc299f0f32" y="223.933345"/>
    </g>
    <g clip-path="url(#p850b57a97f)">
     <use style="fill:#fc8d62;" x="149.924503" xlink:href="#C1_0_dc299f0f32" y="218.36943"/>
    </g>
    <g clip-path="url(#p850b57a97f)">
     <use style="fill:#fc8d62;" x="227.001852" xlink:href="#C1_0_dc299f0f32" y="227.665881"/>
    </g>
    <g clip-path="url(#p850b57a97f)">
     <use style="fill:#fc8d62;" x="201.309402" xlink:href="#C1_0_dc299f0f32" y="220.434657"/>
    </g>
    <g clip-path="url(#p850b57a97f)">
     <use style="fill:#fc8d62;" x="244.130151" xlink:href="#C1_0_dc299f0f32" y="225.518163"/>
    </g>
    <g clip-path="url(#p850b57a97f)">
     <use style="fill:#fc8d62;" x="227.001852" xlink:href="#C1_0_dc299f0f32" y="222.066093"/>
    </g>
    <g clip-path="url(#p850b57a97f)">
     <use style="fill:#fc8d62;" x="227.001852" xlink:href="#C1_0_dc299f0f32" y="218.087527"/>
    </g>
    <g clip-path="url(#p850b57a97f)">
     <use style="fill:#fc8d62;" x="252.694301" xlink:href="#C1_0_dc299f0f32" y="209.697064"/>
    </g>
    <g clip-path="url(#p850b57a97f)">
     <use style="fill:#fc8d62;" x="201.309402" xlink:href="#C1_0_dc299f0f32" y="220.689902"/>
    </g>
    <g clip-path="url(#p850b57a97f)">
     <use style="fill:#fc8d62;" x="218.437702" xlink:href="#C1_0_dc299f0f32" y="230.340672"/>
    </g>
    <g clip-path="url(#p850b57a97f)">
     <use style="fill:#fc8d62;" x="235.566002" xlink:href="#C1_0_dc299f0f32" y="222.625458"/>
    </g>
    <g clip-path="url(#p850b57a97f)">
     <use style="fill:#fc8d62;" x="227.001852" xlink:href="#C1_0_dc299f0f32" y="224.035276"/>
    </g>
    <g clip-path="url(#p850b57a97f)">
     <use style="fill:#fc8d62;" x="141.360354" xlink:href="#C1_0_dc299f0f32" y="226.547923"/>
    </g>
    <g clip-path="url(#p850b57a97f)">
     <use style="fill:#fc8d62;" x="209.873552" xlink:href="#C1_0_dc299f0f32" y="228.122748"/>
    </g>
    <g clip-path="url(#p850b57a97f)">
     <use style="fill:#fc8d62;" x="227.001852" xlink:href="#C1_0_dc299f0f32" y="211.022489"/>
    </g>
    <g clip-path="url(#p850b57a97f)">
     <use style="fill:#fc8d62;" x="201.309402" xlink:href="#C1_0_dc299f0f32" y="218.24081"/>
    </g>
    <g clip-path="url(#p850b57a97f)">
     <use style="fill:#fc8d62;" x="252.694301" xlink:href="#C1_0_dc299f0f32" y="215.656422"/>
    </g>
    <g clip-path="url(#p850b57a97f)">
     <use style="fill:#fc8d62;" x="167.052803" xlink:href="#C1_0_dc299f0f32" y="223.088792"/>
    </g>
   </g>
   <g id="PathCollection_3">
    <defs>
     <path d="M 0 2 
C 0.530406 2 1.03916 1.789267 1.414214 1.414214 
C 1.789267 1.03916 2 0.530406 2 -0 
C 2 -0.530406 1.789267 -1.03916 1.414214 -1.414214 
C 1.03916 -1.789267 0.530406 -2 0 -2 
C -0.530406 -2 -1.03916 -1.789267 -1.414214 -1.414214 
C -1.789267 -1.03916 -2 -0.530406 -2 0 
C -2 0.530406 -1.789267 1.03916 -1.414214 1.414214 
C -1.03916 1.789267 -0.530406 2 0 2 
z
" id="C2_0_a3778b4d54"/>
    </defs>
    <g clip-path="url(#p850b57a97f)">
     <use style="fill:#8da0cb;" x="149.924503" xlink:href="#C2_0_a3778b4d54" y="327.191196"/>
    </g>
    <g clip-path="url(#p850b57a97f)">
     <use style="fill:#8da0cb;" x="192.745252" xlink:href="#C2_0_a3778b4d54" y="326.274687"/>
    </g>
    <g clip-path="url(#p850b57a97f)">
     <use style="fill:#8da0cb;" x="244.130151" xlink:href="#C2_0_a3778b4d54" y="339.280686"/>
    </g>
    <g clip-path="url(#p850b57a97f)">
     <use style="fill:#8da0cb;" x="184.181103" xlink:href="#C2_0_a3778b4d54" y="336.965424"/>
    </g>
    <g clip-path="url(#p850b57a97f)">
     <use style="fill:#8da0cb;" x="252.694301" xlink:href="#C2_0_a3778b4d54" y="327.501124"/>
    </g>
    <g clip-path="url(#p850b57a97f)">
     <use style="fill:#8da0cb;" x="141.360354" xlink:href="#C2_0_a3778b4d54" y="324.557363"/>
    </g>
    <g clip-path="url(#p850b57a97f)">
     <use style="fill:#8da0cb;" x="192.745252" xlink:href="#C2_0_a3778b4d54" y="337.677722"/>
    </g>
    <g clip-path="url(#p850b57a97f)">
     <use style="fill:#8da0cb;" x="149.924503" xlink:href="#C2_0_a3778b4d54" y="341.459739"/>
    </g>
    <g clip-path="url(#p850b57a97f)">
     <use style="fill:#8da0cb;" x="175.616953" xlink:href="#C2_0_a3778b4d54" y="337.600343"/>
    </g>
    <g clip-path="url(#p850b57a97f)">
     <use style="fill:#8da0cb;" x="192.745252" xlink:href="#C2_0_a3778b4d54" y="330.688882"/>
    </g>
    <g clip-path="url(#p850b57a97f)">
     <use style="fill:#8da0cb;" x="141.360354" xlink:href="#C2_0_a3778b4d54" y="338.467997"/>
    </g>
    <g clip-path="url(#p850b57a97f)">
     <use style="fill:#8da0cb;" x="175.616953" xlink:href="#C2_0_a3778b4d54" y="327.455306"/>
    </g>
    <g clip-path="url(#p850b57a97f)">
     <use style="fill:#8da0cb;" x="192.745252" xlink:href="#C2_0_a3778b4d54" y="340.465577"/>
    </g>
    <g clip-path="url(#p850b57a97f)">
     <use style="fill:#8da0cb;" x="141.360354" xlink:href="#C2_0_a3778b4d54" y="337.930876"/>
    </g>
    <g clip-path="url(#p850b57a97f)">
     <use style="fill:#8da0cb;" x="227.001852" xlink:href="#C2_0_a3778b4d54" y="327.01823"/>
    </g>
    <g clip-path="url(#p850b57a97f)">
     <use style="fill:#8da0cb;" x="158.488653" xlink:href="#C2_0_a3778b4d54" y="323.569725"/>
    </g>
    <g clip-path="url(#p850b57a97f)">
     <use style="fill:#8da0cb;" x="244.130151" xlink:href="#C2_0_a3778b4d54" y="323.454128"/>
    </g>
    <g clip-path="url(#p850b57a97f)">
     <use style="fill:#8da0cb;" x="167.052803" xlink:href="#C2_0_a3778b4d54" y="339.416814"/>
    </g>
    <g clip-path="url(#p850b57a97f)">
     <use style="fill:#8da0cb;" x="132.796204" xlink:href="#C2_0_a3778b4d54" y="326.266888"/>
    </g>
    <g clip-path="url(#p850b57a97f)">
     <use style="fill:#8da0cb;" x="124.232054" xlink:href="#C2_0_a3778b4d54" y="339.515613"/>
    </g>
    <g clip-path="url(#p850b57a97f)">
     <use style="fill:#8da0cb;" x="124.232054" xlink:href="#C2_0_a3778b4d54" y="329.019"/>
    </g>
    <g clip-path="url(#p850b57a97f)">
     <use style="fill:#8da0cb;" x="167.052803" xlink:href="#C2_0_a3778b4d54" y="329.764567"/>
    </g>
    <g clip-path="url(#p850b57a97f)">
     <use style="fill:#8da0cb;" x="141.360354" xlink:href="#C2_0_a3778b4d54" y="329.544227"/>
    </g>
    <g clip-path="url(#p850b57a97f)">
     <use style="fill:#8da0cb;" x="124.232054" xlink:href="#C2_0_a3778b4d54" y="331.420225"/>
    </g>
   </g>
   <g id="PolyCollection_1">
    <defs>
     <path d="M 139.54096 -357.295692 
L 139.54096 -357.600306 
L 142.086406 -357.801819 
L 144.631852 -358.081178 
L 147.177298 -358.437001 
L 149.722743 -358.853862 
L 152.268189 -359.305195 
L 154.813635 -359.762189 
L 157.359081 -360.205051 
L 159.904526 -360.630038 
L 162.449972 -361.046457 
L 164.995418 -361.463375 
L 167.540864 -361.873175 
L 170.086309 -362.243227 
L 172.631755 -362.523744 
L 175.177201 -362.670302 
L 177.722647 -362.669549 
L 180.268093 -362.553277 
L 182.813538 -362.392282 
L 185.358984 -362.273292 
L 187.90443 -362.271826 
L 190.449876 -362.43497 
L 192.995321 -362.780623 
L 195.540767 -363.309255 
L 198.086213 -364.017667 
L 200.631659 -364.905092 
L 203.177104 -365.968669 
L 205.72255 -367.192906 
L 208.267996 -368.541165 
L 210.813442 -369.954925 
L 213.358888 -371.360708 
L 215.904333 -372.679911 
L 218.449779 -373.836884 
L 220.995225 -374.765083 
L 223.540671 -375.41576 
L 226.086116 -375.77344 
L 228.631562 -375.876057 
L 231.177008 -375.829039 
L 233.722454 -375.798629 
L 236.267899 -375.975365 
L 238.813345 -376.513192 
L 241.358791 -377.466231 
L 243.904237 -378.753849 
L 246.449683 -380.177594 
L 248.995128 -381.491022 
L 251.540574 -382.495489 
L 254.08602 -383.117798 
L 256.631466 -383.431357 
L 259.176911 -383.610306 
L 261.722357 -383.840429 
L 264.267803 -384.231112 
L 266.813249 -384.768014 
L 269.358694 -385.321799 
L 271.90414 -385.701302 
L 274.449586 -385.724939 
L 276.995032 -385.285509 
L 279.540478 -384.392967 
L 282.085923 -383.187773 
L 284.631369 -381.920798 
L 287.176815 -380.898925 
L 289.722261 -380.403539 
L 292.267706 -380.601825 
L 294.813152 -381.480998 
L 297.358598 -382.834055 
L 299.904044 -384.308987 
L 302.44949 -385.507508 
L 304.994935 -386.097521 
L 307.540381 -385.89783 
L 310.085827 -384.907459 
L 312.631273 -383.277094 
L 315.176718 -381.242737 
L 317.722164 -379.051218 
L 320.26761 -376.902274 
L 322.813056 -374.919353 
L 325.358501 -373.149016 
L 327.903947 -371.581192 
L 330.449393 -370.179349 
L 332.994839 -368.909419 
L 335.540285 -367.758456 
L 338.08573 -366.738696 
L 340.631176 -365.878643 
L 343.176622 -365.207552 
L 345.722068 -364.740773 
L 348.267513 -364.470903 
L 350.812959 -364.365861 
L 353.358405 -364.372391 
L 355.903851 -364.423114 
L 358.449296 -364.44587 
L 360.994742 -364.374336 
L 363.540188 -364.158306 
L 366.085634 -363.77145 
L 368.63108 -363.214748 
L 371.176525 -362.51503 
L 373.721971 -361.71936 
L 376.267417 -360.886591 
L 378.812863 -360.077508 
L 381.358308 -359.345072 
L 383.903754 -358.726583 
L 386.4492 -358.239554 
L 388.994646 -357.882235 
L 391.540091 -357.638238 
L 391.540091 -357.295692 
L 391.540091 -357.295692 
L 388.994646 -357.295692 
L 386.4492 -357.295692 
L 383.903754 -357.295692 
L 381.358308 -357.295692 
L 378.812863 -357.295692 
L 376.267417 -357.295692 
L 373.721971 -357.295692 
L 371.176525 -357.295692 
L 368.63108 -357.295692 
L 366.085634 -357.295692 
L 363.540188 -357.295692 
L 360.994742 -357.295692 
L 358.449296 -357.295692 
L 355.903851 -357.295692 
L 353.358405 -357.295692 
L 350.812959 -357.295692 
L 348.267513 -357.295692 
L 345.722068 -357.295692 
L 343.176622 -357.295692 
L 340.631176 -357.295692 
L 338.08573 -357.295692 
L 335.540285 -357.295692 
L 332.994839 -357.295692 
L 330.449393 -357.295692 
L 327.903947 -357.295692 
L 325.358501 -357.295692 
L 322.813056 -357.295692 
L 320.26761 -357.295692 
L 317.722164 -357.295692 
L 315.176718 -357.295692 
L 312.631273 -357.295692 
L 310.085827 -357.295692 
L 307.540381 -357.295692 
L 304.994935 -357.295692 
L 302.44949 -357.295692 
L 299.904044 -357.295692 
L 297.358598 -357.295692 
L 294.813152 -357.295692 
L 292.267706 -357.295692 
L 289.722261 -357.295692 
L 287.176815 -357.295692 
L 284.631369 -357.295692 
L 282.085923 -357.295692 
L 279.540478 -357.295692 
L 276.995032 -357.295692 
L 274.449586 -357.295692 
L 271.90414 -357.295692 
L 269.358694 -357.295692 
L 266.813249 -357.295692 
L 264.267803 -357.295692 
L 261.722357 -357.295692 
L 259.176911 -357.295692 
L 256.631466 -357.295692 
L 254.08602 -357.295692 
L 251.540574 -357.295692 
L 248.995128 -357.295692 
L 246.449683 -357.295692 
L 243.904237 -357.295692 
L 241.358791 -357.295692 
L 238.813345 -357.295692 
L 236.267899 -357.295692 
L 233.722454 -357.295692 
L 231.177008 -357.295692 
L 228.631562 -357.295692 
L 226.086116 -357.295692 
L 223.540671 -357.295692 
L 220.995225 -357.295692 
L 218.449779 -357.295692 
L 215.904333 -357.295692 
L 213.358888 -357.295692 
L 210.813442 -357.295692 
L 208.267996 -357.295692 
L 205.72255 -357.295692 
L 203.177104 -357.295692 
L 200.631659 -357.295692 
L 198.086213 -357.295692 
L 195.540767 -357.295692 
L 192.995321 -357.295692 
L 190.449876 -357.295692 
L 187.90443 -357.295692 
L 185.358984 -357.295692 
L 182.813538 -357.295692 
L 180.268093 -357.295692 
L 177.722647 -357.295692 
L 175.177201 -357.295692 
L 172.631755 -357.295692 
L 170.086309 -357.295692 
L 167.540864 -357.295692 
L 164.995418 -357.295692 
L 162.449972 -357.295692 
L 159.904526 -357.295692 
L 157.359081 -357.295692 
L 154.813635 -357.295692 
L 152.268189 -357.295692 
L 149.722743 -357.295692 
L 147.177298 -357.295692 
L 144.631852 -357.295692 
L 142.086406 -357.295692 
L 139.54096 -357.295692 
z
" id="m07d31f1167" style="stroke:#595959;"/>
    </defs>
    <g clip-path="url(#p850b57a97f)">
     <use style="fill:#72b6a1;stroke:#595959;" x="0" xlink:href="#m07d31f1167" y="439.2"/>
    </g>
   </g>
   <g id="PolyCollection_2">
    <defs>
     <path d="M 99.106969 -242.394741 
L 99.106969 -243.074093 
L 101.431184 -243.539721 
L 103.755399 -244.178347 
L 106.079615 -244.962873 
L 108.40383 -245.812956 
L 110.728045 -246.601579 
L 113.052261 -247.184933 
L 115.376476 -247.448665 
L 117.700691 -247.352704 
L 120.024907 -246.954477 
L 122.349122 -246.399133 
L 124.673337 -245.880351 
L 126.997552 -245.587254 
L 129.321768 -245.65571 
L 131.645983 -246.136883 
L 133.970198 -246.98788 
L 136.294414 -248.083456 
L 138.618629 -249.244613 
L 140.942844 -250.277833 
L 143.26706 -251.017012 
L 145.591275 -251.359481 
L 147.91549 -251.288498 
L 150.239706 -250.876415 
L 152.563921 -250.265311 
L 154.888136 -249.626491 
L 157.212352 -249.108218 
L 159.536567 -248.789704 
L 161.860782 -248.661949 
L 164.184998 -248.646894 
L 166.509213 -248.647399 
L 168.833428 -248.602666 
L 171.157644 -248.519669 
L 173.481859 -248.465924 
L 175.806074 -248.534071 
L 178.13029 -248.807387 
L 180.454505 -249.353244 
L 182.77872 -250.247941 
L 185.102935 -251.606303 
L 187.427151 -253.575162 
L 189.751366 -256.266268 
L 192.075581 -259.646593 
L 194.399797 -263.447022 
L 196.724012 -267.161748 
L 199.048227 -270.174215 
L 201.372443 -271.976667 
L 203.696658 -272.391016 
L 206.020873 -271.687919 
L 208.345089 -270.546024 
L 210.669304 -269.864239 
L 212.993519 -270.494643 
L 215.317735 -272.980621 
L 217.64195 -277.37247 
L 219.966165 -283.1705 
L 222.290381 -289.419791 
L 224.614596 -294.9438 
L 226.938811 -298.655393 
L 229.263027 -299.845216 
L 231.587242 -298.348595 
L 233.911457 -294.541746 
L 236.235673 -289.189162 
L 238.559888 -283.215036 
L 240.884103 -277.479543 
L 243.208318 -272.615265 
L 245.532534 -268.945537 
L 247.856749 -266.482575 
L 250.180964 -264.990213 
L 252.50518 -264.08844 
L 254.829395 -263.372703 
L 257.15361 -262.521682 
L 259.477826 -261.372545 
L 261.802041 -259.949417 
L 264.126256 -258.437674 
L 266.450472 -257.107088 
L 268.774687 -256.203333 
L 271.098902 -255.844556 
L 273.423118 -255.964911 
L 275.747333 -256.330818 
L 278.071548 -256.623062 
L 280.395764 -256.547269 
L 282.719979 -255.925413 
L 285.044194 -254.736346 
L 287.36841 -253.101581 
L 289.692625 -251.235241 
L 292.01684 -249.383791 
L 294.341055 -247.77406 
L 296.665271 -246.576542 
L 298.989486 -245.883054 
L 301.313701 -245.695931 
L 303.637917 -245.928373 
L 305.962132 -246.418747 
L 308.286347 -246.961882 
L 310.610563 -247.355287 
L 312.934778 -247.449498 
L 315.258993 -247.185182 
L 317.583209 -246.601648 
L 319.907424 -245.812974 
L 322.231639 -244.962878 
L 324.555855 -244.178348 
L 326.88007 -243.539721 
L 329.204285 -243.074093 
L 329.204285 -242.394741 
L 329.204285 -242.394741 
L 326.88007 -242.394741 
L 324.555855 -242.394741 
L 322.231639 -242.394741 
L 319.907424 -242.394741 
L 317.583209 -242.394741 
L 315.258993 -242.394741 
L 312.934778 -242.394741 
L 310.610563 -242.394741 
L 308.286347 -242.394741 
L 305.962132 -242.394741 
L 303.637917 -242.394741 
L 301.313701 -242.394741 
L 298.989486 -242.394741 
L 296.665271 -242.394741 
L 294.341055 -242.394741 
L 292.01684 -242.394741 
L 289.692625 -242.394741 
L 287.36841 -242.394741 
L 285.044194 -242.394741 
L 282.719979 -242.394741 
L 280.395764 -242.394741 
L 278.071548 -242.394741 
L 275.747333 -242.394741 
L 273.423118 -242.394741 
L 271.098902 -242.394741 
L 268.774687 -242.394741 
L 266.450472 -242.394741 
L 264.126256 -242.394741 
L 261.802041 -242.394741 
L 259.477826 -242.394741 
L 257.15361 -242.394741 
L 254.829395 -242.394741 
L 252.50518 -242.394741 
L 250.180964 -242.394741 
L 247.856749 -242.394741 
L 245.532534 -242.394741 
L 243.208318 -242.394741 
L 240.884103 -242.394741 
L 238.559888 -242.394741 
L 236.235673 -242.394741 
L 233.911457 -242.394741 
L 231.587242 -242.394741 
L 229.263027 -242.394741 
L 226.938811 -242.394741 
L 224.614596 -242.394741 
L 222.290381 -242.394741 
L 219.966165 -242.394741 
L 217.64195 -242.394741 
L 215.317735 -242.394741 
L 212.993519 -242.394741 
L 210.669304 -242.394741 
L 208.345089 -242.394741 
L 206.020873 -242.394741 
L 203.696658 -242.394741 
L 201.372443 -242.394741 
L 199.048227 -242.394741 
L 196.724012 -242.394741 
L 194.399797 -242.394741 
L 192.075581 -242.394741 
L 189.751366 -242.394741 
L 187.427151 -242.394741 
L 185.102935 -242.394741 
L 182.77872 -242.394741 
L 180.454505 -242.394741 
L 178.13029 -242.394741 
L 175.806074 -242.394741 
L 173.481859 -242.394741 
L 171.157644 -242.394741 
L 168.833428 -242.394741 
L 166.509213 -242.394741 
L 164.184998 -242.394741 
L 161.860782 -242.394741 
L 159.536567 -242.394741 
L 157.212352 -242.394741 
L 154.888136 -242.394741 
L 152.563921 -242.394741 
L 150.239706 -242.394741 
L 147.91549 -242.394741 
L 145.591275 -242.394741 
L 143.26706 -242.394741 
L 140.942844 -242.394741 
L 138.618629 -242.394741 
L 136.294414 -242.394741 
L 133.970198 -242.394741 
L 131.645983 -242.394741 
L 129.321768 -242.394741 
L 126.997552 -242.394741 
L 124.673337 -242.394741 
L 122.349122 -242.394741 
L 120.024907 -242.394741 
L 117.700691 -242.394741 
L 115.376476 -242.394741 
L 113.052261 -242.394741 
L 110.728045 -242.394741 
L 108.40383 -242.394741 
L 106.079615 -242.394741 
L 103.755399 -242.394741 
L 101.431184 -242.394741 
L 99.106969 -242.394741 
z
" id="m9f01928d62" style="stroke:#595959;"/>
    </defs>
    <g clip-path="url(#p850b57a97f)">
     <use style="fill:#e99675;stroke:#595959;" x="0" xlink:href="#m9f01928d62" y="439.2"/>
    </g>
   </g>
   <g id="PolyCollection_3">
    <defs>
     <path d="M 108.588651 -127.49379 
L 108.588651 -130.525733 
L 110.202278 -132.004444 
L 111.815904 -133.935791 
L 113.429531 -136.330803 
L 115.043158 -139.146339 
L 116.656785 -142.278578 
L 118.270412 -145.569756 
L 119.884038 -148.830048 
L 121.497665 -151.871814 
L 123.111292 -154.548628 
L 124.724919 -156.788304 
L 126.338546 -158.609233 
L 127.952172 -160.113211 
L 129.565799 -161.45472 
L 131.179426 -162.794091 
L 132.793053 -164.247507 
L 134.40668 -165.848382 
L 136.020306 -167.531523 
L 137.633933 -169.144694 
L 139.24756 -170.483955 
L 140.861187 -171.342414 
L 142.474814 -171.558733 
L 144.08844 -171.053046 
L 145.702067 -169.842724 
L 147.315694 -168.036887 
L 148.929321 -165.814162 
L 150.542948 -163.391287 
L 152.156575 -160.990351 
L 153.770201 -158.810454 
L 155.383828 -157.006839 
L 156.997455 -155.678301 
L 158.611082 -154.862411 
L 160.224709 -154.537768 
L 161.838335 -154.632417 
L 163.451962 -155.037382 
L 165.065589 -155.623775 
L 166.679216 -156.261479 
L 168.292843 -156.837144 
L 169.906469 -157.269495 
L 171.520096 -157.520347 
L 173.133723 -157.600153 
L 174.74735 -157.566964 
L 176.360977 -157.517679 
L 177.974603 -157.570809 
L 179.58823 -157.841242 
L 181.201857 -158.409795 
L 182.815484 -159.293175 
L 184.429111 -160.422158 
L 186.042737 -161.635986 
L 187.656364 -162.69829 
L 189.269991 -163.334539 
L 190.883618 -163.284406 
L 192.497245 -162.356952 
L 194.110871 -160.474351 
L 195.724498 -157.692246 
L 197.338125 -154.1912 
L 198.951752 -150.242067 
L 200.565379 -146.155287 
L 202.179005 -142.227856 
L 203.792632 -138.700793 
L 205.406259 -135.735254 
L 207.019886 -133.408937 
L 208.633513 -131.728702 
L 210.247139 -130.651868 
L 211.860766 -130.108266 
L 213.474393 -130.017166 
L 215.08802 -130.296489 
L 216.701647 -130.865083 
L 218.315273 -131.641231 
L 219.9289 -132.541443 
L 221.542527 -133.482921 
L 223.156154 -134.391116 
L 224.769781 -135.211241 
L 226.383407 -135.920237 
L 227.997034 -136.534462 
L 229.610661 -137.108791 
L 231.224288 -137.725031 
L 232.837915 -138.470866 
L 234.451541 -139.414004 
L 236.065168 -140.578385 
L 237.678795 -141.929424 
L 239.292422 -143.373034 
L 240.906049 -144.76931 
L 242.519675 -145.957471 
L 244.133302 -146.785557 
L 245.746929 -147.137414 
L 247.360556 -146.950879 
L 248.974183 -146.224197 
L 250.587809 -145.011129 
L 252.201436 -143.407885 
L 253.815063 -141.536103 
L 255.42869 -139.52571 
L 257.042317 -137.500264 
L 258.655943 -135.565991 
L 260.26957 -133.804768 
L 261.883197 -132.27084 
L 263.496824 -130.990892 
L 265.110451 -129.966982 
L 266.724077 -129.181649 
L 268.337704 -128.604242 
L 268.337704 -127.49379 
L 268.337704 -127.49379 
L 266.724077 -127.49379 
L 265.110451 -127.49379 
L 263.496824 -127.49379 
L 261.883197 -127.49379 
L 260.26957 -127.49379 
L 258.655943 -127.49379 
L 257.042317 -127.49379 
L 255.42869 -127.49379 
L 253.815063 -127.49379 
L 252.201436 -127.49379 
L 250.587809 -127.49379 
L 248.974183 -127.49379 
L 247.360556 -127.49379 
L 245.746929 -127.49379 
L 244.133302 -127.49379 
L 242.519675 -127.49379 
L 240.906049 -127.49379 
L 239.292422 -127.49379 
L 237.678795 -127.49379 
L 236.065168 -127.49379 
L 234.451541 -127.49379 
L 232.837915 -127.49379 
L 231.224288 -127.49379 
L 229.610661 -127.49379 
L 227.997034 -127.49379 
L 226.383407 -127.49379 
L 224.769781 -127.49379 
L 223.156154 -127.49379 
L 221.542527 -127.49379 
L 219.9289 -127.49379 
L 218.315273 -127.49379 
L 216.701647 -127.49379 
L 215.08802 -127.49379 
L 213.474393 -127.49379 
L 211.860766 -127.49379 
L 210.247139 -127.49379 
L 208.633513 -127.49379 
L 207.019886 -127.49379 
L 205.406259 -127.49379 
L 203.792632 -127.49379 
L 202.179005 -127.49379 
L 200.565379 -127.49379 
L 198.951752 -127.49379 
L 197.338125 -127.49379 
L 195.724498 -127.49379 
L 194.110871 -127.49379 
L 192.497245 -127.49379 
L 190.883618 -127.49379 
L 189.269991 -127.49379 
L 187.656364 -127.49379 
L 186.042737 -127.49379 
L 184.429111 -127.49379 
L 182.815484 -127.49379 
L 181.201857 -127.49379 
L 179.58823 -127.49379 
L 177.974603 -127.49379 
L 176.360977 -127.49379 
L 174.74735 -127.49379 
L 173.133723 -127.49379 
L 171.520096 -127.49379 
L 169.906469 -127.49379 
L 168.292843 -127.49379 
L 166.679216 -127.49379 
L 165.065589 -127.49379 
L 163.451962 -127.49379 
L 161.838335 -127.49379 
L 160.224709 -127.49379 
L 158.611082 -127.49379 
L 156.997455 -127.49379 
L 155.383828 -127.49379 
L 153.770201 -127.49379 
L 152.156575 -127.49379 
L 150.542948 -127.49379 
L 148.929321 -127.49379 
L 147.315694 -127.49379 
L 145.702067 -127.49379 
L 144.08844 -127.49379 
L 142.474814 -127.49379 
L 140.861187 -127.49379 
L 139.24756 -127.49379 
L 137.633933 -127.49379 
L 136.020306 -127.49379 
L 134.40668 -127.49379 
L 132.793053 -127.49379 
L 131.179426 -127.49379 
L 129.565799 -127.49379 
L 127.952172 -127.49379 
L 126.338546 -127.49379 
L 124.724919 -127.49379 
L 123.111292 -127.49379 
L 121.497665 -127.49379 
L 119.884038 -127.49379 
L 118.270412 -127.49379 
L 116.656785 -127.49379 
L 115.043158 -127.49379 
L 113.429531 -127.49379 
L 111.815904 -127.49379 
L 110.202278 -127.49379 
L 108.588651 -127.49379 
z
" id="m775805abc2" style="stroke:#595959;"/>
    </defs>
    <g clip-path="url(#p850b57a97f)">
     <use style="fill:#95a3c3;stroke:#595959;" x="0" xlink:href="#m775805abc2" y="439.2"/>
    </g>
   </g>
   <g id="PathCollection_4">
    <defs>
     <path d="M 0 3.383948 
C 0.897434 3.383948 1.758231 3.027394 2.392813 2.392813 
C 3.027394 1.758231 3.383948 0.897434 3.383948 -0 
C 3.383948 -0.897434 3.027394 -1.758231 2.392813 -2.392813 
C 1.758231 -3.027394 0.897434 -3.383948 0 -3.383948 
C -0.897434 -3.383948 -1.758231 -3.027394 -2.392813 -2.392813 
C -3.027394 -1.758231 -3.383948 -0.897434 -3.383948 0 
C -3.383948 0.897434 -3.027394 1.758231 -2.392813 2.392813 
C -1.758231 3.027394 -0.897434 3.383948 0 3.383948 
z
" id="C3_0_2b1b7c6f1b"/>
    </defs>
    <g clip-path="url(#p850b57a97f)">
     <use style="fill:#ff0000;stroke:#ff0000;stroke-width:2.025;" x="272.787114" xlink:href="#C3_0_2b1b7c6f1b" y="104.884499"/>
    </g>
    <g clip-path="url(#p850b57a97f)">
     <use style="fill:#ff0000;stroke:#ff0000;stroke-width:2.025;" x="223.628096" xlink:href="#C3_0_2b1b7c6f1b" y="219.785449"/>
    </g>
    <g clip-path="url(#p850b57a97f)">
     <use style="fill:#ff0000;stroke:#ff0000;stroke-width:2.025;" x="172.405397" xlink:href="#C3_0_2b1b7c6f1b" y="334.6864"/>
    </g>
   </g>
   <g id="matplotlib.axis_1">
    <g id="xtick_1">
     <g id="line2d_1">
      <defs>
       <path d="M 0 0 
L 0 -5 
" id="mfd5c7d62ab" style="stroke:#000000;"/>
      </defs>
      <g>
       <use style="stroke:#000000;" x="158.356979" xlink:href="#mfd5c7d62ab" y="392.136875"/>
      </g>
     </g>
     <g id="text_1">
      <text style="font-family:DejaVu Sans;font-size:12px;font-stretch:normal;font-style:normal;font-weight:normal;text-anchor:middle;" transform="rotate(-0, 158.356979, 404.755)" x="158.356979" y="404.755">2</text>
     </g>
    </g>
    <g id="xtick_2">
     <g id="line2d_2">
      <g>
       <use style="stroke:#000000;" x="243.866804" xlink:href="#mfd5c7d62ab" y="392.136875"/>
      </g>
     </g>
     <g id="text_2">
      <text style="font-family:DejaVu Sans;font-size:12px;font-stretch:normal;font-style:normal;font-weight:normal;text-anchor:middle;" transform="rotate(-0, 243.866804, 404.755)" x="243.866804" y="404.755">4</text>
     </g>
    </g>
    <g id="xtick_3">
     <g id="line2d_3">
      <g>
       <use style="stroke:#000000;" x="329.376628" xlink:href="#mfd5c7d62ab" y="392.136875"/>
      </g>
     </g>
     <g id="text_3">
      <text style="font-family:DejaVu Sans;font-size:12px;font-stretch:normal;font-style:normal;font-weight:normal;text-anchor:middle;" transform="rotate(-0, 329.376628, 404.755)" x="329.376628" y="404.755">6</text>
     </g>
    </g>
    <g id="xtick_4">
     <g id="line2d_4">
      <g>
       <use style="stroke:#000000;" x="414.886452" xlink:href="#mfd5c7d62ab" y="392.136875"/>
      </g>
     </g>
     <g id="text_4">
      <text style="font-family:DejaVu Sans;font-size:12px;font-stretch:normal;font-style:normal;font-weight:normal;text-anchor:middle;" transform="rotate(-0, 414.886452, 404.755)" x="414.886452" y="404.755">8</text>
     </g>
    </g>
    <g id="text_5">
     <text style="font-family:DejaVu Sans;font-size:14px;font-stretch:normal;font-style:normal;font-weight:normal;text-anchor:middle;" transform="rotate(-0, 290.642656, 421.888438)" x="290.642656" y="421.888438">DDK rate</text>
    </g>
   </g>
   <g id="matplotlib.axis_2">
    <g id="ytick_1">
     <g id="line2d_5">
      <defs>
       <path d="M 0 0 
L 5 0 
" id="m858d0a8c39" style="stroke:#000000;"/>
      </defs>
      <g>
       <use style="stroke:#000000;" x="84.485313" xlink:href="#m858d0a8c39" y="104.884499"/>
      </g>
     </g>
     <g id="text_6">
      <text style="font-family:DejaVu Sans;font-size:14px;font-stretch:normal;font-style:normal;font-weight:normal;text-anchor:end;" transform="rotate(-0, 80.985313, 110.203405)" x="80.985313" y="110.203405">Healthy</text>
     </g>
    </g>
    <g id="ytick_2">
     <g id="line2d_6">
      <g>
       <use style="stroke:#000000;" x="84.485313" xlink:href="#m858d0a8c39" y="219.785449"/>
      </g>
     </g>
     <g id="text_7">
      <text style="font-family:DejaVu Sans;font-size:14px;font-stretch:normal;font-style:normal;font-weight:normal;text-anchor:end;" transform="rotate(-0, 80.985313, 225.104355)" x="80.985313" y="225.104355">Mild</text>
     </g>
    </g>
    <g id="ytick_3">
     <g id="line2d_7">
      <g>
       <use style="stroke:#000000;" x="84.485313" xlink:href="#m858d0a8c39" y="334.6864"/>
      </g>
     </g>
     <g id="text_8">
      <text style="font-family:DejaVu Sans;font-size:14px;font-stretch:normal;font-style:normal;font-weight:normal;" transform="translate(14.4 333.230618)">Moderate</text>
      <text style="font-family:DejaVu Sans;font-size:14px;font-stretch:normal;font-style:normal;font-weight:normal;" transform="translate(29.071562 348.907556)">-severe</text>
     </g>
    </g>
   </g>
   <g id="line2d_8">
    <path clip-path="url(#p850b57a97f)" d="M 158.488653 100.575713 
L 158.488653 109.193284 
" style="fill:none;stroke:#595959;stroke-linecap:square;stroke-width:1.5;"/>
   </g>
   <g id="line2d_9">
    <path clip-path="url(#p850b57a97f)" d="M 372.592398 100.575713 
L 372.592398 109.193284 
" style="fill:none;stroke:#595959;stroke-linecap:square;stroke-width:1.5;"/>
   </g>
   <g id="line2d_10"/>
   <g id="line2d_11">
    <path clip-path="url(#p850b57a97f)" d="M 141.360354 215.476663 
L 141.360354 224.094235 
" style="fill:none;stroke:#595959;stroke-linecap:square;stroke-width:1.5;"/>
   </g>
   <g id="line2d_12">
    <path clip-path="url(#p850b57a97f)" d="M 286.9509 215.476663 
L 286.9509 224.094235 
" style="fill:none;stroke:#595959;stroke-linecap:square;stroke-width:1.5;"/>
   </g>
   <g id="line2d_13">
    <defs>
     <path d="M -0 3.535534 
L 2.12132 0 
L -0 -3.535534 
L -2.12132 -0 
z
" id="m4cf05dc923" style="stroke:#595959;stroke-linejoin:miter;"/>
    </defs>
    <g clip-path="url(#p850b57a97f)">
     <use style="fill:#595959;stroke:#595959;stroke-linejoin:miter;" x="115.667904" xlink:href="#m4cf05dc923" y="219.785449"/>
     <use style="fill:#595959;stroke:#595959;stroke-linejoin:miter;" x="312.64335" xlink:href="#m4cf05dc923" y="219.785449"/>
    </g>
   </g>
   <g id="line2d_14">
    <path clip-path="url(#p850b57a97f)" d="M 124.232054 330.377614 
L 124.232054 338.995185 
" style="fill:none;stroke:#595959;stroke-linecap:square;stroke-width:1.5;"/>
   </g>
   <g id="line2d_15">
    <path clip-path="url(#p850b57a97f)" d="M 252.694301 330.377614 
L 252.694301 338.995185 
" style="fill:none;stroke:#595959;stroke-linecap:square;stroke-width:1.5;"/>
   </g>
   <g id="line2d_16"/>
   <g id="line2d_17">
    <path clip-path="url(#p850b57a97f)" d="M 272.787114 104.884499 
L 223.628096 219.785449 
L 172.405397 334.6864 
" style="fill:none;stroke:#ff0000;stroke-linecap:square;stroke-width:2.7;"/>
   </g>
   <g id="line2d_18">
    <path clip-path="url(#p850b57a97f)" d="M 261.518669 104.884499 
L 283.263375 104.884499 
" style="fill:none;"/>
   </g>
   <g id="line2d_19">
    <path clip-path="url(#p850b57a97f)" d="M 261.518669 104.884499 
L 261.518669 104.884499 
" style="fill:none;"/>
   </g>
   <g id="line2d_20">
    <path clip-path="url(#p850b57a97f)" d="M 283.263375 104.884499 
L 283.263375 104.884499 
" style="fill:none;"/>
   </g>
   <g id="line2d_21">
    <path clip-path="url(#p850b57a97f)" d="M 209.354513 219.785449 
L 237.12312 219.785449 
" style="fill:none;"/>
   </g>
   <g id="line2d_22">
    <path clip-path="url(#p850b57a97f)" d="M 209.354513 219.785449 
L 209.354513 219.785449 
" style="fill:none;"/>
   </g>
   <g id="line2d_23">
    <path clip-path="url(#p850b57a97f)" d="M 237.12312 219.785449 
L 237.12312 219.785449 
" style="fill:none;"/>
   </g>
   <g id="line2d_24">
    <path clip-path="url(#p850b57a97f)" d="M 158.131814 334.6864 
L 187.749498 334.6864 
" style="fill:none;"/>
   </g>
   <g id="line2d_25">
    <path clip-path="url(#p850b57a97f)" d="M 158.131814 334.6864 
L 158.131814 334.6864 
" style="fill:none;"/>
   </g>
   <g id="line2d_26">
    <path clip-path="url(#p850b57a97f)" d="M 187.749498 334.6864 
L 187.749498 334.6864 
" style="fill:none;"/>
   </g>
   <g id="line2d_27">
    <path clip-path="url(#p850b57a97f)" d="M 391.892985 104.884499 
L 398.326513 104.884499 
L 398.326513 219.785449 
L 391.892985 219.785449 
" style="fill:none;stroke:#333333;stroke-linecap:square;stroke-width:1.5;"/>
   </g>
   <g id="line2d_28">
    <path clip-path="url(#p850b57a97f)" d="M 423.646842 219.785449 
L 430.080371 219.785449 
L 430.080371 334.6864 
L 423.646842 334.6864 
" style="fill:none;stroke:#333333;stroke-linecap:square;stroke-width:1.5;"/>
   </g>
   <g id="line2d_29">
    <path clip-path="url(#p850b57a97f)" d="M 458.649365 104.884499 
L 465.082894 104.884499 
L 465.082894 334.6864 
L 458.649365 334.6864 
" style="fill:none;stroke:#333333;stroke-linecap:square;stroke-width:1.5;"/>
   </g>
   <g id="line2d_30">
    <path clip-path="url(#p850b57a97f)" d="M 274.104676 96.266927 
L 274.104676 113.50207 
" style="fill:none;stroke:#595959;stroke-linecap:square;stroke-width:1.5;"/>
   </g>
   <g id="line2d_31">
    <path clip-path="url(#p850b57a97f)" d="M 227.001852 211.167878 
L 227.001852 228.40302 
" style="fill:none;stroke:#595959;stroke-linecap:square;stroke-width:1.5;"/>
   </g>
   <g id="line2d_32">
    <path clip-path="url(#p850b57a97f)" d="M 167.052803 326.068828 
L 167.052803 343.303971 
" style="fill:none;stroke:#595959;stroke-linecap:square;stroke-width:1.5;"/>
   </g>
   <g id="patch_3">
    <path d="M 84.485313 392.136875 
L 84.485313 14.4 
" style="fill:none;stroke:#000000;stroke-linecap:square;stroke-linejoin:miter;"/>
   </g>
   <g id="patch_4">
    <path d="M 496.8 392.136875 
L 496.8 14.4 
" style="fill:none;stroke:#000000;stroke-linecap:square;stroke-linejoin:miter;"/>
   </g>
   <g id="patch_5">
    <path d="M 84.485313 392.136875 
L 496.8 392.136875 
" style="fill:none;stroke:#000000;stroke-linecap:square;stroke-linejoin:miter;"/>
   </g>
   <g id="patch_6">
    <path d="M 84.485313 14.4 
L 496.8 14.4 
" style="fill:none;stroke:#000000;stroke-linecap:square;stroke-linejoin:miter;"/>
   </g>
   <g id="text_9">
    <text style="font-family:DejaVu Sans;font-size:16px;font-stretch:normal;font-style:normal;font-weight:normal;text-anchor:middle;" transform="rotate(-270, 402.654013, 162.334974)" x="402.654013" y="162.334974">****</text>
   </g>
   <g id="text_10">
    <text style="font-family:DejaVu Sans;font-size:16px;font-stretch:normal;font-style:normal;font-weight:normal;text-anchor:middle;" transform="rotate(-270, 434.407871, 277.235924)" x="434.407871" y="277.235924">***</text>
   </g>
   <g id="text_11">
    <text style="font-family:DejaVu Sans;font-size:16px;font-stretch:normal;font-style:normal;font-weight:normal;text-anchor:middle;" transform="rotate(-270, 469.410394, 219.785449)" x="469.410394" y="219.785449">****</text>
   </g>
   <g id="line2d_33">
    <path clip-path="url(#p850b57a97f)" d="M 244.130151 104.884499 
L 158.488653 104.884499 
" style="fill:none;stroke:#595959;stroke-linecap:square;stroke-width:2;"/>
   </g>
   <g id="line2d_34">
    <path clip-path="url(#p850b57a97f)" d="M 304.0792 104.884499 
L 372.592398 104.884499 
" style="fill:none;stroke:#595959;stroke-linecap:square;stroke-width:2;"/>
   </g>
   <g id="line2d_35">
    <path clip-path="url(#p850b57a97f)" d="M 201.309402 219.785449 
L 141.360354 219.785449 
" style="fill:none;stroke:#595959;stroke-linecap:square;stroke-width:2;"/>
   </g>
   <g id="line2d_36">
    <path clip-path="url(#p850b57a97f)" d="M 244.130151 219.785449 
L 286.9509 219.785449 
" style="fill:none;stroke:#595959;stroke-linecap:square;stroke-width:2;"/>
   </g>
   <g id="line2d_37">
    <path clip-path="url(#p850b57a97f)" d="M 141.360354 334.6864 
L 124.232054 334.6864 
" style="fill:none;stroke:#595959;stroke-linecap:square;stroke-width:2;"/>
   </g>
   <g id="line2d_38">
    <path clip-path="url(#p850b57a97f)" d="M 192.745252 334.6864 
L 252.694301 334.6864 
" style="fill:none;stroke:#595959;stroke-linecap:square;stroke-width:2;"/>
   </g>
   <g id="patch_7">
    <path clip-path="url(#p850b57a97f)" d="M 244.130151 96.266927 
L 244.130151 113.50207 
L 304.0792 113.50207 
L 304.0792 96.266927 
L 244.130151 96.266927 
z
" style="fill:none;stroke:#595959;stroke-linejoin:miter;stroke-width:1.5;"/>
   </g>
   <g id="patch_8">
    <path clip-path="url(#p850b57a97f)" d="M 201.309402 211.167878 
L 201.309402 228.40302 
L 244.130151 228.40302 
L 244.130151 211.167878 
L 201.309402 211.167878 
z
" style="fill:none;stroke:#595959;stroke-linejoin:miter;stroke-width:1.5;"/>
   </g>
   <g id="patch_9">
    <path clip-path="url(#p850b57a97f)" d="M 141.360354 326.068828 
L 141.360354 343.303971 
L 192.745252 343.303971 
L 192.745252 326.068828 
L 141.360354 326.068828 
z
" style="fill:none;stroke:#595959;stroke-linejoin:miter;stroke-width:1.5;"/>
   </g>
  </g>
 </g>
 <defs>
  <clipPath id="p850b57a97f">
   <rect height="377.736875" width="412.314687" x="84.485313" y="14.4"/>
  </clipPath>
 </defs>
</svg>
