<?xml version="1.0" encoding="utf-8" standalone="no"?>
<!DOCTYPE svg PUBLIC "-//W3C//DTD SVG 1.1//EN"
  "http://www.w3.org/Graphics/SVG/1.1/DTD/svg11.dtd">
<!-- Created with matplotlib (https://matplotlib.org/) -->
<svg height="439.2pt" version="1.1" viewBox="0 0 511.2 439.2" width="511.2pt" xmlns="http://www.w3.org/2000/svg" xmlns:xlink="http://www.w3.org/1999/xlink">
 <metadata>
  <rdf:RDF xmlns:cc="http://creativecommons.org/ns#" xmlns:dc="http://purl.org/dc/elements/1.1/" xmlns:rdf="http://www.w3.org/1999/02/22-rdf-syntax-ns#">
   <cc:Work>
    <dc:type rdf:resource="http://purl.org/dc/dcmitype/StillImage"/>
    <dc:date>2022-06-23T15:48:27.882213</dc:date>
    <dc:format>image/svg+xml</dc:format>
    <dc:creator>
     <cc:Agent>
      <dc:title>Matplotlib v3.3.3, https://matplotlib.org/</dc:title>
     </cc:Agent>
    </dc:creator>
   </cc:Work>
  </rdf:RDF>
 </metadata>
 <defs>
  <style type="text/css">*{stroke-linecap:butt;stroke-linejoin:round;}</style>
 </defs>
 <g id="figure_1">
  <g id="patch_1">
   <path d="M 0 439.2 
L 511.2 439.2 
L 511.2 0 
L 0 0 
z
" style="fill:#ffffff;"/>
  </g>
  <g id="axes_1">
   <g id="patch_2">
    <path d="M 84.485313 392.136875 
L 496.8 392.136875 
L 496.8 14.4 
L 84.485313 14.4 
z
" style="fill:#ffffff;"/>
   </g>
   <g id="PathCollection_1">
    <defs>
     <path d="M 0 2 
C 0.530406 2 1.03916 1.789267 1.414214 1.414214 
C 1.789267 1.03916 2 0.530406 2 -0 
C 2 -0.530406 1.789267 -1.03916 1.414214 -1.414214 
C 1.03916 -1.789267 0.530406 -2 0 -2 
C -0.530406 -2 -1.03916 -1.789267 -1.414214 -1.414214 
C -1.789267 -1.03916 -2 -0.530406 -2 0 
C -2 0.530406 -1.789267 1.03916 -1.414214 1.414214 
C -1.03916 1.789267 -0.530406 2 0 2 
z
" id="C0_0_34a10b6b3d"/>
    </defs>
    <g clip-path="url(#p63e3a8a56e)">
     <use style="fill:#66c2a5;" x="137.906867" xlink:href="#C0_0_34a10b6b3d" y="110.132938"/>
    </g>
    <g clip-path="url(#p63e3a8a56e)">
     <use style="fill:#66c2a5;" x="132.723325" xlink:href="#C0_0_34a10b6b3d" y="104.730935"/>
    </g>
    <g clip-path="url(#p63e3a8a56e)">
     <use style="fill:#66c2a5;" x="136.199979" xlink:href="#C0_0_34a10b6b3d" y="93.482923"/>
    </g>
    <g clip-path="url(#p63e3a8a56e)">
     <use style="fill:#66c2a5;" x="124.309965" xlink:href="#C0_0_34a10b6b3d" y="99.828006"/>
    </g>
    <g clip-path="url(#p63e3a8a56e)">
     <use style="fill:#66c2a5;" x="140.986593" xlink:href="#C0_0_34a10b6b3d" y="110.358153"/>
    </g>
    <g clip-path="url(#p63e3a8a56e)">
     <use style="fill:#66c2a5;" x="110.336663" xlink:href="#C0_0_34a10b6b3d" y="103.730252"/>
    </g>
    <g clip-path="url(#p63e3a8a56e)">
     <use style="fill:#66c2a5;" x="123.570169" xlink:href="#C0_0_34a10b6b3d" y="101.285474"/>
    </g>
    <g clip-path="url(#p63e3a8a56e)">
     <use style="fill:#66c2a5;" x="128.430135" xlink:href="#C0_0_34a10b6b3d" y="110.468589"/>
    </g>
    <g clip-path="url(#p63e3a8a56e)">
     <use style="fill:#66c2a5;" x="162.22961" xlink:href="#C0_0_34a10b6b3d" y="105.205826"/>
    </g>
    <g clip-path="url(#p63e3a8a56e)">
     <use style="fill:#66c2a5;" x="122.792948" xlink:href="#C0_0_34a10b6b3d" y="106.624432"/>
    </g>
    <g clip-path="url(#p63e3a8a56e)">
     <use style="fill:#66c2a5;" x="129.723969" xlink:href="#C0_0_34a10b6b3d" y="98.331985"/>
    </g>
    <g clip-path="url(#p63e3a8a56e)">
     <use style="fill:#66c2a5;" x="123.128493" xlink:href="#C0_0_34a10b6b3d" y="100.505523"/>
    </g>
    <g clip-path="url(#p63e3a8a56e)">
     <use style="fill:#66c2a5;" x="174.276381" xlink:href="#C0_0_34a10b6b3d" y="97.135722"/>
    </g>
    <g clip-path="url(#p63e3a8a56e)">
     <use style="fill:#66c2a5;" x="137.90869" xlink:href="#C0_0_34a10b6b3d" y="109.563437"/>
    </g>
    <g clip-path="url(#p63e3a8a56e)">
     <use style="fill:#66c2a5;" x="132.738706" xlink:href="#C0_0_34a10b6b3d" y="99.048427"/>
    </g>
    <g clip-path="url(#p63e3a8a56e)">
     <use style="fill:#66c2a5;" x="137.286086" xlink:href="#C0_0_34a10b6b3d" y="97.024597"/>
    </g>
    <g clip-path="url(#p63e3a8a56e)">
     <use style="fill:#66c2a5;" x="123.72788" xlink:href="#C0_0_34a10b6b3d" y="96.708322"/>
    </g>
    <g clip-path="url(#p63e3a8a56e)">
     <use style="fill:#66c2a5;" x="118.091008" xlink:href="#C0_0_34a10b6b3d" y="115.358603"/>
    </g>
    <g clip-path="url(#p63e3a8a56e)">
     <use style="fill:#66c2a5;" x="144.559048" xlink:href="#C0_0_34a10b6b3d" y="112.452813"/>
    </g>
    <g clip-path="url(#p63e3a8a56e)">
     <use style="fill:#66c2a5;" x="131.818707" xlink:href="#C0_0_34a10b6b3d" y="103.126887"/>
    </g>
    <g clip-path="url(#p63e3a8a56e)">
     <use style="fill:#66c2a5;" x="124.057434" xlink:href="#C0_0_34a10b6b3d" y="94.382365"/>
    </g>
    <g clip-path="url(#p63e3a8a56e)">
     <use style="fill:#66c2a5;" x="180.402218" xlink:href="#C0_0_34a10b6b3d" y="102.369903"/>
    </g>
    <g clip-path="url(#p63e3a8a56e)">
     <use style="fill:#66c2a5;" x="146.254903" xlink:href="#C0_0_34a10b6b3d" y="103.820403"/>
    </g>
    <g clip-path="url(#p63e3a8a56e)">
     <use style="fill:#66c2a5;" x="145.880117" xlink:href="#C0_0_34a10b6b3d" y="97.850316"/>
    </g>
    <g clip-path="url(#p63e3a8a56e)">
     <use style="fill:#66c2a5;" x="115.185833" xlink:href="#C0_0_34a10b6b3d" y="107.703823"/>
    </g>
    <g clip-path="url(#p63e3a8a56e)">
     <use style="fill:#66c2a5;" x="127.529428" xlink:href="#C0_0_34a10b6b3d" y="101.972799"/>
    </g>
    <g clip-path="url(#p63e3a8a56e)">
     <use style="fill:#66c2a5;" x="126.334576" xlink:href="#C0_0_34a10b6b3d" y="116.206861"/>
    </g>
    <g clip-path="url(#p63e3a8a56e)">
     <use style="fill:#66c2a5;" x="156.312459" xlink:href="#C0_0_34a10b6b3d" y="112.037997"/>
    </g>
    <g clip-path="url(#p63e3a8a56e)">
     <use style="fill:#66c2a5;" x="118.200435" xlink:href="#C0_0_34a10b6b3d" y="94.943809"/>
    </g>
    <g clip-path="url(#p63e3a8a56e)">
     <use style="fill:#66c2a5;" x="135.379441" xlink:href="#C0_0_34a10b6b3d" y="114.135279"/>
    </g>
    <g clip-path="url(#p63e3a8a56e)">
     <use style="fill:#66c2a5;" x="134.891513" xlink:href="#C0_0_34a10b6b3d" y="104.920329"/>
    </g>
    <g clip-path="url(#p63e3a8a56e)">
     <use style="fill:#66c2a5;" x="157.584263" xlink:href="#C0_0_34a10b6b3d" y="95.05054"/>
    </g>
    <g clip-path="url(#p63e3a8a56e)">
     <use style="fill:#66c2a5;" x="125.411802" xlink:href="#C0_0_34a10b6b3d" y="100.567658"/>
    </g>
    <g clip-path="url(#p63e3a8a56e)">
     <use style="fill:#66c2a5;" x="115.948371" xlink:href="#C0_0_34a10b6b3d" y="110.344244"/>
    </g>
    <g clip-path="url(#p63e3a8a56e)">
     <use style="fill:#66c2a5;" x="118.689539" xlink:href="#C0_0_34a10b6b3d" y="107.336261"/>
    </g>
    <g clip-path="url(#p63e3a8a56e)">
     <use style="fill:#66c2a5;" x="124.408562" xlink:href="#C0_0_34a10b6b3d" y="99.704342"/>
    </g>
    <g clip-path="url(#p63e3a8a56e)">
     <use style="fill:#66c2a5;" x="128.127001" xlink:href="#C0_0_34a10b6b3d" y="98.602386"/>
    </g>
    <g clip-path="url(#p63e3a8a56e)">
     <use style="fill:#66c2a5;" x="122.651608" xlink:href="#C0_0_34a10b6b3d" y="99.850125"/>
    </g>
    <g clip-path="url(#p63e3a8a56e)">
     <use style="fill:#66c2a5;" x="120.62982" xlink:href="#C0_0_34a10b6b3d" y="113.425107"/>
    </g>
    <g clip-path="url(#p63e3a8a56e)">
     <use style="fill:#66c2a5;" x="122.110757" xlink:href="#C0_0_34a10b6b3d" y="112.569839"/>
    </g>
    <g clip-path="url(#p63e3a8a56e)">
     <use style="fill:#66c2a5;" x="120.157752" xlink:href="#C0_0_34a10b6b3d" y="99.055902"/>
    </g>
    <g clip-path="url(#p63e3a8a56e)">
     <use style="fill:#66c2a5;" x="115.36493" xlink:href="#C0_0_34a10b6b3d" y="107.048929"/>
    </g>
    <g clip-path="url(#p63e3a8a56e)">
     <use style="fill:#66c2a5;" x="140.119177" xlink:href="#C0_0_34a10b6b3d" y="115.19216"/>
    </g>
    <g clip-path="url(#p63e3a8a56e)">
     <use style="fill:#66c2a5;" x="145.676706" xlink:href="#C0_0_34a10b6b3d" y="101.857667"/>
    </g>
    <g clip-path="url(#p63e3a8a56e)">
     <use style="fill:#66c2a5;" x="132.954157" xlink:href="#C0_0_34a10b6b3d" y="102.32384"/>
    </g>
    <g clip-path="url(#p63e3a8a56e)">
     <use style="fill:#66c2a5;" x="121.46712" xlink:href="#C0_0_34a10b6b3d" y="95.200328"/>
    </g>
    <g clip-path="url(#p63e3a8a56e)">
     <use style="fill:#66c2a5;" x="123.978602" xlink:href="#C0_0_34a10b6b3d" y="115.936871"/>
    </g>
    <g clip-path="url(#p63e3a8a56e)">
     <use style="fill:#66c2a5;" x="126.232783" xlink:href="#C0_0_34a10b6b3d" y="113.973796"/>
    </g>
    <g clip-path="url(#p63e3a8a56e)">
     <use style="fill:#66c2a5;" x="110.292502" xlink:href="#C0_0_34a10b6b3d" y="95.003519"/>
    </g>
    <g clip-path="url(#p63e3a8a56e)">
     <use style="fill:#66c2a5;" x="119.523673" xlink:href="#C0_0_34a10b6b3d" y="95.166377"/>
    </g>
    <g clip-path="url(#p63e3a8a56e)">
     <use style="fill:#66c2a5;" x="157.047362" xlink:href="#C0_0_34a10b6b3d" y="104.314506"/>
    </g>
    <g clip-path="url(#p63e3a8a56e)">
     <use style="fill:#66c2a5;" x="135.034887" xlink:href="#C0_0_34a10b6b3d" y="110.676241"/>
    </g>
    <g clip-path="url(#p63e3a8a56e)">
     <use style="fill:#66c2a5;" x="135.825063" xlink:href="#C0_0_34a10b6b3d" y="114.455766"/>
    </g>
    <g clip-path="url(#p63e3a8a56e)">
     <use style="fill:#66c2a5;" x="111.282289" xlink:href="#C0_0_34a10b6b3d" y="101.060022"/>
    </g>
    <g clip-path="url(#p63e3a8a56e)">
     <use style="fill:#66c2a5;" x="126.967212" xlink:href="#C0_0_34a10b6b3d" y="104.677224"/>
    </g>
    <g clip-path="url(#p63e3a8a56e)">
     <use style="fill:#66c2a5;" x="127.360734" xlink:href="#C0_0_34a10b6b3d" y="106.797515"/>
    </g>
    <g clip-path="url(#p63e3a8a56e)">
     <use style="fill:#66c2a5;" x="147.53757" xlink:href="#C0_0_34a10b6b3d" y="107.617044"/>
    </g>
    <g clip-path="url(#p63e3a8a56e)">
     <use style="fill:#66c2a5;" x="119.580705" xlink:href="#C0_0_34a10b6b3d" y="97.855953"/>
    </g>
    <g clip-path="url(#p63e3a8a56e)">
     <use style="fill:#66c2a5;" x="130.17174" xlink:href="#C0_0_34a10b6b3d" y="100.534978"/>
    </g>
    <g clip-path="url(#p63e3a8a56e)">
     <use style="fill:#66c2a5;" x="117.374676" xlink:href="#C0_0_34a10b6b3d" y="95.813194"/>
    </g>
    <g clip-path="url(#p63e3a8a56e)">
     <use style="fill:#66c2a5;" x="112.021423" xlink:href="#C0_0_34a10b6b3d" y="108.135343"/>
    </g>
    <g clip-path="url(#p63e3a8a56e)">
     <use style="fill:#66c2a5;" x="120.121908" xlink:href="#C0_0_34a10b6b3d" y="110.331889"/>
    </g>
    <g clip-path="url(#p63e3a8a56e)">
     <use style="fill:#66c2a5;" x="147.077489" xlink:href="#C0_0_34a10b6b3d" y="106.324569"/>
    </g>
    <g clip-path="url(#p63e3a8a56e)">
     <use style="fill:#66c2a5;" x="138.770389" xlink:href="#C0_0_34a10b6b3d" y="112.536766"/>
    </g>
    <g clip-path="url(#p63e3a8a56e)">
     <use style="fill:#66c2a5;" x="114.370016" xlink:href="#C0_0_34a10b6b3d" y="99.56095"/>
    </g>
   </g>
   <g id="PathCollection_2">
    <defs>
     <path d="M 0 2 
C 0.530406 2 1.03916 1.789267 1.414214 1.414214 
C 1.789267 1.03916 2 0.530406 2 -0 
C 2 -0.530406 1.789267 -1.03916 1.414214 -1.414214 
C 1.03916 -1.789267 0.530406 -2 0 -2 
C -0.530406 -2 -1.03916 -1.789267 -1.414214 -1.414214 
C -1.789267 -1.03916 -2 -0.530406 -2 0 
C -2 0.530406 -1.789267 1.03916 -1.414214 1.414214 
C -1.03916 1.789267 -0.530406 2 0 2 
z
" id="C1_0_62fa81f18c"/>
    </defs>
    <g clip-path="url(#p63e3a8a56e)">
     <use style="fill:#fc8d62;" x="140.517957" xlink:href="#C1_0_62fa81f18c" y="229.915058"/>
    </g>
    <g clip-path="url(#p63e3a8a56e)">
     <use style="fill:#fc8d62;" x="133.921895" xlink:href="#C1_0_62fa81f18c" y="208.834751"/>
    </g>
    <g clip-path="url(#p63e3a8a56e)">
     <use style="fill:#fc8d62;" x="145.183728" xlink:href="#C1_0_62fa81f18c" y="209.798197"/>
    </g>
    <g clip-path="url(#p63e3a8a56e)">
     <use style="fill:#fc8d62;" x="131.895929" xlink:href="#C1_0_62fa81f18c" y="224.857506"/>
    </g>
    <g clip-path="url(#p63e3a8a56e)">
     <use style="fill:#fc8d62;" x="144.201271" xlink:href="#C1_0_62fa81f18c" y="220.498063"/>
    </g>
    <g clip-path="url(#p63e3a8a56e)">
     <use style="fill:#fc8d62;" x="155.68767" xlink:href="#C1_0_62fa81f18c" y="227.599806"/>
    </g>
    <g clip-path="url(#p63e3a8a56e)">
     <use style="fill:#fc8d62;" x="136.668676" xlink:href="#C1_0_62fa81f18c" y="218.788237"/>
    </g>
    <g clip-path="url(#p63e3a8a56e)">
     <use style="fill:#fc8d62;" x="145.759712" xlink:href="#C1_0_62fa81f18c" y="227.478246"/>
    </g>
    <g clip-path="url(#p63e3a8a56e)">
     <use style="fill:#fc8d62;" x="167.36927" xlink:href="#C1_0_62fa81f18c" y="214.732777"/>
    </g>
    <g clip-path="url(#p63e3a8a56e)">
     <use style="fill:#fc8d62;" x="133.872161" xlink:href="#C1_0_62fa81f18c" y="219.570271"/>
    </g>
    <g clip-path="url(#p63e3a8a56e)">
     <use style="fill:#fc8d62;" x="141.355486" xlink:href="#C1_0_62fa81f18c" y="211.928904"/>
    </g>
    <g clip-path="url(#p63e3a8a56e)">
     <use style="fill:#fc8d62;" x="137.753319" xlink:href="#C1_0_62fa81f18c" y="230.093689"/>
    </g>
    <g clip-path="url(#p63e3a8a56e)">
     <use style="fill:#fc8d62;" x="136.445411" xlink:href="#C1_0_62fa81f18c" y="228.149309"/>
    </g>
    <g clip-path="url(#p63e3a8a56e)">
     <use style="fill:#fc8d62;" x="133.6003" xlink:href="#C1_0_62fa81f18c" y="222.686675"/>
    </g>
    <g clip-path="url(#p63e3a8a56e)">
     <use style="fill:#fc8d62;" x="132.855838" xlink:href="#C1_0_62fa81f18c" y="214.911421"/>
    </g>
    <g clip-path="url(#p63e3a8a56e)">
     <use style="fill:#fc8d62;" x="191.672187" xlink:href="#C1_0_62fa81f18c" y="215.002265"/>
    </g>
    <g clip-path="url(#p63e3a8a56e)">
     <use style="fill:#fc8d62;" x="173.675355" xlink:href="#C1_0_62fa81f18c" y="208.522839"/>
    </g>
    <g clip-path="url(#p63e3a8a56e)">
     <use style="fill:#fc8d62;" x="164.281342" xlink:href="#C1_0_62fa81f18c" y="216.984276"/>
    </g>
    <g clip-path="url(#p63e3a8a56e)">
     <use style="fill:#fc8d62;" x="155.313308" xlink:href="#C1_0_62fa81f18c" y="230.390169"/>
    </g>
    <g clip-path="url(#p63e3a8a56e)">
     <use style="fill:#fc8d62;" x="138.957496" xlink:href="#C1_0_62fa81f18c" y="211.440731"/>
    </g>
    <g clip-path="url(#p63e3a8a56e)">
     <use style="fill:#fc8d62;" x="168.974762" xlink:href="#C1_0_62fa81f18c" y="209.989991"/>
    </g>
    <g clip-path="url(#p63e3a8a56e)">
     <use style="fill:#fc8d62;" x="160.52511" xlink:href="#C1_0_62fa81f18c" y="229.123931"/>
    </g>
    <g clip-path="url(#p63e3a8a56e)">
     <use style="fill:#fc8d62;" x="144.588299" xlink:href="#C1_0_62fa81f18c" y="226.457383"/>
    </g>
    <g clip-path="url(#p63e3a8a56e)">
     <use style="fill:#fc8d62;" x="145.491137" xlink:href="#C1_0_62fa81f18c" y="220.529341"/>
    </g>
    <g clip-path="url(#p63e3a8a56e)">
     <use style="fill:#fc8d62;" x="176.253406" xlink:href="#C1_0_62fa81f18c" y="225.441338"/>
    </g>
    <g clip-path="url(#p63e3a8a56e)">
     <use style="fill:#fc8d62;" x="166.301155" xlink:href="#C1_0_62fa81f18c" y="222.450434"/>
    </g>
    <g clip-path="url(#p63e3a8a56e)">
     <use style="fill:#fc8d62;" x="134.246495" xlink:href="#C1_0_62fa81f18c" y="224.045659"/>
    </g>
    <g clip-path="url(#p63e3a8a56e)">
     <use style="fill:#fc8d62;" x="148.9527" xlink:href="#C1_0_62fa81f18c" y="220.738993"/>
    </g>
    <g clip-path="url(#p63e3a8a56e)">
     <use style="fill:#fc8d62;" x="160.579485" xlink:href="#C1_0_62fa81f18c" y="220.131859"/>
    </g>
    <g clip-path="url(#p63e3a8a56e)">
     <use style="fill:#fc8d62;" x="134.892691" xlink:href="#C1_0_62fa81f18c" y="224.036738"/>
    </g>
    <g clip-path="url(#p63e3a8a56e)">
     <use style="fill:#fc8d62;" x="165.430684" xlink:href="#C1_0_62fa81f18c" y="208.695302"/>
    </g>
    <g clip-path="url(#p63e3a8a56e)">
     <use style="fill:#fc8d62;" x="173.138389" xlink:href="#C1_0_62fa81f18c" y="218.270141"/>
    </g>
    <g clip-path="url(#p63e3a8a56e)">
     <use style="fill:#fc8d62;" x="194.110368" xlink:href="#C1_0_62fa81f18c" y="223.827304"/>
    </g>
   </g>
   <g id="PathCollection_3">
    <defs>
     <path d="M 0 2 
C 0.530406 2 1.03916 1.789267 1.414214 1.414214 
C 1.789267 1.03916 2 0.530406 2 -0 
C 2 -0.530406 1.789267 -1.03916 1.414214 -1.414214 
C 1.03916 -1.789267 0.530406 -2 0 -2 
C -0.530406 -2 -1.03916 -1.789267 -1.414214 -1.414214 
C -1.789267 -1.03916 -2 -0.530406 -2 0 
C -2 0.530406 -1.789267 1.03916 -1.414214 1.414214 
C -1.03916 1.789267 -0.530406 2 0 2 
z
" id="C2_0_486cc34c06"/>
    </defs>
    <g clip-path="url(#p63e3a8a56e)">
     <use style="fill:#8da0cb;" x="217.179117" xlink:href="#C2_0_486cc34c06" y="334.150899"/>
    </g>
    <g clip-path="url(#p63e3a8a56e)">
     <use style="fill:#8da0cb;" x="182.717043" xlink:href="#C2_0_486cc34c06" y="330.404787"/>
    </g>
    <g clip-path="url(#p63e3a8a56e)">
     <use style="fill:#8da0cb;" x="140.065259" xlink:href="#C2_0_486cc34c06" y="342.799689"/>
    </g>
    <g clip-path="url(#p63e3a8a56e)">
     <use style="fill:#8da0cb;" x="209.455321" xlink:href="#C2_0_486cc34c06" y="326.391561"/>
    </g>
    <g clip-path="url(#p63e3a8a56e)">
     <use style="fill:#8da0cb;" x="157.629698" xlink:href="#C2_0_486cc34c06" y="345.705045"/>
    </g>
    <g clip-path="url(#p63e3a8a56e)">
     <use style="fill:#8da0cb;" x="216.756734" xlink:href="#C2_0_486cc34c06" y="346.159133"/>
    </g>
    <g clip-path="url(#p63e3a8a56e)">
     <use style="fill:#8da0cb;" x="138.258797" xlink:href="#C2_0_486cc34c06" y="332.204564"/>
    </g>
    <g clip-path="url(#p63e3a8a56e)">
     <use style="fill:#8da0cb;" x="267.89065" xlink:href="#C2_0_486cc34c06" y="331.919512"/>
    </g>
    <g clip-path="url(#p63e3a8a56e)">
     <use style="fill:#8da0cb;" x="206.180461" xlink:href="#C2_0_486cc34c06" y="326.816628"/>
    </g>
    <g clip-path="url(#p63e3a8a56e)">
     <use style="fill:#8da0cb;" x="130.76293" xlink:href="#C2_0_486cc34c06" y="333.019694"/>
    </g>
    <g clip-path="url(#p63e3a8a56e)">
     <use style="fill:#8da0cb;" x="171.523053" xlink:href="#C2_0_486cc34c06" y="332.196189"/>
    </g>
    <g clip-path="url(#p63e3a8a56e)">
     <use style="fill:#8da0cb;" x="182.022694" xlink:href="#C2_0_486cc34c06" y="332.499655"/>
    </g>
    <g clip-path="url(#p63e3a8a56e)">
     <use style="fill:#8da0cb;" x="162.555745" xlink:href="#C2_0_486cc34c06" y="325.986678"/>
    </g>
    <g clip-path="url(#p63e3a8a56e)">
     <use style="fill:#8da0cb;" x="292.146202" xlink:href="#C2_0_486cc34c06" y="335.222914"/>
    </g>
    <g clip-path="url(#p63e3a8a56e)">
     <use style="fill:#8da0cb;" x="162.679095" xlink:href="#C2_0_486cc34c06" y="341.890098"/>
    </g>
    <g clip-path="url(#p63e3a8a56e)">
     <use style="fill:#8da0cb;" x="179.665972" xlink:href="#C2_0_486cc34c06" y="333.996575"/>
    </g>
    <g clip-path="url(#p63e3a8a56e)">
     <use style="fill:#8da0cb;" x="148.373486" xlink:href="#C2_0_486cc34c06" y="336.575075"/>
    </g>
    <g clip-path="url(#p63e3a8a56e)">
     <use style="fill:#8da0cb;" x="216.668463" xlink:href="#C2_0_486cc34c06" y="324.670133"/>
    </g>
    <g clip-path="url(#p63e3a8a56e)">
     <use style="fill:#8da0cb;" x="331.527342" xlink:href="#C2_0_486cc34c06" y="345.654165"/>
    </g>
    <g clip-path="url(#p63e3a8a56e)">
     <use style="fill:#8da0cb;" x="392.733085" xlink:href="#C2_0_486cc34c06" y="338.603927"/>
    </g>
    <g clip-path="url(#p63e3a8a56e)">
     <use style="fill:#8da0cb;" x="270.602147" xlink:href="#C2_0_486cc34c06" y="335.256029"/>
    </g>
    <g clip-path="url(#p63e3a8a56e)">
     <use style="fill:#8da0cb;" x="194.674183" xlink:href="#C2_0_486cc34c06" y="332.208742"/>
    </g>
    <g clip-path="url(#p63e3a8a56e)">
     <use style="fill:#8da0cb;" x="230.973034" xlink:href="#C2_0_486cc34c06" y="334.84616"/>
    </g>
    <g clip-path="url(#p63e3a8a56e)">
     <use style="fill:#8da0cb;" x="398.548844" xlink:href="#C2_0_486cc34c06" y="337.347984"/>
    </g>
   </g>
   <g id="PolyCollection_1">
    <defs>
     <path d="M 104.405577 -357.295692 
L 104.405577 -358.487845 
L 105.232684 -359.395758 
L 106.059791 -360.738927 
L 106.886897 -362.561372 
L 107.714004 -364.829067 
L 108.541111 -367.420318 
L 109.368218 -370.151663 
L 110.195324 -372.836319 
L 111.022431 -375.352166 
L 111.849538 -377.686639 
L 112.676644 -379.935636 
L 113.503751 -382.257767 
L 114.330858 -384.808096 
L 115.157965 -387.682244 
L 115.985071 -390.890625 
L 116.812178 -394.364421 
L 117.639285 -397.98161 
L 118.466391 -401.597177 
L 119.293498 -405.063976 
L 120.120605 -408.236996 
L 120.947712 -410.963752 
L 121.774818 -413.074273 
L 122.601925 -414.388038 
L 123.429032 -414.746167 
L 124.256138 -414.059235 
L 125.083245 -412.348302 
L 125.910352 -409.759687 
L 126.737459 -406.549451 
L 127.564565 -403.047327 
L 128.391672 -399.611885 
L 129.218779 -396.582276 
L 130.045885 -394.227963 
L 130.872992 -392.701851 
L 131.700099 -392.008829 
L 132.527206 -392.002073 
L 133.354312 -392.411209 
L 134.181419 -392.895535 
L 135.008526 -393.109115 
L 135.835632 -392.764625 
L 136.662739 -391.685986 
L 137.489846 -389.842864 
L 138.316953 -387.361834 
L 139.144059 -384.510516 
L 139.971166 -381.65282 
L 140.798273 -379.176707 
L 141.625379 -377.402379 
L 142.452486 -376.489315 
L 143.279593 -376.371488 
L 144.1067 -376.752332 
L 144.933806 -377.176437 
L 145.760913 -377.164651 
L 146.58802 -376.367251 
L 147.415126 -374.676022 
L 148.242233 -372.251738 
L 149.06934 -369.46157 
L 149.896447 -366.759497 
L 150.723553 -364.560313 
L 151.55066 -363.147748 
L 152.377767 -362.631551 
L 153.204873 -362.94638 
L 154.03198 -363.879023 
L 154.859087 -365.116462 
L 155.686194 -366.312678 
L 156.5133 -367.167057 
L 157.340407 -367.494715 
L 158.167514 -367.262019 
L 158.994621 -366.570338 
L 159.821727 -365.595178 
L 160.648834 -364.510964 
L 161.475941 -363.437232 
L 162.303047 -362.426032 
L 163.130154 -361.484784 
L 163.957261 -360.611264 
L 164.784368 -359.817683 
L 165.611474 -359.134579 
L 166.438581 -358.60025 
L 167.265688 -358.247629 
L 168.092794 -358.096598 
L 168.919901 -358.151856 
L 169.747008 -358.401655 
L 170.574115 -358.814117 
L 171.401221 -359.333278 
L 172.228328 -359.881372 
L 173.055435 -360.372819 
L 173.882541 -360.738358 
L 174.709648 -360.949035 
L 175.536755 -361.025931 
L 176.363862 -361.026936 
L 177.190968 -361.014618 
L 178.018075 -361.021407 
L 178.845182 -361.031405 
L 179.672288 -360.989249 
L 180.499395 -360.830836 
L 181.326502 -360.518432 
L 182.153609 -360.061329 
L 182.980715 -359.512895 
L 183.807822 -358.948581 
L 184.634929 -358.438393 
L 185.462035 -358.027164 
L 186.289142 -357.72886 
L 186.289142 -357.295692 
L 186.289142 -357.295692 
L 185.462035 -357.295692 
L 184.634929 -357.295692 
L 183.807822 -357.295692 
L 182.980715 -357.295692 
L 182.153609 -357.295692 
L 181.326502 -357.295692 
L 180.499395 -357.295692 
L 179.672288 -357.295692 
L 178.845182 -357.295692 
L 178.018075 -357.295692 
L 177.190968 -357.295692 
L 176.363862 -357.295692 
L 175.536755 -357.295692 
L 174.709648 -357.295692 
L 173.882541 -357.295692 
L 173.055435 -357.295692 
L 172.228328 -357.295692 
L 171.401221 -357.295692 
L 170.574115 -357.295692 
L 169.747008 -357.295692 
L 168.919901 -357.295692 
L 168.092794 -357.295692 
L 167.265688 -357.295692 
L 166.438581 -357.295692 
L 165.611474 -357.295692 
L 164.784368 -357.295692 
L 163.957261 -357.295692 
L 163.130154 -357.295692 
L 162.303047 -357.295692 
L 161.475941 -357.295692 
L 160.648834 -357.295692 
L 159.821727 -357.295692 
L 158.994621 -357.295692 
L 158.167514 -357.295692 
L 157.340407 -357.295692 
L 156.5133 -357.295692 
L 155.686194 -357.295692 
L 154.859087 -357.295692 
L 154.03198 -357.295692 
L 153.204873 -357.295692 
L 152.377767 -357.295692 
L 151.55066 -357.295692 
L 150.723553 -357.295692 
L 149.896447 -357.295692 
L 149.06934 -357.295692 
L 148.242233 -357.295692 
L 147.415126 -357.295692 
L 146.58802 -357.295692 
L 145.760913 -357.295692 
L 144.933806 -357.295692 
L 144.1067 -357.295692 
L 143.279593 -357.295692 
L 142.452486 -357.295692 
L 141.625379 -357.295692 
L 140.798273 -357.295692 
L 139.971166 -357.295692 
L 139.144059 -357.295692 
L 138.316953 -357.295692 
L 137.489846 -357.295692 
L 136.662739 -357.295692 
L 135.835632 -357.295692 
L 135.008526 -357.295692 
L 134.181419 -357.295692 
L 133.354312 -357.295692 
L 132.527206 -357.295692 
L 131.700099 -357.295692 
L 130.872992 -357.295692 
L 130.045885 -357.295692 
L 129.218779 -357.295692 
L 128.391672 -357.295692 
L 127.564565 -357.295692 
L 126.737459 -357.295692 
L 125.910352 -357.295692 
L 125.083245 -357.295692 
L 124.256138 -357.295692 
L 123.429032 -357.295692 
L 122.601925 -357.295692 
L 121.774818 -357.295692 
L 120.947712 -357.295692 
L 120.120605 -357.295692 
L 119.293498 -357.295692 
L 118.466391 -357.295692 
L 117.639285 -357.295692 
L 116.812178 -357.295692 
L 115.985071 -357.295692 
L 115.157965 -357.295692 
L 114.330858 -357.295692 
L 113.503751 -357.295692 
L 112.676644 -357.295692 
L 111.849538 -357.295692 
L 111.022431 -357.295692 
L 110.195324 -357.295692 
L 109.368218 -357.295692 
L 108.541111 -357.295692 
L 107.714004 -357.295692 
L 106.886897 -357.295692 
L 106.059791 -357.295692 
L 105.232684 -357.295692 
L 104.405577 -357.295692 
z
" id="m53205c4bcb" style="stroke:#595959;"/>
    </defs>
    <g clip-path="url(#p63e3a8a56e)">
     <use style="fill:#72b6a1;stroke:#595959;" x="0" xlink:href="#m53205c4bcb" y="439.2"/>
    </g>
   </g>
   <g id="PolyCollection_2">
    <defs>
     <path d="M 124.894694 -242.394741 
L 124.894694 -244.425875 
L 125.664562 -245.721421 
L 126.43443 -247.613689 
L 127.204298 -250.240303 
L 127.974165 -253.701392 
L 128.744033 -258.024466 
L 129.513901 -263.13261 
L 130.283769 -268.826336 
L 131.053636 -274.788386 
L 131.823504 -280.615945 
L 132.593372 -285.877136 
L 133.36324 -290.180699 
L 134.133107 -293.242611 
L 134.902975 -294.933328 
L 135.672843 -295.29456 
L 136.442711 -294.523038 
L 137.212578 -292.927275 
L 137.982446 -290.868828 
L 138.752314 -288.700788 
L 139.522182 -286.713882 
L 140.292049 -285.096956 
L 141.061917 -283.915527 
L 141.831785 -283.110285 
L 142.601653 -282.516201 
L 143.371521 -281.900659 
L 144.141388 -281.015426 
L 144.911256 -279.65298 
L 145.681124 -277.694916 
L 146.450992 -275.140821 
L 147.220859 -272.110609 
L 147.990727 -268.820453 
L 148.760595 -265.539399 
L 149.530463 -262.538027 
L 150.30033 -260.041083 
L 151.070198 -258.193449 
L 151.840066 -257.044712 
L 152.609934 -256.553278 
L 153.379801 -256.60723 
L 154.149669 -257.056116 
L 154.919537 -257.745875 
L 155.689405 -258.548738 
L 156.459272 -259.381667 
L 157.22914 -260.210575 
L 157.999008 -261.041901 
L 158.768876 -261.90642 
L 159.538743 -262.841048 
L 160.308611 -263.872918 
L 161.078479 -265.007522 
L 161.848347 -266.220987 
L 162.618215 -267.456515 
L 163.388082 -268.626222 
L 164.15795 -269.620386 
L 164.927818 -270.325059 
L 165.697686 -270.645961 
L 166.467553 -270.532811 
L 167.237421 -269.996056 
L 168.007289 -269.108849 
L 168.777157 -267.991416 
L 169.547024 -266.781046 
L 170.316892 -265.596381 
L 171.08676 -264.507169 
L 171.856628 -263.519043 
L 172.626495 -262.577834 
L 173.396363 -261.591361 
L 174.166231 -260.461115 
L 174.936099 -259.113668 
L 175.705966 -257.52269 
L 176.475834 -255.716374 
L 177.245702 -253.770084 
L 178.01557 -251.788341 
L 178.785437 -249.882548 
L 179.555305 -248.15087 
L 180.325173 -246.664838 
L 181.095041 -245.464587 
L 181.864909 -244.562049 
L 182.634776 -243.949548 
L 183.404644 -243.610382 
L 184.174512 -243.528074 
L 184.94438 -243.691727 
L 185.714247 -244.096125 
L 186.484115 -244.736645 
L 187.253983 -245.600428 
L 188.023851 -246.656433 
L 188.793718 -247.847692 
L 189.563586 -249.088924 
L 190.333454 -250.271588 
L 191.103322 -251.27652 
L 191.873189 -251.99202 
L 192.643057 -252.333319 
L 193.412925 -252.258525 
L 194.182793 -251.776787 
L 194.95266 -250.946402 
L 195.722528 -249.863348 
L 196.492396 -248.643265 
L 197.262264 -247.401483 
L 198.032131 -246.235768 
L 198.801999 -245.215174 
L 199.571867 -244.376336 
L 200.341735 -243.726406 
L 201.111602 -243.250412 
L 201.111602 -242.394741 
L 201.111602 -242.394741 
L 200.341735 -242.394741 
L 199.571867 -242.394741 
L 198.801999 -242.394741 
L 198.032131 -242.394741 
L 197.262264 -242.394741 
L 196.492396 -242.394741 
L 195.722528 -242.394741 
L 194.95266 -242.394741 
L 194.182793 -242.394741 
L 193.412925 -242.394741 
L 192.643057 -242.394741 
L 191.873189 -242.394741 
L 191.103322 -242.394741 
L 190.333454 -242.394741 
L 189.563586 -242.394741 
L 188.793718 -242.394741 
L 188.023851 -242.394741 
L 187.253983 -242.394741 
L 186.484115 -242.394741 
L 185.714247 -242.394741 
L 184.94438 -242.394741 
L 184.174512 -242.394741 
L 183.404644 -242.394741 
L 182.634776 -242.394741 
L 181.864909 -242.394741 
L 181.095041 -242.394741 
L 180.325173 -242.394741 
L 179.555305 -242.394741 
L 178.785437 -242.394741 
L 178.01557 -242.394741 
L 177.245702 -242.394741 
L 176.475834 -242.394741 
L 175.705966 -242.394741 
L 174.936099 -242.394741 
L 174.166231 -242.394741 
L 173.396363 -242.394741 
L 172.626495 -242.394741 
L 171.856628 -242.394741 
L 171.08676 -242.394741 
L 170.316892 -242.394741 
L 169.547024 -242.394741 
L 168.777157 -242.394741 
L 168.007289 -242.394741 
L 167.237421 -242.394741 
L 166.467553 -242.394741 
L 165.697686 -242.394741 
L 164.927818 -242.394741 
L 164.15795 -242.394741 
L 163.388082 -242.394741 
L 162.618215 -242.394741 
L 161.848347 -242.394741 
L 161.078479 -242.394741 
L 160.308611 -242.394741 
L 159.538743 -242.394741 
L 158.768876 -242.394741 
L 157.999008 -242.394741 
L 157.22914 -242.394741 
L 156.459272 -242.394741 
L 155.689405 -242.394741 
L 154.919537 -242.394741 
L 154.149669 -242.394741 
L 153.379801 -242.394741 
L 152.609934 -242.394741 
L 151.840066 -242.394741 
L 151.070198 -242.394741 
L 150.30033 -242.394741 
L 149.530463 -242.394741 
L 148.760595 -242.394741 
L 147.990727 -242.394741 
L 147.220859 -242.394741 
L 146.450992 -242.394741 
L 145.681124 -242.394741 
L 144.911256 -242.394741 
L 144.141388 -242.394741 
L 143.371521 -242.394741 
L 142.601653 -242.394741 
L 141.831785 -242.394741 
L 141.061917 -242.394741 
L 140.292049 -242.394741 
L 139.522182 -242.394741 
L 138.752314 -242.394741 
L 137.982446 -242.394741 
L 137.212578 -242.394741 
L 136.442711 -242.394741 
L 135.672843 -242.394741 
L 134.902975 -242.394741 
L 134.133107 -242.394741 
L 133.36324 -242.394741 
L 132.593372 -242.394741 
L 131.823504 -242.394741 
L 131.053636 -242.394741 
L 130.283769 -242.394741 
L 129.513901 -242.394741 
L 128.744033 -242.394741 
L 127.974165 -242.394741 
L 127.204298 -242.394741 
L 126.43443 -242.394741 
L 125.664562 -242.394741 
L 124.894694 -242.394741 
z
" id="m8047924626" style="stroke:#595959;"/>
    </defs>
    <g clip-path="url(#p63e3a8a56e)">
     <use style="fill:#e99675;stroke:#595959;" x="0" xlink:href="#m8047924626" y="439.2"/>
    </g>
   </g>
   <g id="PolyCollection_3">
    <defs>
     <path d="M 100.864456 -127.49379 
L 100.864456 -127.866578 
L 104.173373 -128.092241 
L 107.482291 -128.414193 
L 110.791209 -128.850987 
L 114.100127 -129.414339 
L 117.409045 -130.104848 
L 120.717962 -130.909028 
L 124.02688 -131.798896 
L 127.335798 -132.734866 
L 130.644716 -133.671673 
L 133.953634 -134.566004 
L 137.262551 -135.383732 
L 140.571469 -136.104623 
L 143.880387 -136.723186 
L 147.189305 -137.245654 
L 150.498223 -137.684437 
L 153.80714 -138.052054 
L 157.116058 -138.356481 
L 160.424976 -138.599022 
L 163.733894 -138.774844 
L 167.042812 -138.875613 
L 170.351729 -138.893434 
L 173.660647 -138.825319 
L 176.969565 -138.677416 
L 180.278483 -138.467963 
L 183.587401 -138.227684 
L 186.896318 -137.996427 
L 190.205236 -137.81572 
L 193.514154 -137.718307 
L 196.823072 -137.717345 
L 200.13199 -137.798769 
L 203.440907 -137.919931 
L 206.749825 -138.015946 
L 210.058743 -138.012684 
L 213.367661 -137.843124 
L 216.676579 -137.462621 
L 219.985496 -136.859023 
L 223.294414 -136.055346 
L 226.603332 -135.10505 
L 229.91225 -134.081964 
L 233.221168 -133.067935 
L 236.530085 -132.141017 
L 239.839003 -131.366021 
L 243.147921 -130.788028 
L 246.456839 -130.42868 
L 249.765757 -130.284918 
L 253.074674 -130.330142 
L 256.383592 -130.518039 
L 259.69251 -130.789242 
L 263.001428 -131.080294 
L 266.310346 -131.333458 
L 269.619263 -131.505207 
L 272.928181 -131.571267 
L 276.237099 -131.527007 
L 279.546017 -131.383536 
L 282.854934 -131.161311 
L 286.163852 -130.883753 
L 289.47277 -130.572968 
L 292.781688 -130.248411 
L 296.090606 -129.927836 
L 299.399523 -129.628916 
L 302.708441 -129.369814 
L 306.017359 -129.167742 
L 309.326277 -129.0357 
L 312.635195 -128.978558 
L 315.944112 -128.990106 
L 319.25303 -129.052447 
L 322.561948 -129.138389 
L 325.870866 -129.21646 
L 329.179784 -129.257311 
L 332.488701 -129.239797 
L 335.797619 -129.155085 
L 339.106537 -129.007778 
L 342.415455 -128.814005 
L 345.724373 -128.597364 
L 349.03329 -128.384138 
L 352.342208 -128.199231 
L 355.651126 -128.063719 
L 358.960044 -127.99412 
L 362.268962 -128.002734 
L 365.577879 -128.098036 
L 368.886797 -128.284183 
L 372.195715 -128.559252 
L 375.504633 -128.912609 
L 378.813551 -129.322499 
L 382.122468 -129.755341 
L 385.431386 -130.167916 
L 388.740304 -130.512818 
L 392.049222 -130.746375 
L 395.35814 -130.837098 
L 398.667057 -130.772289 
L 401.975975 -130.560757 
L 405.284893 -130.230751 
L 408.593811 -129.823729 
L 411.902729 -129.385811 
L 415.211646 -128.959338 
L 418.520564 -128.576599 
L 421.829482 -128.256859 
L 425.1384 -128.006671 
L 428.447318 -127.822558 
L 428.447318 -127.49379 
L 428.447318 -127.49379 
L 425.1384 -127.49379 
L 421.829482 -127.49379 
L 418.520564 -127.49379 
L 415.211646 -127.49379 
L 411.902729 -127.49379 
L 408.593811 -127.49379 
L 405.284893 -127.49379 
L 401.975975 -127.49379 
L 398.667057 -127.49379 
L 395.35814 -127.49379 
L 392.049222 -127.49379 
L 388.740304 -127.49379 
L 385.431386 -127.49379 
L 382.122468 -127.49379 
L 378.813551 -127.49379 
L 375.504633 -127.49379 
L 372.195715 -127.49379 
L 368.886797 -127.49379 
L 365.577879 -127.49379 
L 362.268962 -127.49379 
L 358.960044 -127.49379 
L 355.651126 -127.49379 
L 352.342208 -127.49379 
L 349.03329 -127.49379 
L 345.724373 -127.49379 
L 342.415455 -127.49379 
L 339.106537 -127.49379 
L 335.797619 -127.49379 
L 332.488701 -127.49379 
L 329.179784 -127.49379 
L 325.870866 -127.49379 
L 322.561948 -127.49379 
L 319.25303 -127.49379 
L 315.944112 -127.49379 
L 312.635195 -127.49379 
L 309.326277 -127.49379 
L 306.017359 -127.49379 
L 302.708441 -127.49379 
L 299.399523 -127.49379 
L 296.090606 -127.49379 
L 292.781688 -127.49379 
L 289.47277 -127.49379 
L 286.163852 -127.49379 
L 282.854934 -127.49379 
L 279.546017 -127.49379 
L 276.237099 -127.49379 
L 272.928181 -127.49379 
L 269.619263 -127.49379 
L 266.310346 -127.49379 
L 263.001428 -127.49379 
L 259.69251 -127.49379 
L 256.383592 -127.49379 
L 253.074674 -127.49379 
L 249.765757 -127.49379 
L 246.456839 -127.49379 
L 243.147921 -127.49379 
L 239.839003 -127.49379 
L 236.530085 -127.49379 
L 233.221168 -127.49379 
L 229.91225 -127.49379 
L 226.603332 -127.49379 
L 223.294414 -127.49379 
L 219.985496 -127.49379 
L 216.676579 -127.49379 
L 213.367661 -127.49379 
L 210.058743 -127.49379 
L 206.749825 -127.49379 
L 203.440907 -127.49379 
L 200.13199 -127.49379 
L 196.823072 -127.49379 
L 193.514154 -127.49379 
L 190.205236 -127.49379 
L 186.896318 -127.49379 
L 183.587401 -127.49379 
L 180.278483 -127.49379 
L 176.969565 -127.49379 
L 173.660647 -127.49379 
L 170.351729 -127.49379 
L 167.042812 -127.49379 
L 163.733894 -127.49379 
L 160.424976 -127.49379 
L 157.116058 -127.49379 
L 153.80714 -127.49379 
L 150.498223 -127.49379 
L 147.189305 -127.49379 
L 143.880387 -127.49379 
L 140.571469 -127.49379 
L 137.262551 -127.49379 
L 133.953634 -127.49379 
L 130.644716 -127.49379 
L 127.335798 -127.49379 
L 124.02688 -127.49379 
L 120.717962 -127.49379 
L 117.409045 -127.49379 
L 114.100127 -127.49379 
L 110.791209 -127.49379 
L 107.482291 -127.49379 
L 104.173373 -127.49379 
L 100.864456 -127.49379 
z
" id="mb8bc6aeeb9" style="stroke:#595959;"/>
    </defs>
    <g clip-path="url(#p63e3a8a56e)">
     <use style="fill:#95a3c3;stroke:#595959;" x="0" xlink:href="#mb8bc6aeeb9" y="439.2"/>
    </g>
   </g>
   <g id="PathCollection_4">
    <defs>
     <path d="M 0 3.383948 
C 0.897434 3.383948 1.758231 3.027394 2.392813 2.392813 
C 3.027394 1.758231 3.383948 0.897434 3.383948 -0 
C 3.383948 -0.897434 3.027394 -1.758231 2.392813 -2.392813 
C 1.758231 -3.027394 0.897434 -3.383948 0 -3.383948 
C -0.897434 -3.383948 -1.758231 -3.027394 -2.392813 -2.392813 
C -3.027394 -1.758231 -3.383948 -0.897434 -3.383948 0 
C -3.383948 0.897434 -3.027394 1.758231 -2.392813 2.392813 
C -1.758231 3.027394 -0.897434 3.383948 0 3.383948 
z
" id="C3_0_4d208e44a0"/>
    </defs>
    <g clip-path="url(#p63e3a8a56e)">
     <use style="fill:#ff0000;stroke:#ff0000;stroke-width:2.025;" x="131.00071" xlink:href="#C3_0_4d208e44a0" y="104.884499"/>
    </g>
    <g clip-path="url(#p63e3a8a56e)">
     <use style="fill:#ff0000;stroke:#ff0000;stroke-width:2.025;" x="151.953727" xlink:href="#C3_0_4d208e44a0" y="219.785449"/>
    </g>
    <g clip-path="url(#p63e3a8a56e)">
     <use style="fill:#ff0000;stroke:#ff0000;stroke-width:2.025;" x="216.73289" xlink:href="#C3_0_4d208e44a0" y="334.6864"/>
    </g>
   </g>
   <g id="matplotlib.axis_1">
    <g id="xtick_1">
     <g id="line2d_1">
      <defs>
       <path d="M 0 0 
L 0 -5 
" id="m269ca27942" style="stroke:#000000;"/>
      </defs>
      <g>
       <use style="stroke:#000000;" x="92.239585" xlink:href="#m269ca27942" y="392.136875"/>
      </g>
     </g>
     <g id="text_1">
      <text style="font-family:DejaVu Sans;font-size:12px;font-stretch:normal;font-style:normal;font-weight:normal;text-anchor:middle;" transform="rotate(-0, 92.239585, 404.755)" x="92.239585" y="404.755">0</text>
     </g>
    </g>
    <g id="xtick_2">
     <g id="line2d_2">
      <g>
       <use style="stroke:#000000;" x="140.704243" xlink:href="#m269ca27942" y="392.136875"/>
      </g>
     </g>
     <g id="text_2">
      <text style="font-family:DejaVu Sans;font-size:12px;font-stretch:normal;font-style:normal;font-weight:normal;text-anchor:middle;" transform="rotate(-0, 140.704243, 404.755)" x="140.704243" y="404.755">100</text>
     </g>
    </g>
    <g id="xtick_3">
     <g id="line2d_3">
      <g>
       <use style="stroke:#000000;" x="189.168901" xlink:href="#m269ca27942" y="392.136875"/>
      </g>
     </g>
     <g id="text_3">
      <text style="font-family:DejaVu Sans;font-size:12px;font-stretch:normal;font-style:normal;font-weight:normal;text-anchor:middle;" transform="rotate(-0, 189.168901, 404.755)" x="189.168901" y="404.755">200</text>
     </g>
    </g>
    <g id="xtick_4">
     <g id="line2d_4">
      <g>
       <use style="stroke:#000000;" x="237.633558" xlink:href="#m269ca27942" y="392.136875"/>
      </g>
     </g>
     <g id="text_4">
      <text style="font-family:DejaVu Sans;font-size:12px;font-stretch:normal;font-style:normal;font-weight:normal;text-anchor:middle;" transform="rotate(-0, 237.633558, 404.755)" x="237.633558" y="404.755">300</text>
     </g>
    </g>
    <g id="xtick_5">
     <g id="line2d_5">
      <g>
       <use style="stroke:#000000;" x="286.098216" xlink:href="#m269ca27942" y="392.136875"/>
      </g>
     </g>
     <g id="text_5">
      <text style="font-family:DejaVu Sans;font-size:12px;font-stretch:normal;font-style:normal;font-weight:normal;text-anchor:middle;" transform="rotate(-0, 286.098216, 404.755)" x="286.098216" y="404.755">400</text>
     </g>
    </g>
    <g id="xtick_6">
     <g id="line2d_6">
      <g>
       <use style="stroke:#000000;" x="334.562874" xlink:href="#m269ca27942" y="392.136875"/>
      </g>
     </g>
     <g id="text_6">
      <text style="font-family:DejaVu Sans;font-size:12px;font-stretch:normal;font-style:normal;font-weight:normal;text-anchor:middle;" transform="rotate(-0, 334.562874, 404.755)" x="334.562874" y="404.755">500</text>
     </g>
    </g>
    <g id="xtick_7">
     <g id="line2d_7">
      <g>
       <use style="stroke:#000000;" x="383.027532" xlink:href="#m269ca27942" y="392.136875"/>
      </g>
     </g>
     <g id="text_7">
      <text style="font-family:DejaVu Sans;font-size:12px;font-stretch:normal;font-style:normal;font-weight:normal;text-anchor:middle;" transform="rotate(-0, 383.027532, 404.755)" x="383.027532" y="404.755">600</text>
     </g>
    </g>
    <g id="xtick_8">
     <g id="line2d_8">
      <g>
       <use style="stroke:#000000;" x="431.49219" xlink:href="#m269ca27942" y="392.136875"/>
      </g>
     </g>
     <g id="text_8">
      <text style="font-family:DejaVu Sans;font-size:12px;font-stretch:normal;font-style:normal;font-weight:normal;text-anchor:middle;" transform="rotate(-0, 431.49219, 404.755)" x="431.49219" y="404.755">700</text>
     </g>
    </g>
    <g id="xtick_9">
     <g id="line2d_9">
      <g>
       <use style="stroke:#000000;" x="479.956848" xlink:href="#m269ca27942" y="392.136875"/>
      </g>
     </g>
     <g id="text_9">
      <text style="font-family:DejaVu Sans;font-size:12px;font-stretch:normal;font-style:normal;font-weight:normal;text-anchor:middle;" transform="rotate(-0, 479.956848, 404.755)" x="479.956848" y="404.755">800</text>
     </g>
    </g>
    <g id="text_10">
     <text style="font-family:DejaVu Sans;font-size:14px;font-stretch:normal;font-style:normal;font-weight:normal;text-anchor:middle;" transform="rotate(-0, 290.642656, 421.888438)" x="290.642656" y="421.888438">pause duration</text>
    </g>
   </g>
   <g id="matplotlib.axis_2">
    <g id="ytick_1">
     <g id="line2d_10">
      <defs>
       <path d="M 0 0 
L 5 0 
" id="m64ceb05565" style="stroke:#000000;"/>
      </defs>
      <g>
       <use style="stroke:#000000;" x="84.485313" xlink:href="#m64ceb05565" y="104.884499"/>
      </g>
     </g>
     <g id="text_11">
      <text style="font-family:DejaVu Sans;font-size:14px;font-stretch:normal;font-style:normal;font-weight:normal;text-anchor:end;" transform="rotate(-0, 80.985313, 110.203405)" x="80.985313" y="110.203405">Healthy</text>
     </g>
    </g>
    <g id="ytick_2">
     <g id="line2d_11">
      <g>
       <use style="stroke:#000000;" x="84.485313" xlink:href="#m64ceb05565" y="219.785449"/>
      </g>
     </g>
     <g id="text_12">
      <text style="font-family:DejaVu Sans;font-size:14px;font-stretch:normal;font-style:normal;font-weight:normal;text-anchor:end;" transform="rotate(-0, 80.985313, 225.104355)" x="80.985313" y="225.104355">Mild</text>
     </g>
    </g>
    <g id="ytick_3">
     <g id="line2d_12">
      <g>
       <use style="stroke:#000000;" x="84.485313" xlink:href="#m64ceb05565" y="334.6864"/>
      </g>
     </g>
     <g id="text_13">
      <text style="font-family:DejaVu Sans;font-size:14px;font-stretch:normal;font-style:normal;font-weight:normal;" transform="translate(14.4 333.230618)">Moderate</text>
      <text style="font-family:DejaVu Sans;font-size:14px;font-stretch:normal;font-style:normal;font-weight:normal;" transform="translate(29.071562 348.907556)">-severe</text>
     </g>
    </g>
   </g>
   <g id="line2d_13">
    <path clip-path="url(#p63e3a8a56e)" d="M 110.292502 100.575713 
L 110.292502 109.193284 
" style="fill:none;stroke:#595959;stroke-linecap:square;stroke-width:1.5;"/>
   </g>
   <g id="line2d_14">
    <path clip-path="url(#p63e3a8a56e)" d="M 162.22961 100.575713 
L 162.22961 109.193284 
" style="fill:none;stroke:#595959;stroke-linecap:square;stroke-width:1.5;"/>
   </g>
   <g id="line2d_15">
    <defs>
     <path d="M -0 3.535534 
L 2.12132 0 
L -0 -3.535534 
L -2.12132 -0 
z
" id="m6a76931c3b" style="stroke:#595959;stroke-linejoin:miter;"/>
    </defs>
    <g clip-path="url(#p63e3a8a56e)">
     <use style="fill:#595959;stroke:#595959;stroke-linejoin:miter;" x="174.276381" xlink:href="#m6a76931c3b" y="104.884499"/>
     <use style="fill:#595959;stroke:#595959;stroke-linejoin:miter;" x="180.402218" xlink:href="#m6a76931c3b" y="104.884499"/>
    </g>
   </g>
   <g id="line2d_16">
    <path clip-path="url(#p63e3a8a56e)" d="M 131.895929 215.476663 
L 131.895929 224.094235 
" style="fill:none;stroke:#595959;stroke-linecap:square;stroke-width:1.5;"/>
   </g>
   <g id="line2d_17">
    <path clip-path="url(#p63e3a8a56e)" d="M 194.110368 215.476663 
L 194.110368 224.094235 
" style="fill:none;stroke:#595959;stroke-linecap:square;stroke-width:1.5;"/>
   </g>
   <g id="line2d_18"/>
   <g id="line2d_19">
    <path clip-path="url(#p63e3a8a56e)" d="M 130.76293 330.377614 
L 130.76293 338.995185 
" style="fill:none;stroke:#595959;stroke-linecap:square;stroke-width:1.5;"/>
   </g>
   <g id="line2d_20">
    <path clip-path="url(#p63e3a8a56e)" d="M 331.527342 330.377614 
L 331.527342 338.995185 
" style="fill:none;stroke:#595959;stroke-linecap:square;stroke-width:1.5;"/>
   </g>
   <g id="line2d_21">
    <g clip-path="url(#p63e3a8a56e)">
     <use style="fill:#595959;stroke:#595959;stroke-linejoin:miter;" x="392.733085" xlink:href="#m6a76931c3b" y="334.6864"/>
     <use style="fill:#595959;stroke:#595959;stroke-linejoin:miter;" x="398.548844" xlink:href="#m6a76931c3b" y="334.6864"/>
    </g>
   </g>
   <g id="line2d_22">
    <path clip-path="url(#p63e3a8a56e)" d="M 131.00071 104.884499 
L 151.953727 219.785449 
L 216.73289 334.6864 
" style="fill:none;stroke:#ff0000;stroke-linecap:square;stroke-width:2.7;"/>
   </g>
   <g id="line2d_23">
    <path clip-path="url(#p63e3a8a56e)" d="M 127.540188 104.884499 
L 134.520618 104.884499 
" style="fill:none;"/>
   </g>
   <g id="line2d_24">
    <path clip-path="url(#p63e3a8a56e)" d="M 127.540188 104.884499 
L 127.540188 104.884499 
" style="fill:none;"/>
   </g>
   <g id="line2d_25">
    <path clip-path="url(#p63e3a8a56e)" d="M 134.520618 104.884499 
L 134.520618 104.884499 
" style="fill:none;"/>
   </g>
   <g id="line2d_26">
    <path clip-path="url(#p63e3a8a56e)" d="M 145.704176 219.785449 
L 157.828753 219.785449 
" style="fill:none;"/>
   </g>
   <g id="line2d_27">
    <path clip-path="url(#p63e3a8a56e)" d="M 145.704176 219.785449 
L 145.704176 219.785449 
" style="fill:none;"/>
   </g>
   <g id="line2d_28">
    <path clip-path="url(#p63e3a8a56e)" d="M 157.828753 219.785449 
L 157.828753 219.785449 
" style="fill:none;"/>
   </g>
   <g id="line2d_29">
    <path clip-path="url(#p63e3a8a56e)" d="M 190.69312 334.6864 
L 247.141905 334.6864 
" style="fill:none;"/>
   </g>
   <g id="line2d_30">
    <path clip-path="url(#p63e3a8a56e)" d="M 190.69312 334.6864 
L 190.69312 334.6864 
" style="fill:none;"/>
   </g>
   <g id="line2d_31">
    <path clip-path="url(#p63e3a8a56e)" d="M 247.141905 334.6864 
L 247.141905 334.6864 
" style="fill:none;"/>
   </g>
   <g id="line2d_32">
    <path clip-path="url(#p63e3a8a56e)" d="M 238.353359 104.884499 
L 245.560182 104.884499 
L 245.560182 219.785449 
L 238.353359 219.785449 
" style="fill:none;stroke:#333333;stroke-linecap:square;stroke-width:1.5;"/>
   </g>
   <g id="line2d_33">
    <path clip-path="url(#p63e3a8a56e)" d="M 422.475643 219.785449 
L 429.682466 219.785449 
L 429.682466 334.6864 
L 422.475643 334.6864 
" style="fill:none;stroke:#333333;stroke-linecap:square;stroke-width:1.5;"/>
   </g>
   <g id="line2d_34">
    <path clip-path="url(#p63e3a8a56e)" d="M 458.046236 104.884499 
L 465.253059 104.884499 
L 465.253059 334.6864 
L 458.046236 334.6864 
" style="fill:none;stroke:#333333;stroke-linecap:square;stroke-width:1.5;"/>
   </g>
   <g id="line2d_35">
    <path clip-path="url(#p63e3a8a56e)" d="M 127.360734 96.266927 
L 127.360734 113.50207 
" style="fill:none;stroke:#595959;stroke-linecap:square;stroke-width:1.5;"/>
   </g>
   <g id="line2d_36">
    <path clip-path="url(#p63e3a8a56e)" d="M 145.491137 211.167878 
L 145.491137 228.40302 
" style="fill:none;stroke:#595959;stroke-linecap:square;stroke-width:1.5;"/>
   </g>
   <g id="line2d_37">
    <path clip-path="url(#p63e3a8a56e)" d="M 200.427322 326.068828 
L 200.427322 343.303971 
" style="fill:none;stroke:#595959;stroke-linecap:square;stroke-width:1.5;"/>
   </g>
   <g id="patch_3">
    <path d="M 84.485313 392.136875 
L 84.485313 14.4 
" style="fill:none;stroke:#000000;stroke-linecap:square;stroke-linejoin:miter;"/>
   </g>
   <g id="patch_4">
    <path d="M 496.8 392.136875 
L 496.8 14.4 
" style="fill:none;stroke:#000000;stroke-linecap:square;stroke-linejoin:miter;"/>
   </g>
   <g id="patch_5">
    <path d="M 84.485313 392.136875 
L 496.8 392.136875 
" style="fill:none;stroke:#000000;stroke-linecap:square;stroke-linejoin:miter;"/>
   </g>
   <g id="patch_6">
    <path d="M 84.485313 14.4 
L 496.8 14.4 
" style="fill:none;stroke:#000000;stroke-linecap:square;stroke-linejoin:miter;"/>
   </g>
   <g id="text_14">
    <text style="font-family:DejaVu Sans;font-size:16px;font-stretch:normal;font-style:normal;font-weight:normal;text-anchor:middle;" transform="rotate(-270, 249.887682, 162.334974)" x="249.887682" y="162.334974">****</text>
   </g>
   <g id="text_15">
    <text style="font-family:DejaVu Sans;font-size:16px;font-stretch:normal;font-style:normal;font-weight:normal;text-anchor:middle;" transform="rotate(-270, 434.009966, 277.235924)" x="434.009966" y="277.235924">***</text>
   </g>
   <g id="text_16">
    <text style="font-family:DejaVu Sans;font-size:16px;font-stretch:normal;font-style:normal;font-weight:normal;text-anchor:middle;" transform="rotate(-270, 469.580559, 219.785449)" x="469.580559" y="219.785449">****</text>
   </g>
   <g id="line2d_38">
    <path clip-path="url(#p63e3a8a56e)" d="M 120.62982 104.884499 
L 110.292502 104.884499 
" style="fill:none;stroke:#595959;stroke-linecap:square;stroke-width:2;"/>
   </g>
   <g id="line2d_39">
    <path clip-path="url(#p63e3a8a56e)" d="M 137.906867 104.884499 
L 162.22961 104.884499 
" style="fill:none;stroke:#595959;stroke-linecap:square;stroke-width:2;"/>
   </g>
   <g id="line2d_40">
    <path clip-path="url(#p63e3a8a56e)" d="M 136.668676 219.785449 
L 131.895929 219.785449 
" style="fill:none;stroke:#595959;stroke-linecap:square;stroke-width:2;"/>
   </g>
   <g id="line2d_41">
    <path clip-path="url(#p63e3a8a56e)" d="M 165.430684 219.785449 
L 194.110368 219.785449 
" style="fill:none;stroke:#595959;stroke-linecap:square;stroke-width:2;"/>
   </g>
   <g id="line2d_42">
    <path clip-path="url(#p63e3a8a56e)" d="M 162.648257 334.6864 
L 130.76293 334.6864 
" style="fill:none;stroke:#595959;stroke-linecap:square;stroke-width:2;"/>
   </g>
   <g id="line2d_43">
    <path clip-path="url(#p63e3a8a56e)" d="M 240.202438 334.6864 
L 331.527342 334.6864 
" style="fill:none;stroke:#595959;stroke-linecap:square;stroke-width:2;"/>
   </g>
   <g id="patch_7">
    <path clip-path="url(#p63e3a8a56e)" d="M 120.62982 96.266927 
L 120.62982 113.50207 
L 137.906867 113.50207 
L 137.906867 96.266927 
L 120.62982 96.266927 
z
" style="fill:none;stroke:#595959;stroke-linejoin:miter;stroke-width:1.5;"/>
   </g>
   <g id="patch_8">
    <path clip-path="url(#p63e3a8a56e)" d="M 136.668676 211.167878 
L 136.668676 228.40302 
L 165.430684 228.40302 
L 165.430684 211.167878 
L 136.668676 211.167878 
z
" style="fill:none;stroke:#595959;stroke-linejoin:miter;stroke-width:1.5;"/>
   </g>
   <g id="patch_9">
    <path clip-path="url(#p63e3a8a56e)" d="M 162.648257 326.068828 
L 162.648257 343.303971 
L 240.202438 343.303971 
L 240.202438 326.068828 
L 162.648257 326.068828 
z
" style="fill:none;stroke:#595959;stroke-linejoin:miter;stroke-width:1.5;"/>
   </g>
  </g>
 </g>
 <defs>
  <clipPath id="p63e3a8a56e">
   <rect height="377.736875" width="412.314687" x="84.485313" y="14.4"/>
  </clipPath>
 </defs>
</svg>
